SplineFontDB: 3.0
FontName: BZPalaia
FullName: BZ Palaia
FamilyName: BZ Palaia
Weight: Book
Version: 0.00 March 30, 2006
ItalicAngle: 0
UnderlinePosition: 0
UnderlineWidth: 0
Ascent: 1638
Descent: 410
sfntRevision: 0x00000000
LayerCount: 2
Layer: 0 1 "Back"  1
Layer: 1 1 "Fore"  0
XUID: [1021 761 1329040319 3890211]
FSType: 0
OS2Version: 0
OS2_WeightWidthSlopeOnly: 0
OS2_UseTypoMetrics: 1
CreationTime: -2082844800
ModificationTime: 1231603536
PfmFamily: 17
TTFWeight: 400
TTFWidth: 5
LineGap: 0
VLineGap: 0
Panose: 2 11 6 3 5 3 2 2 2 4
OS2TypoAscent: 2310
OS2TypoAOffset: 1
OS2TypoDescent: 491
OS2TypoDOffset: 1
OS2TypoLinegap: 0
OS2WinAscent: -134
OS2WinAOffset: 1
OS2WinDescent: 0
OS2WinDOffset: 1
HheadAscent: -134
HheadAOffset: 1
HheadDescent: 0
HheadDOffset: 1
OS2SubXSize: 0
OS2SubYSize: 0
OS2SubXOff: 0
OS2SubYOff: 0
OS2SupXSize: 0
OS2SupYSize: 0
OS2SupXOff: 0
OS2SupYOff: 0
OS2StrikeYSize: 0
OS2StrikeYPos: 0
OS2UnicodeRanges: 00000000.00000000.00000000.00000000
DEI: 91125
ShortTable: maxp 16
  1
  0
  95
  178
  6
  0
  0
  1
  0
  16
  0
  0
  0
  0
  0
  0
EndShort
LangName: 1033 "" "" "Regular" "BZ Palaia:Version 0.00" "" "Version 0.00 March 30, 2006" 
Encoding: UnicodeFull
UnicodeInterp: none
NameList: Adobe Glyph List
DisplaySize: -96
AntiAlias: 1
FitToEm: 1
WinInfo: 32 8 2
BeginChars: 1114112 95

StartChar: quotedbl
Encoding: 34 34 4
Width: 3103
Flags: W
LayerCount: 2
Fore
SplineSet
138 2020.5 m 128,-1,1
 147 2033 147 2033 159 2034 c 128,-1,2
 171 2035 171 2035 260.5 2031 c 128,-1,3
 350 2027 350 2027 627 2049 c 1,4,-1
 1953 2149 l 2,5,6
 2139 2164 2139 2164 2213.5 2166 c 128,-1,7
 2288 2168 2288 2168 2354 2161.5 c 128,-1,8
 2420 2155 2420 2155 2469 2143 c 128,-1,9
 2518 2131 2518 2131 2586 2111.5 c 128,-1,10
 2654 2092 2654 2092 2715.5 2069 c 128,-1,11
 2777 2046 2777 2046 2830.5 2017 c 128,-1,12
 2884 1988 2884 1988 2896.5 1959.5 c 128,-1,13
 2909 1931 2909 1931 2889 1923.5 c 128,-1,14
 2869 1916 2869 1916 2839 1917.5 c 128,-1,15
 2809 1919 2809 1919 2758 1923 c 128,-1,16
 2707 1927 2707 1927 2657 1930.5 c 128,-1,17
 2607 1934 2607 1934 2512 1933 c 128,-1,18
 2417 1932 2417 1932 2298 1924 c 2,19,-1
 661 1802 l 1,20,21
 561 1800 561 1800 522.5 1803 c 128,-1,22
 484 1806 484 1806 451.5 1812 c 128,-1,23
 419 1818 419 1818 389.5 1829 c 128,-1,24
 360 1840 360 1840 326 1856.5 c 128,-1,25
 292 1873 292 1873 256.5 1895.5 c 128,-1,26
 221 1918 221 1918 184.5 1947 c 128,-1,27
 148 1976 148 1976 138.5 1992 c 128,-1,0
 129 2008 129 2008 138 2020.5 c 128,-1,1
1353 3537 m 1,28,29
 1503 3538 1503 3538 1656 3539 c 128,-1,30
 1809 3540 1809 3540 1959 3542 c 1,31,32
 1970 3528 1970 3528 1967.5 3505 c 128,-1,33
 1965 3482 1965 3482 1960 3467 c 1,34,35
 1929 3460 1929 3460 1758.5 3460.5 c 128,-1,36
 1588 3461 1588 3461 1462 3461 c 1,37,38
 1461 3355 1461 3355 1466 3222 c 128,-1,39
 1471 3089 1471 3089 1460 3088 c 1,40,41
 1428 3088 1428 3088 1392 3083.5 c 128,-1,42
 1356 3079 1356 3079 1331 3088 c 1,43,44
 1328 3088 1328 3088 1328 3108 c 0,45,46
 1328 3109 1328 3109 1329.5 3110 c 128,-1,47
 1331 3111 1331 3111 1331 3113 c 0,48,49
 1331 3221 1331 3221 1332.5 3309.5 c 128,-1,50
 1334 3398 1334 3398 1334 3506 c 0,51,52
 1334 3534 1334 3534 1353 3537 c 1,28,29
1682 2844 m 1,53,54
 1730 2843 1730 2843 1728.5 2815 c 128,-1,55
 1727 2787 1727 2787 1694 2782 c 1,56,57
 1638 2770 1638 2770 1621 2735 c 1,58,59
 1547 2558 1547 2558 1507.5 2425.5 c 128,-1,60
 1468 2293 1468 2293 1406 2268 c 1,61,62
 1340 2259 1340 2259 1267 2257.5 c 128,-1,63
 1194 2256 1194 2256 1124 2268 c 1,64,65
 1094 2280 1094 2280 1103.5 2295 c 128,-1,66
 1113 2310 1113 2310 1133 2316 c 1,67,68
 1154 2321 1154 2321 1177 2364 c 0,69,70
 1248 2492 1248 2492 1296 2652.5 c 128,-1,71
 1344 2813 1344 2813 1397 2831 c 1,72,73
 1467 2852 1467 2852 1539 2848 c 128,-1,74
 1611 2844 1611 2844 1682 2844 c 1,53,54
EndSplineSet
EndChar

StartChar: dollar
Encoding: 36 36 5
Width: 38
Flags: W
LayerCount: 2
Fore
SplineSet
35 2090 m 1,0,1
 37 2090 37 2090 37 2088 c 256,2,3
 37 2086 37 2086 35 2086 c 1,4,5
 35 2086 35 2086 34.5 2086.5 c 128,-1,6
 34 2087 34 2087 34 2088 c 2,7,8
 34 2088 34 2088 34.5 2089 c 128,-1,9
 35 2090 35 2090 35 2090 c 1,0,1
-952 3284 m 1,10,11
 -801 3285 -801 3285 -648.5 3286 c 128,-1,12
 -496 3287 -496 3287 -346 3289 c 1,13,14
 -335 3275 -335 3275 -337.5 3252 c 128,-1,15
 -340 3229 -340 3229 -345 3214 c 1,16,17
 -375 3207 -375 3207 -546 3207.5 c 128,-1,18
 -717 3208 -717 3208 -843 3208 c 1,19,20
 -843 3102 -843 3102 -838.5 2990.5 c 128,-1,21
 -834 2879 -834 2879 -846 2877 c 1,22,23
 -877 2877 -877 2877 -912.5 2872.5 c 128,-1,24
 -948 2868 -948 2868 -975 2877 c 0,25,26
 -978 2877 -978 2877 -978 2898 c 0,27,28
 -978 2899 -978 2899 -976.5 2900 c 128,-1,29
 -975 2901 -975 2901 -975 2903 c 0,30,31
 -975 3011 -975 3011 -973.5 3078 c 128,-1,32
 -972 3145 -972 3145 -972 3253 c 0,33,34
 -972 3281 -972 3281 -952 3284 c 1,10,11
35 1940 m 1,35,36
 37 1940 37 1940 37 1938 c 256,37,38
 37 1936 37 1936 35 1936 c 1,39,40
 35 1936 35 1936 34.5 1936.5 c 128,-1,41
 34 1937 34 1937 34 1938 c 2,42,43
 34 1938 34 1938 34.5 1939 c 128,-1,44
 35 1940 35 1940 35 1940 c 1,35,36
-1230 3219 m 2,45,-1
 -1143 3219 l 2,46,47
 -1135 3219 -1135 3219 -1119 3218.5 c 128,-1,48
 -1103 3218 -1103 3218 -1098 3213 c 0,49,50
 -1092 3207 -1092 3207 -1100 3207 c 128,-1,51
 -1108 3207 -1108 3207 -1114 3174 c 1,52,-1
 -1123 3104 l 2,53,54
 -1128 3059 -1128 3059 -1165 3059 c 2,55,-1
 -1251 3059 l 2,56,57
 -1258 3059 -1258 3059 -1277.5 3060 c 128,-1,58
 -1297 3061 -1297 3061 -1298 3069 c 1,59,60
 -1298 3078 -1298 3078 -1291 3080.5 c 128,-1,61
 -1284 3083 -1284 3083 -1282 3104 c 2,62,-1
 -1273 3174 l 1,63,64
 -1265 3219 -1265 3219 -1230 3219 c 2,45,-1
EndSplineSet
EndChar

StartChar: percent
Encoding: 37 37 6
Width: 427
Flags: W
LayerCount: 2
Fore
SplineSet
186 2760 m 1,0,1
 188 2786 188 2786 218.5 2784.5 c 128,-1,2
 249 2783 249 2783 251 2761 c 1,3,-1
 251 1402 l 2,4,5
 251 1372 251 1372 251 1372 c 1,6,7
 239 1345 239 1345 212.5 1349 c 128,-1,8
 186 1353 186 1353 186 1372 c 2,9,-1
 186 2731 l 2,10,11
 186 2760 186 2760 186 2760 c 1,0,1
185 1850 m 257,12,13
 185 1850 185 1850 185 1850 c 129,-1,14
 185 1850 185 1850 185 1850 c 257,15,16
 185 1850 185 1850 185 1850 c 129,-1,17
 185 1850 185 1850 185 1850 c 257,18,19
 185 1850 185 1850 185 1850 c 129,-1,20
 185 1850 185 1850 185 1850 c 257,21,22
 185 1850 185 1850 185 1850 c 129,-1,23
 185 1850 185 1850 185 1850 c 257,12,13
EndSplineSet
EndChar

StartChar: ampersand
Encoding: 38 38 7
Width: 427
Flags: W
LayerCount: 2
Fore
SplineSet
185 1850 m 257,0,1
 185 1850 185 1850 185 1850 c 129,-1,2
 185 1850 185 1850 185 1850 c 257,3,4
 185 1850 185 1850 185 1850 c 129,-1,5
 185 1850 185 1850 185 1850 c 257,6,7
 185 1850 185 1850 185 1850 c 129,-1,8
 185 1850 185 1850 185 1850 c 257,9,10
 185 1850 185 1850 185 1850 c 129,-1,11
 185 1850 185 1850 185 1850 c 257,0,1
217 3004 m 1,12,13
 62 2997 62 2997 -31 2952 c 128,-1,14
 -124 2907 -124 2907 -206 2800 c 1,15,-1
 -186 2781 l 1,16,17
 -63 2896 -63 2896 29 2918 c 128,-1,18
 121 2940 121 2940 217 2945 c 1,19,20
 347 2936 347 2936 428.5 2906 c 128,-1,21
 510 2876 510 2876 606 2781 c 1,22,-1
 626 2803 l 1,23,24
 525 2923 525 2923 435.5 2959 c 128,-1,25
 346 2995 346 2995 217 3004 c 1,12,13
186 2760 m 1,26,27
 188 2786 188 2786 218.5 2784.5 c 128,-1,28
 249 2783 249 2783 251 2761 c 1,29,-1
 251 1402 l 2,30,31
 251 1372 251 1372 251 1372 c 1,32,33
 239 1345 239 1345 212.5 1349 c 128,-1,34
 186 1353 186 1353 186 1372 c 2,35,-1
 186 2731 l 2,36,37
 186 2760 186 2760 186 2760 c 1,26,27
EndSplineSet
EndChar

StartChar: quotesingle
Encoding: 39 39 8
Width: 3103
Flags: W
LayerCount: 2
Fore
SplineSet
138 2020.5 m 128,-1,1
 147 2033 147 2033 159 2034 c 128,-1,2
 171 2035 171 2035 260.5 2031 c 128,-1,3
 350 2027 350 2027 627 2049 c 1,4,-1
 1953 2149 l 2,5,6
 2139 2164 2139 2164 2213.5 2166 c 128,-1,7
 2288 2168 2288 2168 2354 2161.5 c 128,-1,8
 2420 2155 2420 2155 2469 2143 c 128,-1,9
 2518 2131 2518 2131 2586 2111.5 c 128,-1,10
 2654 2092 2654 2092 2715.5 2069 c 128,-1,11
 2777 2046 2777 2046 2830.5 2017 c 128,-1,12
 2884 1988 2884 1988 2896.5 1959.5 c 128,-1,13
 2909 1931 2909 1931 2889 1923.5 c 128,-1,14
 2869 1916 2869 1916 2839 1917.5 c 128,-1,15
 2809 1919 2809 1919 2758 1923 c 128,-1,16
 2707 1927 2707 1927 2657 1930.5 c 128,-1,17
 2607 1934 2607 1934 2512 1933 c 128,-1,18
 2417 1932 2417 1932 2298 1924 c 2,19,-1
 661 1802 l 1,20,21
 561 1800 561 1800 522.5 1803 c 128,-1,22
 484 1806 484 1806 451.5 1812 c 128,-1,23
 419 1818 419 1818 389.5 1829 c 128,-1,24
 360 1840 360 1840 326 1856.5 c 128,-1,25
 292 1873 292 1873 256.5 1895.5 c 128,-1,26
 221 1918 221 1918 184.5 1947 c 128,-1,27
 148 1976 148 1976 138.5 1992 c 128,-1,0
 129 2008 129 2008 138 2020.5 c 128,-1,1
1682 2844 m 1,28,29
 1730 2843 1730 2843 1728.5 2815 c 128,-1,30
 1727 2787 1727 2787 1694 2782 c 1,31,32
 1638 2770 1638 2770 1621 2735 c 1,33,34
 1547 2558 1547 2558 1507.5 2425.5 c 128,-1,35
 1468 2293 1468 2293 1406 2268 c 1,36,37
 1340 2259 1340 2259 1267 2257.5 c 128,-1,38
 1194 2256 1194 2256 1124 2268 c 1,39,40
 1094 2280 1094 2280 1103.5 2295 c 128,-1,41
 1113 2310 1113 2310 1133 2316 c 1,42,43
 1154 2321 1154 2321 1177 2364 c 0,44,45
 1248 2492 1248 2492 1296 2652.5 c 128,-1,46
 1344 2813 1344 2813 1397 2831 c 1,47,48
 1467 2852 1467 2852 1539 2848 c 128,-1,49
 1611 2844 1611 2844 1682 2844 c 1,28,29
EndSplineSet
EndChar

StartChar: parenleft
Encoding: 40 40 9
Width: 17
Flags: W
LayerCount: 2
Fore
SplineSet
8 1970 m 0,0,1
 10 1970 10 1970 10 1967 c 0,2,3
 10 1965 10 1965 8 1965 c 0,4,5
 5 1965 5 1965 5 1967 c 0,6,7
 5 1970 5 1970 8 1970 c 0,0,1
-634 1340 m 2,8,-1
 -513 1340 l 2,9,10
 -502 1340 -502 1340 -479.5 1339.5 c 128,-1,11
 -457 1339 -457 1339 -451 1333 c 0,12,13
 -442 1325 -442 1325 -453.5 1324.5 c 128,-1,14
 -465 1324 -465 1324 -471 1278 c 2,15,-1
 -484 1181 l 2,16,17
 -493 1119 -493 1119 -542 1119 c 2,18,-1
 -663 1119 l 2,19,20
 -673 1119 -673 1119 -699.5 1120.5 c 128,-1,21
 -726 1122 -726 1122 -727 1133 c 0,22,23
 -728 1145 -728 1145 -718 1149 c 128,-1,24
 -708 1153 -708 1153 -705 1181 c 2,25,-1
 -692 1278 l 1,26,27
 -682 1340 -682 1340 -634 1340 c 2,8,-1
-172 1340 m 2,28,-1
 -51 1340 l 2,29,30
 -41 1340 -41 1340 -19 1339.5 c 128,-1,31
 3 1339 3 1339 10 1333 c 1,32,33
 17 1325 17 1325 6.5 1324.5 c 128,-1,34
 -4 1324 -4 1324 -10 1278 c 2,35,-1
 -23 1181 l 1,36,37
 -30 1119 -30 1119 -81 1119 c 2,38,-1
 -202 1119 l 2,39,40
 -212 1119 -212 1119 -238.5 1120.5 c 128,-1,41
 -265 1122 -265 1122 -266 1133 c 0,42,43
 -267 1145 -267 1145 -256.5 1149 c 128,-1,44
 -246 1153 -246 1153 -243 1181 c 2,45,-1
 -231 1278 l 1,46,47
 -221 1340 -221 1340 -172 1340 c 2,28,-1
EndSplineSet
EndChar

StartChar: parenright
Encoding: 41 41 10
Width: 0
Flags: W
LayerCount: 2
Fore
SplineSet
12 1970 m 0,0,1
 14 1970 14 1970 14 1967 c 0,2,3
 14 1965 14 1965 12 1965 c 0,4,5
 9 1965 9 1965 9 1967 c 0,6,7
 9 1970 9 1970 12 1970 c 0,0,1
-963 682 m 1,8,9
 -1019 680 -1019 680 -1083 750 c 0,10,11
 -1158 833 -1158 833 -1161 928.5 c 128,-1,12
 -1164 1024 -1164 1024 -1115.5 1082.5 c 128,-1,13
 -1067 1141 -1067 1141 -960 1179 c 0,14,15
 -857 1215 -857 1215 -732 1181 c 1,16,17
 -626 1141 -626 1141 -578.5 1083 c 128,-1,18
 -531 1025 -531 1025 -533 928 c 128,-1,19
 -535 831 -535 831 -645 747 c 1,20,-1
 869 932 l 1,21,22
 926 933 926 933 960.5 924.5 c 128,-1,23
 995 916 995 916 1021 903.5 c 128,-1,24
 1047 891 1047 891 1068.5 875 c 128,-1,25
 1090 859 1090 859 1105.5 839 c 128,-1,26
 1121 819 1121 819 1130.5 795.5 c 128,-1,27
 1140 772 1140 772 1140 756.5 c 128,-1,28
 1140 741 1140 741 1129.5 735.5 c 128,-1,29
 1119 730 1119 730 1107 730 c 128,-1,30
 1095 730 1095 730 1081 735.5 c 128,-1,31
 1067 741 1067 741 1048.5 747 c 128,-1,32
 1030 753 1030 753 1006 760 c 128,-1,33
 982 767 982 767 962 770.5 c 128,-1,34
 942 774 942 774 907 776 c 1,35,-1
 -766 683 l 1,36,-1
 -682 804 l 1,37,38
 -630 948 -630 948 -684 1042 c 0,39,40
 -735 1130 -735 1130 -854 1138 c 1,41,42
 -960 1131 -960 1131 -1007 1043 c 1,43,44
 -1061 953 -1061 953 -1012 806 c 1,45,-1
 -963 682 l 1,8,9
EndSplineSet
EndChar

StartChar: asterisk
Encoding: 42 42 11
Width: 0
Flags: W
LayerCount: 2
Fore
SplineSet
-512 1340 m 2,0,-1
 -391 1340 l 2,1,2
 -380 1340 -380 1340 -357.5 1339.5 c 128,-1,3
 -335 1339 -335 1339 -329 1333 c 0,4,5
 -320 1325 -320 1325 -331.5 1324.5 c 128,-1,6
 -343 1324 -343 1324 -350 1278 c 1,7,-1
 -362 1181 l 1,8,9
 -371 1119 -371 1119 -420 1119 c 2,10,-1
 -541 1119 l 2,11,12
 -551 1119 -551 1119 -577.5 1120.5 c 128,-1,13
 -604 1122 -604 1122 -606 1133 c 1,14,15
 -606 1145 -606 1145 -596 1149 c 128,-1,16
 -586 1153 -586 1153 -583 1181 c 2,17,-1
 -570 1278 l 1,18,19
 -560 1340 -560 1340 -512 1340 c 2,0,-1
EndSplineSet
EndChar

StartChar: plus
Encoding: 43 43 12
Width: 10
Flags: W
LayerCount: 2
Fore
SplineSet
-3250 1313 m 256,0,1
 -3183 1313 -3183 1313 -3183 1245 c 0,2,3
 -3183 1178 -3183 1178 -3250 1178 c 256,4,5
 -3317 1178 -3317 1178 -3317 1245 c 0,6,7
 -3317 1313 -3317 1313 -3250 1313 c 256,0,1
-3923 1313 m 256,8,9
 -3856 1313 -3856 1313 -3856 1245 c 0,10,11
 -3856 1178 -3856 1178 -3923 1178 c 256,12,13
 -3990 1178 -3990 1178 -3990 1245 c 0,14,15
 -3990 1313 -3990 1313 -3923 1313 c 256,8,9
-3361 831 m 1,16,17
 -3354 856 -3354 856 -3354 887 c 0,18,19
 -3354 983 -3354 983 -3422.5 1052 c 128,-1,20
 -3491 1121 -3491 1121 -3588 1121 c 0,21,22
 -3711 1121 -3711 1121 -3781 1018 c 1,23,24
 -3702 995 -3702 995 -3632 966 c 0,25,26
 -3586 946 -3586 946 -3516 909 c 128,-1,27
 -3446 872 -3446 872 -3361 831 c 1,16,17
-3818 928 m 1,28,29
 -3822 902 -3822 902 -3822 887 c 0,30,31
 -3822 790 -3822 790 -3753 721.5 c 128,-1,32
 -3684 653 -3684 653 -3588 653 c 0,33,34
 -3476 653 -3476 653 -3406 740 c 1,35,36
 -3484 778 -3484 778 -3553.5 815 c 128,-1,37
 -3623 852 -3623 852 -3685 877 c 0,38,39
 -3756 906 -3756 906 -3818 928 c 1,28,29
-3588 1185 m 0,40,41
 -3465 1185 -3465 1185 -3377.5 1097.5 c 128,-1,42
 -3290 1010 -3290 1010 -3290 887 c 0,43,44
 -3290 845 -3290 845 -3301 803 c 1,45,46
 -3154 735 -3154 735 -2983 687 c 128,-1,47
 -2812 639 -2812 639 -2653 668 c 1,48,49
 -2576 681 -2576 681 -2509.5 733 c 128,-1,50
 -2443 785 -2443 785 -2464 823 c 1,51,52
 -2483 860 -2483 860 -2551.5 816.5 c 128,-1,53
 -2620 773 -2620 773 -2673 902 c 0,54,55
 -2713 1001 -2713 1001 -2653.5 1064.5 c 128,-1,56
 -2594 1128 -2594 1128 -2493 1101 c 0,57,58
 -2348 1061 -2348 1061 -2357 898 c 1,59,60
 -2360 811 -2360 811 -2432.5 726 c 128,-1,61
 -2505 641 -2505 641 -2593 617 c 1,62,63
 -2813 554 -2813 554 -3001.5 596 c 128,-1,64
 -3190 638 -3190 638 -3347 711 c 1,65,66
 -3438 588 -3438 588 -3588 588 c 0,67,68
 -3711 588 -3711 588 -3798.5 676 c 128,-1,69
 -3886 764 -3886 764 -3886 887 c 0,70,71
 -3886 919 -3886 919 -3880 949 c 1,72,73
 -3999 986 -3999 986 -4114 999 c 128,-1,74
 -4229 1012 -4229 1012 -4352 989 c 0,75,76
 -4452 970 -4452 970 -4583 918 c 128,-1,77
 -4714 866 -4714 866 -4761 830 c 1,78,79
 -4784 810 -4784 810 -4817.5 837 c 128,-1,80
 -4851 864 -4851 864 -4832 910 c 1,81,-1
 -4551 1237 l 1,82,83
 -4530 1255 -4530 1255 -4493 1232 c 128,-1,84
 -4456 1209 -4456 1209 -4485 1164 c 1,85,-1
 -4714 918 l 1,86,87
 -4696 932 -4696 932 -4561.5 984.5 c 128,-1,88
 -4427 1037 -4427 1037 -4355 1054 c 0,89,90
 -4242 1080 -4242 1080 -4107.5 1072.5 c 128,-1,91
 -3973 1065 -3973 1065 -3847 1035 c 1,92,93
 -3760 1185 -3760 1185 -3588 1185 c 0,40,41
8 1970 m 0,94,95
 10 1970 10 1970 10 1967 c 0,96,97
 10 1965 10 1965 8 1965 c 0,98,99
 5 1965 5 1965 5 1967 c 0,100,101
 5 1970 5 1970 8 1970 c 0,94,95
EndSplineSet
EndChar

StartChar: comma
Encoding: 44 44 13
Width: 0
Flags: W
LayerCount: 2
Fore
SplineSet
8 1970 m 0,0,1
 10 1970 10 1970 10 1967 c 0,2,3
 10 1965 10 1965 8 1965 c 0,4,5
 5 1965 5 1965 5 1967 c 0,6,7
 5 1970 5 1970 8 1970 c 0,0,1
-2328 1401 m 1,8,9
 -2296 1486 -2296 1486 -2268.5 1548.5 c 128,-1,10
 -2241 1611 -2241 1611 -2217 1611 c 1,11,12
 -2155 1621 -2155 1621 -2078 1623 c 128,-1,13
 -2001 1625 -2001 1625 -1931 1625 c 1,14,15
 -1882 1624 -1882 1624 -1886 1598 c 128,-1,16
 -1890 1572 -1890 1572 -1923 1566 c 0,17,18
 -1949 1561 -1949 1561 -1968 1543.5 c 128,-1,19
 -1987 1526 -1987 1526 -1993 1516 c 1,20,21
 -2065 1338 -2065 1338 -2105 1205.5 c 128,-1,22
 -2145 1073 -2145 1073 -2207 1049 c 1,23,24
 -2273 1040 -2273 1040 -2345.5 1038 c 128,-1,25
 -2418 1036 -2418 1036 -2489 1049 c 1,26,27
 -2519 1061 -2519 1061 -2509.5 1076 c 128,-1,28
 -2500 1091 -2500 1091 -2481 1097 c 1,29,30
 -2460 1102 -2460 1102 -2436 1145 c 0,31,32
 -2399 1211 -2399 1211 -2363 1309 c 1,33,-1
 -4080 1309 l 1,34,-1
 -4185 1302 l 1,35,36
 -4208 1302 -4208 1302 -4236 1302.5 c 128,-1,37
 -4264 1303 -4264 1303 -4286 1306 c 0,38,39
 -4328 1310 -4328 1310 -4328 1355.5 c 128,-1,40
 -4328 1401 -4328 1401 -4283 1401 c 2,41,-1
 -2328 1401 l 1,8,9
EndSplineSet
EndChar

StartChar: hyphen
Encoding: 45 45 14
Width: 0
Flags: W
LayerCount: 2
Fore
SplineSet
-695 1516 m 1,0,1
 -572 1525 -572 1525 -472.5 1531 c 128,-1,2
 -373 1537 -373 1537 -246 1532 c 1,3,4
 -219 1523 -219 1523 -223 1494.5 c 128,-1,5
 -227 1466 -227 1466 -250 1468 c 1,6,7
 -262 1466 -262 1466 -264.5 1467 c 128,-1,8
 -267 1468 -267 1468 -283 1468 c 0,9,10
 -376 1464 -376 1464 -459 1379.5 c 128,-1,11
 -542 1295 -542 1295 -666.5 1191.5 c 128,-1,12
 -791 1088 -791 1088 -942 958 c 128,-1,13
 -1093 828 -1093 828 -1185.5 762 c 128,-1,14
 -1278 696 -1278 696 -1372 668 c 128,-1,15
 -1466 640 -1466 640 -1639 623 c 128,-1,16
 -1812 606 -1812 606 -2045 609 c 1,17,18
 -2229 626 -2229 626 -2393.5 641.5 c 128,-1,19
 -2558 657 -2558 657 -2851 719 c 1,20,21
 -3024 760 -3024 760 -3105 786.5 c 128,-1,22
 -3186 813 -3186 813 -3334 877 c 1,23,24
 -3340 910 -3340 910 -3309 902 c 128,-1,25
 -3278 894 -3278 894 -3149 857 c 1,26,27
 -2926 798 -2926 798 -2826 779.5 c 128,-1,28
 -2726 761 -2726 761 -2561 740 c 1,29,30
 -2299 704 -2299 704 -2174 698 c 128,-1,31
 -2049 692 -2049 692 -1875 700 c 1,32,33
 -1658 726 -1658 726 -1547 775 c 128,-1,34
 -1436 824 -1436 824 -1213 1076 c 1,35,36
 -1029 1241 -1029 1241 -908.5 1369 c 128,-1,37
 -788 1497 -788 1497 -695 1516 c 1,0,1
EndSplineSet
EndChar

StartChar: period
Encoding: 46 46 15
Width: 0
Flags: W
LayerCount: 2
Fore
SplineSet
-164 1357 m 1,0,1
 -105 1330 -105 1330 -132 1282 c 1,2,3
 -143 1255 -143 1255 -155 1238 c 128,-1,4
 -167 1221 -167 1221 -183.5 1210 c 128,-1,5
 -200 1199 -200 1199 -229 1232 c 0,6,7
 -260 1268 -260 1268 -289 1292 c 128,-1,8
 -318 1316 -318 1316 -355.5 1334 c 128,-1,9
 -393 1352 -393 1352 -444 1360.5 c 128,-1,10
 -495 1369 -495 1369 -546.5 1369 c 128,-1,11
 -598 1369 -598 1369 -647 1362.5 c 128,-1,12
 -696 1356 -696 1356 -729.5 1339.5 c 128,-1,13
 -763 1323 -763 1323 -778 1310 c 128,-1,14
 -793 1297 -793 1297 -797 1273.5 c 128,-1,15
 -801 1250 -801 1250 -761 1220 c 1,16,17
 -701 1163 -701 1163 -458 1019 c 128,-1,18
 -215 875 -215 875 -66 695 c 0,19,20
 -16 635 -16 635 25 567 c 128,-1,21
 66 499 66 499 71.5 441 c 128,-1,22
 77 383 77 383 63.5 346 c 128,-1,23
 50 309 50 309 17 273.5 c 128,-1,24
 -16 238 -16 238 -59 228 c 128,-1,25
 -102 218 -102 218 -147.5 225.5 c 128,-1,26
 -193 233 -193 233 -236 261 c 1,27,28
 -269 292 -269 292 -262 307.5 c 128,-1,29
 -255 323 -255 323 -241 322 c 1,30,31
 -225 324 -225 324 -198.5 318 c 128,-1,32
 -172 312 -172 312 -141 326 c 1,33,34
 -82 362 -82 362 -91.5 493.5 c 128,-1,35
 -101 625 -101 625 -192 718 c 0,36,37
 -377 906 -377 906 -597 1036.5 c 128,-1,38
 -817 1167 -817 1167 -873 1223 c 1,39,40
 -895 1243 -895 1243 -900 1262.5 c 128,-1,41
 -905 1282 -905 1282 -902.5 1305.5 c 128,-1,42
 -900 1329 -900 1329 -874.5 1352 c 128,-1,43
 -849 1375 -849 1375 -800.5 1394.5 c 128,-1,44
 -752 1414 -752 1414 -683.5 1419.5 c 128,-1,45
 -615 1425 -615 1425 -576 1425.5 c 128,-1,46
 -537 1426 -537 1426 -504.5 1424 c 128,-1,47
 -472 1422 -472 1422 -432.5 1418.5 c 128,-1,48
 -393 1415 -393 1415 -345 1406 c 128,-1,49
 -297 1397 -297 1397 -262.5 1388.5 c 128,-1,50
 -228 1380 -228 1380 -164 1357 c 1,0,1
EndSplineSet
EndChar

StartChar: slash
Encoding: 47 47 16
Width: 89
Flags: W
LayerCount: 2
Fore
SplineSet
-391 1516 m 1,0,1
 -268 1525 -268 1525 -168.5 1531 c 128,-1,2
 -69 1537 -69 1537 58 1532 c 1,3,4
 85 1523 85 1523 81 1494.5 c 128,-1,5
 77 1466 77 1466 54 1468 c 1,6,7
 42 1466 42 1466 39.5 1467 c 128,-1,8
 37 1468 37 1468 21 1468 c 1,9,10
 -26 1464 -26 1464 -132 1379.5 c 128,-1,11
 -238 1295 -238 1295 -362.5 1191.5 c 128,-1,12
 -487 1088 -487 1088 -554 1040.5 c 128,-1,13
 -621 993 -621 993 -666.5 963.5 c 128,-1,14
 -712 934 -712 934 -818 885 c 1,15,16
 -936 827 -936 827 -1131 811 c 128,-1,17
 -1326 795 -1326 795 -1464 804 c 128,-1,18
 -1602 813 -1602 813 -1702 839 c 128,-1,19
 -1802 865 -1802 865 -1941 912.5 c 128,-1,20
 -2080 960 -2080 960 -2333 1106 c 1,21,22
 -2642 1286 -2642 1286 -2723 1343 c 128,-1,23
 -2804 1400 -2804 1400 -2895 1464 c 1,24,25
 -2912 1494 -2912 1494 -2891.5 1524.5 c 128,-1,26
 -2871 1555 -2871 1555 -2820 1525 c 0,27,28
 -2768 1495 -2768 1495 -2609.5 1384 c 128,-1,29
 -2451 1273 -2451 1273 -2204 1135 c 1,30,31
 -2025 1033 -2025 1033 -1815 970.5 c 128,-1,32
 -1605 908 -1605 908 -1459 903 c 1,33,34
 -1327 900 -1327 900 -1198.5 931 c 128,-1,35
 -1070 962 -1070 962 -909 1076 c 1,36,37
 -725 1241 -725 1241 -604.5 1369 c 128,-1,38
 -484 1497 -484 1497 -391 1516 c 1,0,1
EndSplineSet
EndChar

StartChar: zero
Encoding: 48 48 17
Width: 0
Flags: W
LayerCount: 2
Fore
SplineSet
-2214 890 m 1,0,1
 -2270 888 -2270 888 -2334 958 c 0,2,3
 -2409 1041 -2409 1041 -2412 1136.5 c 128,-1,4
 -2415 1232 -2415 1232 -2366.5 1290.5 c 128,-1,5
 -2318 1349 -2318 1349 -2211 1387 c 0,6,7
 -2108 1423 -2108 1423 -1983 1389 c 1,8,9
 -1877 1349 -1877 1349 -1829.5 1291 c 128,-1,10
 -1782 1233 -1782 1233 -1784 1136 c 128,-1,11
 -1786 1039 -1786 1039 -1896 955 c 1,12,-1
 -512 1140 l 1,13,14
 -455 1141 -455 1141 -420.5 1132.5 c 128,-1,15
 -386 1124 -386 1124 -360 1111.5 c 128,-1,16
 -334 1099 -334 1099 -312.5 1083 c 128,-1,17
 -291 1067 -291 1067 -275.5 1047 c 128,-1,18
 -260 1027 -260 1027 -250.5 1003.5 c 128,-1,19
 -241 980 -241 980 -241 964.5 c 128,-1,20
 -241 949 -241 949 -251.5 943.5 c 128,-1,21
 -262 938 -262 938 -274 938 c 128,-1,22
 -286 938 -286 938 -300 943.5 c 128,-1,23
 -314 949 -314 949 -332.5 955 c 128,-1,24
 -351 961 -351 961 -375 968 c 128,-1,25
 -399 975 -399 975 -419 978.5 c 128,-1,26
 -439 982 -439 982 -474 984 c 1,27,-1
 -2017 891 l 1,28,-1
 -1933 1012 l 1,29,30
 -1881 1156 -1881 1156 -1935 1250 c 0,31,32
 -1986 1338 -1986 1338 -2105 1346 c 1,33,34
 -2211 1339 -2211 1339 -2258 1251 c 1,35,36
 -2312 1161 -2312 1161 -2263 1014 c 1,37,-1
 -2214 890 l 1,0,1
EndSplineSet
EndChar

StartChar: four
Encoding: 52 52 18
Width: 38
Flags: W
LayerCount: 2
Fore
SplineSet
35 1940 m 1,0,1
 37 1940 37 1940 37 1938 c 256,2,3
 37 1936 37 1936 35 1936 c 1,4,5
 35 1936 35 1936 34.5 1936.5 c 128,-1,6
 34 1937 34 1937 34 1938 c 2,7,8
 34 1938 34 1938 34.5 1939 c 128,-1,9
 35 1940 35 1940 35 1940 c 1,0,1
-1626 2973 m 1,10,11
 -1475 2974 -1475 2974 -1322.5 2974.5 c 128,-1,12
 -1170 2975 -1170 2975 -1020 2978 c 1,13,14
 -1009 2964 -1009 2964 -1011.5 2941 c 128,-1,15
 -1014 2918 -1014 2918 -1019 2903 c 1,16,17
 -1049 2896 -1049 2896 -1220 2896 c 128,-1,18
 -1391 2896 -1391 2896 -1517 2896 c 1,19,20
 -1517 2791 -1517 2791 -1512.5 2657.5 c 128,-1,21
 -1508 2524 -1508 2524 -1520 2524 c 0,22,23
 -1551 2524 -1551 2524 -1586.5 2519.5 c 128,-1,24
 -1622 2515 -1622 2515 -1648 2524 c 1,25,26
 -1652 2524 -1652 2524 -1652 2544 c 0,27,28
 -1652 2545 -1652 2545 -1650 2546 c 128,-1,29
 -1648 2547 -1648 2547 -1648 2548 c 0,30,31
 -1648 2656 -1648 2656 -1647 2744.5 c 128,-1,32
 -1646 2833 -1646 2833 -1646 2942 c 0,33,34
 -1646 2969 -1646 2969 -1626 2973 c 1,10,11
35 1940 m 1,35,36
 37 1940 37 1940 37 1938 c 256,37,38
 37 1936 37 1936 35 1936 c 1,39,40
 35 1936 35 1936 34.5 1936.5 c 128,-1,41
 34 1937 34 1937 34 1938 c 2,42,43
 34 1938 34 1938 34.5 1939 c 128,-1,44
 35 1940 35 1940 35 1940 c 1,35,36
-1904 2907 m 2,45,-1
 -1817 2907 l 2,46,47
 -1809 2907 -1809 2907 -1793 2906.5 c 128,-1,48
 -1777 2906 -1777 2906 -1772 2902 c 0,49,50
 -1766 2896 -1766 2896 -1774 2895.5 c 128,-1,51
 -1782 2895 -1782 2895 -1788 2862 c 1,52,-1
 -1797 2793 l 2,53,54
 -1802 2748 -1802 2748 -1839 2748 c 2,55,-1
 -1925 2748 l 2,56,57
 -1932 2748 -1932 2748 -1951.5 2749 c 128,-1,58
 -1971 2750 -1971 2750 -1972 2758 c 1,59,60
 -1972 2767 -1972 2767 -1965 2769.5 c 128,-1,61
 -1958 2772 -1958 2772 -1956 2793 c 1,62,-1
 -1946 2862 l 2,63,64
 -1940 2907 -1940 2907 -1904 2907 c 2,45,-1
EndSplineSet
EndChar

StartChar: five
Encoding: 53 53 19
Width: 0
Flags: W
LayerCount: 2
Fore
SplineSet
-1050 1485 m 1,0,1
 -899 1486 -899 1486 -746 1486.5 c 128,-1,2
 -593 1487 -593 1487 -443 1490 c 1,3,4
 -432 1476 -432 1476 -434.5 1453.5 c 128,-1,5
 -437 1431 -437 1431 -443 1416 c 1,6,7
 -473 1408 -473 1408 -644 1408.5 c 128,-1,8
 -815 1409 -815 1409 -941 1409 c 1,9,10
 -941 1304 -941 1304 -936 1170.5 c 128,-1,11
 -931 1037 -931 1037 -943 1036 c 1,12,13
 -974 1036 -974 1036 -1010 1031.5 c 128,-1,14
 -1046 1027 -1046 1027 -1072 1036 c 0,15,16
 -1075 1036 -1075 1036 -1075 1057 c 1,17,18
 -1075 1057 -1075 1057 -1073.5 1058.5 c 128,-1,19
 -1072 1060 -1072 1060 -1072 1061 c 0,20,21
 -1072 1169 -1072 1169 -1070.5 1257.5 c 128,-1,22
 -1069 1346 -1069 1346 -1069 1455 c 0,23,24
 -1069 1482 -1069 1482 -1050 1485 c 1,0,1
EndSplineSet
EndChar

StartChar: seven
Encoding: 55 55 20
Width: 0
Flags: W
LayerCount: 2
Fore
SplineSet
-1631 1245.5 m 128,-1,1
 -1681 1259 -1681 1259 -1652 1226.5 c 128,-1,2
 -1623 1194 -1623 1194 -1595 1174 c 128,-1,3
 -1567 1154 -1567 1154 -985 901 c 0,4,5
 -953 887 -953 887 -937 911 c 1,6,-1
 -723 1152 l 1,7,8
 -681 1206 -681 1206 -729 1237 c 1,9,-1
 -814 1287 l 2,10,11
 -872 1320 -872 1320 -901 1281 c 1,12,-1
 -1105 1039 l 1,13,14
 -1473 1193 -1473 1193 -1527 1212.5 c 128,-1,0
 -1581 1232 -1581 1232 -1631 1245.5 c 128,-1,1
EndSplineSet
EndChar

StartChar: eight
Encoding: 56 56 21
Width: 1
Flags: W
LayerCount: 2
Fore
SplineSet
-1605 1340 m 2,0,-1
 -1484 1340 l 2,1,2
 -1473 1340 -1473 1340 -1450.5 1339.5 c 128,-1,3
 -1428 1339 -1428 1339 -1422 1333 c 0,4,5
 -1413 1325 -1413 1325 -1424.5 1324.5 c 128,-1,6
 -1436 1324 -1436 1324 -1443 1278 c 2,7,-1
 -1456 1181 l 1,8,9
 -1463 1119 -1463 1119 -1514 1119 c 2,10,-1
 -1635 1119 l 2,11,12
 -1644 1119 -1644 1119 -1671 1120.5 c 128,-1,13
 -1698 1122 -1698 1122 -1699 1133 c 0,14,15
 -1700 1145 -1700 1145 -1689.5 1149 c 128,-1,16
 -1679 1153 -1679 1153 -1676 1181 c 2,17,-1
 -1663 1278 l 2,18,19
 -1655 1340 -1655 1340 -1605 1340 c 2,0,-1
36 1940 m 1,20,21
 38 1940 38 1940 38 1938 c 256,22,23
 38 1936 38 1936 36 1936 c 1,24,25
 36 1936 36 1936 35.5 1936.5 c 128,-1,26
 35 1937 35 1937 35 1938 c 2,27,28
 35 1938 35 1938 35.5 1939 c 128,-1,29
 36 1940 36 1940 36 1940 c 1,20,21
EndSplineSet
EndChar

StartChar: nine
Encoding: 57 57 22
Width: 10
Flags: W
LayerCount: 2
Fore
SplineSet
-1606 1340 m 2,0,-1
 -1485 1340 l 2,1,2
 -1474 1340 -1474 1340 -1451.5 1339.5 c 128,-1,3
 -1429 1339 -1429 1339 -1423 1333 c 0,4,5
 -1414 1325 -1414 1325 -1425.5 1324.5 c 128,-1,6
 -1437 1324 -1437 1324 -1444 1278 c 2,7,-1
 -1457 1181 l 1,8,9
 -1464 1119 -1464 1119 -1515 1119 c 2,10,-1
 -1636 1119 l 2,11,12
 -1645 1119 -1645 1119 -1672 1120.5 c 128,-1,13
 -1699 1122 -1699 1122 -1700 1133 c 0,14,15
 -1701 1145 -1701 1145 -1690.5 1149 c 128,-1,16
 -1680 1153 -1680 1153 -1677 1181 c 2,17,-1
 -1664 1278 l 2,18,19
 -1656 1340 -1656 1340 -1606 1340 c 2,0,-1
-1114 1340 m 2,20,-1
 -993 1340 l 2,21,22
 -982 1340 -982 1340 -959.5 1339.5 c 128,-1,23
 -937 1339 -937 1339 -931 1333 c 0,24,25
 -922 1325 -922 1325 -934 1324.5 c 128,-1,26
 -946 1324 -946 1324 -952 1278 c 2,27,-1
 -965 1181 l 1,28,29
 -972 1119 -972 1119 -1023 1119 c 2,30,-1
 -1144 1119 l 2,31,32
 -1153 1119 -1153 1119 -1180 1120.5 c 128,-1,33
 -1207 1122 -1207 1122 -1208 1133 c 0,34,35
 -1209 1145 -1209 1145 -1198.5 1149 c 128,-1,36
 -1188 1153 -1188 1153 -1185 1181 c 2,37,-1
 -1172 1278 l 2,38,39
 -1164 1340 -1164 1340 -1114 1340 c 2,20,-1
8 1970 m 0,40,41
 10 1970 10 1970 10 1967 c 0,42,43
 10 1965 10 1965 8 1965 c 0,44,45
 5 1965 5 1965 5 1967 c 0,46,47
 5 1970 5 1970 8 1970 c 0,40,41
EndSplineSet
EndChar

StartChar: colon
Encoding: 58 58 23
Width: 3809
Flags: W
LayerCount: 2
Fore
SplineSet
366 2024 m 128,-1,1
 375 2036 375 2036 387.5 2037 c 128,-1,2
 400 2038 400 2038 489.5 2032 c 128,-1,3
 579 2026 579 2026 855 2042 c 1,4,-1
 2813 2145 l 1,5,6
 2999 2157 2999 2157 3073.5 2157.5 c 128,-1,7
 3148 2158 3148 2158 3214 2150 c 128,-1,8
 3280 2142 3280 2142 3329 2128.5 c 128,-1,9
 3378 2115 3378 2115 3445 2094.5 c 128,-1,10
 3512 2074 3512 2074 3573.5 2049.5 c 128,-1,11
 3635 2025 3635 2025 3687.5 1994.5 c 128,-1,12
 3740 1964 3740 1964 3752 1935.5 c 128,-1,13
 3764 1907 3764 1907 3744 1900 c 128,-1,14
 3724 1893 3724 1893 3693.5 1895 c 128,-1,15
 3663 1897 3663 1897 3613 1902.5 c 128,-1,16
 3563 1908 3563 1908 3512.5 1912 c 128,-1,17
 3462 1916 3462 1916 3367 1917.5 c 128,-1,18
 3272 1919 3272 1919 3152 1914 c 1,19,-1
 884 1795 l 1,20,21
 785 1794 785 1794 746.5 1798 c 128,-1,22
 708 1802 708 1802 675.5 1809 c 128,-1,23
 643 1816 643 1816 613.5 1827.5 c 128,-1,24
 584 1839 584 1839 551 1856 c 128,-1,25
 518 1873 518 1873 482.5 1896.5 c 128,-1,26
 447 1920 447 1920 411.5 1950 c 128,-1,27
 376 1980 376 1980 366.5 1996 c 128,-1,0
 357 2012 357 2012 366 2024 c 128,-1,1
1842 2427 m 1,28,-1
 1860 2350 l 1,29,30
 1861 2341 1861 2341 1882 2309.5 c 128,-1,31
 1903 2278 1903 2278 1903 2270 c 256,32,33
 1903 2262 1903 2262 1868.5 2255.5 c 128,-1,34
 1834 2249 1834 2249 1823 2249 c 2,35,-1
 1698 2249 l 2,36,37
 1674 2249 1674 2249 1652 2284 c 128,-1,38
 1630 2319 1630 2319 1624 2350 c 2,39,-1
 1607 2428 l 1,40,41
 1367 2428 1367 2428 1167 2447 c 128,-1,42
 967 2466 967 2466 883 2480 c 1,43,44
 727 2504 727 2504 626 2566 c 128,-1,45
 525 2628 525 2628 492 2706 c 0,46,47
 475 2745 475 2745 432.5 2821.5 c 128,-1,48
 390 2898 390 2898 342.5 2976 c 128,-1,49
 295 3054 295 3054 253 3115 c 128,-1,50
 211 3176 211 3176 195 3184 c 1,51,52
 111 3213 111 3213 157 3247 c 1,53,54
 260 3256 260 3256 354.5 3258 c 128,-1,55
 449 3260 449 3260 547 3252 c 1,56,57
 645 3246 645 3246 687.5 3140 c 128,-1,58
 730 3034 730 3034 773 2861 c 0,59,60
 815 2688 815 2688 878 2626 c 128,-1,61
 941 2564 941 2564 1094 2524 c 1,62,63
 1179 2500 1179 2500 1302 2493 c 128,-1,64
 1425 2486 1425 2486 1600 2489 c 1,65,-1
 1575 2630 l 1,66,67
 1572 2640 1572 2640 1554 2657 c 128,-1,68
 1536 2674 1536 2674 1536 2683 c 0,69,70
 1536 2695 1536 2695 1569 2699.5 c 128,-1,71
 1602 2704 1602 2704 1615 2704 c 2,72,-1
 1740 2704 l 2,73,74
 1763 2704 1763 2704 1784.5 2672 c 128,-1,75
 1806 2640 1806 2640 1814 2604 c 1,76,-1
 1835 2490 l 1,77,78
 1972 2492 1972 2492 2021.5 2499.5 c 128,-1,79
 2071 2507 2071 2507 2129 2515 c 1,80,81
 2151 2512 2151 2512 2155.5 2494 c 128,-1,82
 2160 2476 2160 2476 2146 2461 c 1,83,84
 2126 2444 2126 2444 2062.5 2435.5 c 128,-1,85
 1999 2427 1999 2427 1842 2427 c 1,28,-1
3085 2715 m 1,86,87
 3146 2715 3146 2715 3213.5 2713 c 128,-1,88
 3281 2711 3281 2711 3335 2701 c 1,89,90
 3373 2701 3373 2701 3422.5 2596.5 c 128,-1,91
 3472 2492 3472 2492 3530 2367 c 0,92,93
 3549 2324 3549 2324 3569 2319 c 1,94,95
 3585 2313 3585 2313 3594 2297.5 c 128,-1,96
 3603 2282 3603 2282 3577 2270 c 1,97,98
 3514 2258 3514 2258 3450.5 2260 c 128,-1,99
 3387 2262 3387 2262 3329 2270 c 1,100,101
 3275 2295 3275 2295 3238.5 2361.5 c 128,-1,102
 3202 2428 3202 2428 3139 2605 c 1,103,104
 3133 2616 3133 2616 3116 2637.5 c 128,-1,105
 3099 2659 3099 2659 3078 2663 c 0,106,107
 3049 2668 3049 2668 3045.5 2691 c 128,-1,108
 3042 2714 3042 2714 3085 2715 c 1,86,87
2531 2715 m 1,109,110
 2592 2715 2592 2715 2659.5 2713 c 128,-1,111
 2727 2711 2727 2711 2781 2701 c 1,112,113
 2819 2701 2819 2701 2869 2596.5 c 128,-1,114
 2919 2492 2919 2492 2977 2367 c 1,115,116
 2994 2324 2994 2324 3016 2319 c 1,117,118
 3031 2313 3031 2313 3040 2297.5 c 128,-1,119
 3049 2282 3049 2282 3023 2270 c 1,120,121
 2961 2258 2961 2258 2897 2260 c 128,-1,122
 2833 2262 2833 2262 2776 2270 c 1,123,124
 2722 2295 2722 2295 2685 2361.5 c 128,-1,125
 2648 2428 2648 2428 2585 2605 c 1,126,127
 2579 2616 2579 2616 2562.5 2637.5 c 128,-1,128
 2546 2659 2546 2659 2524 2663 c 0,129,130
 2496 2668 2496 2668 2492 2691 c 128,-1,131
 2488 2714 2488 2714 2531 2715 c 1,109,110
EndSplineSet
EndChar

StartChar: semicolon
Encoding: 59 59 24
Width: 3104
Flags: W
LayerCount: 2
Fore
SplineSet
176 2020.5 m 128,-1,1
 185 2033 185 2033 197 2034 c 128,-1,2
 209 2035 209 2035 298.5 2031 c 128,-1,3
 388 2027 388 2027 665 2049 c 1,4,-1
 1991 2149 l 2,5,6
 2177 2164 2177 2164 2251.5 2166 c 128,-1,7
 2326 2168 2326 2168 2392 2161.5 c 128,-1,8
 2458 2155 2458 2155 2507 2143 c 128,-1,9
 2556 2131 2556 2131 2624 2111.5 c 128,-1,10
 2692 2092 2692 2092 2753.5 2069 c 128,-1,11
 2815 2046 2815 2046 2868.5 2017 c 128,-1,12
 2922 1988 2922 1988 2934.5 1959.5 c 128,-1,13
 2947 1931 2947 1931 2927 1923.5 c 128,-1,14
 2907 1916 2907 1916 2877 1917.5 c 128,-1,15
 2847 1919 2847 1919 2796 1923 c 128,-1,16
 2745 1927 2745 1927 2695 1930.5 c 128,-1,17
 2645 1934 2645 1934 2550 1933 c 128,-1,18
 2455 1932 2455 1932 2336 1924 c 2,19,-1
 699 1802 l 1,20,21
 599 1800 599 1800 560.5 1803 c 128,-1,22
 522 1806 522 1806 489.5 1812 c 128,-1,23
 457 1818 457 1818 427.5 1829 c 128,-1,24
 398 1840 398 1840 364 1856.5 c 128,-1,25
 330 1873 330 1873 294.5 1895.5 c 128,-1,26
 259 1918 259 1918 222.5 1947 c 128,-1,27
 186 1976 186 1976 176.5 1992 c 128,-1,0
 167 2008 167 2008 176 2020.5 c 128,-1,1
2068 2427 m 1,28,-1
 2086 2350 l 2,29,30
 2088 2341 2088 2341 2108.5 2309.5 c 128,-1,31
 2129 2278 2129 2278 2129 2270 c 256,32,33
 2129 2262 2129 2262 2095 2255.5 c 128,-1,34
 2061 2249 2061 2249 2049 2249 c 2,35,-1
 1925 2249 l 2,36,37
 1901 2249 1901 2249 1879 2284 c 128,-1,38
 1857 2319 1857 2319 1851 2350 c 1,39,-1
 1833 2428 l 1,40,41
 1594 2428 1594 2428 1394 2447 c 128,-1,42
 1194 2466 1194 2466 1110 2480 c 1,43,44
 954 2504 954 2504 852.5 2566 c 128,-1,45
 751 2628 751 2628 718 2706 c 0,46,47
 701 2745 701 2745 658.5 2821.5 c 128,-1,48
 616 2898 616 2898 569 2976 c 128,-1,49
 522 3054 522 3054 479.5 3115 c 128,-1,50
 437 3176 437 3176 421 3184 c 1,51,52
 338 3213 338 3213 383 3247 c 1,53,54
 487 3256 487 3256 581 3258 c 128,-1,55
 675 3260 675 3260 774 3252 c 1,56,57
 872 3246 872 3246 914.5 3140 c 128,-1,58
 957 3034 957 3034 999 2861 c 256,59,60
 1041 2688 1041 2688 1104.5 2626 c 128,-1,61
 1168 2564 1168 2564 1321 2524 c 1,62,63
 1406 2500 1406 2500 1528.5 2493 c 128,-1,64
 1651 2486 1651 2486 1827 2489 c 1,65,-1
 1801 2630 l 2,66,67
 1799 2640 1799 2640 1780.5 2657 c 128,-1,68
 1762 2674 1762 2674 1762 2683 c 0,69,70
 1762 2695 1762 2695 1795.5 2699.5 c 128,-1,71
 1829 2704 1829 2704 1842 2704 c 2,72,-1
 1967 2704 l 2,73,74
 1989 2704 1989 2704 2011 2672 c 128,-1,75
 2033 2640 2033 2640 2040 2604 c 2,76,-1
 2062 2490 l 1,77,78
 2199 2492 2199 2492 2248.5 2499.5 c 128,-1,79
 2298 2507 2298 2507 2355 2515 c 1,80,81
 2377 2512 2377 2512 2382 2494 c 128,-1,82
 2387 2476 2387 2476 2373 2461 c 1,83,84
 2353 2444 2353 2444 2289.5 2435.5 c 128,-1,85
 2226 2427 2226 2427 2068 2427 c 1,28,-1
EndSplineSet
EndChar

StartChar: less
Encoding: 60 60 25
Width: 266
Flags: W
LayerCount: 2
Fore
SplineSet
448 2120 m 0,0,1
 450 2120 450 2120 450 2117 c 0,2,3
 450 2115 450 2115 448 2115 c 0,4,5
 445 2115 445 2115 445 2117 c 0,6,7
 445 2120 445 2120 448 2120 c 0,0,1
-190 1404 m 1,8,9
 -158 1490 -158 1490 -131 1552.5 c 128,-1,10
 -104 1615 -104 1615 -79 1615 c 1,11,12
 -17 1624 -17 1624 60 1626 c 128,-1,13
 137 1628 137 1628 207 1628 c 1,14,15
 255 1627 255 1627 251 1601 c 128,-1,16
 247 1575 247 1575 214 1569 c 0,17,18
 189 1564 189 1564 170 1546.5 c 128,-1,19
 151 1529 151 1529 145 1519 c 1,20,21
 73 1341 73 1341 33 1208.5 c 128,-1,22
 -7 1076 -7 1076 -70 1052 c 1,23,24
 -135 1043 -135 1043 -207.5 1041 c 128,-1,25
 -280 1039 -280 1039 -352 1052 c 1,26,27
 -382 1064 -382 1064 -372 1079 c 128,-1,28
 -362 1094 -362 1094 -343 1100 c 1,29,30
 -322 1105 -322 1105 -298 1148 c 0,31,32
 -278 1184 -278 1184 -260 1226 c 128,-1,33
 -242 1268 -242 1268 -225 1312 c 1,34,-1
 -1942 1312 l 1,35,-1
 -2047 1306 l 1,36,37
 -2102 1304 -2102 1304 -2148 1309 c 0,38,39
 -2190 1313 -2190 1313 -2190 1358.5 c 128,-1,40
 -2190 1404 -2190 1404 -2145 1404 c 2,41,-1
 -190 1404 l 1,8,9
EndSplineSet
EndChar

StartChar: equal
Encoding: 61 61 26
Width: 0
Flags: W
LayerCount: 2
Fore
SplineSet
-437 1400 m 1,0,1
 -412 1400 -412 1400 -375 1393.5 c 128,-1,2
 -338 1387 -338 1387 -297 1375 c 256,3,4
 -256 1363 -256 1363 -242 1240 c 0,5,6
 -228 1115 -228 1115 -199.5 943 c 128,-1,7
 -171 771 -171 771 -117 657 c 1,8,9
 -89 595 -89 595 -28 551 c 1,10,11
 27 508 27 508 74.5 488 c 128,-1,12
 122 468 122 468 230 446 c 1,13,14
 251 440 251 440 249 425 c 128,-1,15
 247 410 247 410 224.5 408.5 c 128,-1,16
 202 407 202 407 172.5 411.5 c 128,-1,17
 143 416 143 416 120.5 421.5 c 128,-1,18
 98 427 98 427 64.5 440.5 c 128,-1,19
 31 454 31 454 -19.5 482 c 128,-1,20
 -70 510 -70 510 -110.5 546 c 128,-1,21
 -151 582 -151 582 -207 655 c 1,22,23
 -294 787 -294 787 -328.5 972 c 128,-1,24
 -363 1157 -363 1157 -386 1294 c 0,25,26
 -393 1337 -393 1337 -410 1347 c 128,-1,27
 -427 1357 -427 1357 -438 1362 c 0,28,29
 -452 1368 -452 1368 -450.5 1383.5 c 128,-1,30
 -449 1399 -449 1399 -437 1400 c 1,0,1
-703 1365 m 1,31,32
 -669 1360 -669 1360 -650.5 1354 c 128,-1,33
 -632 1348 -632 1348 -607.5 1342 c 128,-1,34
 -583 1336 -583 1336 -563 1190.5 c 128,-1,35
 -543 1045 -543 1045 -516 967 c 0,36,37
 -507 941 -507 941 -498 936 c 0,38,39
 -488 931 -488 931 -484 922 c 128,-1,40
 -480 913 -480 913 -495 908 c 1,41,42
 -531 905 -531 905 -546 912 c 128,-1,43
 -561 919 -561 919 -593 934 c 1,44,45
 -622 954 -622 954 -630.5 1025.5 c 128,-1,46
 -639 1097 -639 1097 -680 1298 c 0,47,48
 -686 1323 -686 1323 -710 1331 c 0,49,50
 -726 1337 -726 1337 -726.5 1352 c 128,-1,51
 -727 1367 -727 1367 -703 1365 c 1,31,32
EndSplineSet
EndChar

StartChar: greater
Encoding: 62 62 27
Width: 0
Flags: W
LayerCount: 2
Fore
SplineSet
-2646.5 3752.5 m 128,-1,1
 -2627 3738 -2627 3738 -2599 3727.5 c 128,-1,2
 -2571 3717 -2571 3717 -2529.5 3709.5 c 128,-1,3
 -2488 3702 -2488 3702 -2396 3697 c 1,4,5
 -2178 3696 -2178 3696 -1948 3696.5 c 128,-1,6
 -1718 3697 -1718 3697 -1658 3696 c 128,-1,7
 -1598 3695 -1598 3695 -1575 3692 c 128,-1,8
 -1552 3689 -1552 3689 -1540 3674.5 c 128,-1,9
 -1528 3660 -1528 3660 -1530 3642.5 c 128,-1,10
 -1532 3625 -1532 3625 -1545.5 3608.5 c 128,-1,11
 -1559 3592 -1559 3592 -1600 3548 c 2,12,-1
 -1802 3327 l 1,13,14
 -1819 3303 -1819 3303 -1818.5 3288 c 128,-1,15
 -1818 3273 -1818 3273 -1803 3267.5 c 128,-1,16
 -1788 3262 -1788 3262 -1762 3263 c 128,-1,17
 -1736 3264 -1736 3264 -1597.5 3272.5 c 128,-1,18
 -1459 3281 -1459 3281 -1166 3292 c 0,19,20
 -1108 3295 -1108 3295 -1067 3299.5 c 128,-1,21
 -1026 3304 -1026 3304 -1002 3310.5 c 128,-1,22
 -978 3317 -978 3317 -960.5 3326.5 c 128,-1,23
 -943 3336 -943 3336 -933 3344.5 c 128,-1,24
 -923 3353 -923 3353 -912.5 3361.5 c 128,-1,25
 -902 3370 -902 3370 -891 3374.5 c 128,-1,26
 -880 3379 -880 3379 -871 3370 c 0,27,28
 -856 3353 -856 3353 -866.5 3296 c 128,-1,29
 -877 3239 -877 3239 -890 3227 c 128,-1,30
 -903 3215 -903 3215 -932 3218 c 1,31,-1
 -1961 3217 l 2,32,33
 -2011 3217 -2011 3217 -2035 3219.5 c 128,-1,34
 -2059 3222 -2059 3222 -2066 3237.5 c 128,-1,35
 -2073 3253 -2073 3253 -2045 3279 c 1,36,-1
 -1798 3540 l 1,37,-1
 -1727 3612 l 1,38,39
 -1720 3639 -1720 3639 -1756 3640 c 256,40,41
 -1792 3641 -1792 3641 -1979 3640.5 c 128,-1,42
 -2166 3640 -2166 3640 -2489 3640 c 1,43,44
 -2533 3639 -2533 3639 -2575.5 3642 c 128,-1,45
 -2618 3645 -2618 3645 -2649 3651 c 128,-1,46
 -2680 3657 -2680 3657 -2705 3673.5 c 128,-1,47
 -2730 3690 -2730 3690 -2740.5 3703.5 c 128,-1,48
 -2751 3717 -2751 3717 -2757 3730 c 128,-1,49
 -2763 3743 -2763 3743 -2765.5 3757 c 128,-1,50
 -2768 3771 -2768 3771 -2769 3780 c 128,-1,51
 -2770 3789 -2770 3789 -2769 3797.5 c 128,-1,52
 -2768 3806 -2768 3806 -2764 3816.5 c 128,-1,53
 -2760 3827 -2760 3827 -2745 3827 c 128,-1,54
 -2730 3827 -2730 3827 -2715.5 3819 c 128,-1,55
 -2701 3811 -2701 3811 -2692 3800.5 c 128,-1,56
 -2683 3790 -2683 3790 -2674.5 3778.5 c 128,-1,0
 -2666 3767 -2666 3767 -2646.5 3752.5 c 128,-1,1
EndSplineSet
EndChar

StartChar: A
Encoding: 65 65 28
Width: 3862
Flags: W
LayerCount: 2
Fore
SplineSet
366 2024 m 128,-1,1
 375 2036 375 2036 387.5 2037 c 128,-1,2
 400 2038 400 2038 489.5 2032 c 128,-1,3
 579 2026 579 2026 855 2042 c 1,4,-1
 2813 2145 l 1,5,6
 2999 2157 2999 2157 3073.5 2157.5 c 128,-1,7
 3148 2158 3148 2158 3214 2150 c 128,-1,8
 3280 2142 3280 2142 3329 2128.5 c 128,-1,9
 3378 2115 3378 2115 3445 2094.5 c 128,-1,10
 3512 2074 3512 2074 3573.5 2049.5 c 128,-1,11
 3635 2025 3635 2025 3687.5 1994.5 c 128,-1,12
 3740 1964 3740 1964 3752 1935.5 c 128,-1,13
 3764 1907 3764 1907 3744 1900 c 128,-1,14
 3724 1893 3724 1893 3693.5 1895 c 128,-1,15
 3663 1897 3663 1897 3613 1902.5 c 128,-1,16
 3563 1908 3563 1908 3512.5 1912 c 128,-1,17
 3462 1916 3462 1916 3367 1917.5 c 128,-1,18
 3272 1919 3272 1919 3152 1914 c 1,19,-1
 884 1795 l 1,20,21
 785 1794 785 1794 746.5 1798 c 128,-1,22
 708 1802 708 1802 675.5 1809 c 128,-1,23
 643 1816 643 1816 613.5 1827.5 c 128,-1,24
 584 1839 584 1839 551 1856 c 128,-1,25
 518 1873 518 1873 482.5 1896.5 c 128,-1,26
 447 1920 447 1920 411.5 1950 c 128,-1,27
 376 1980 376 1980 366.5 1996 c 128,-1,0
 357 2012 357 2012 366 2024 c 128,-1,1
2503 2715 m 1,28,29
 2564 2715 2564 2715 2631.5 2713 c 128,-1,30
 2699 2711 2699 2711 2753 2701 c 1,31,32
 2791 2701 2791 2701 2841 2596.5 c 128,-1,33
 2891 2492 2891 2492 2949 2367 c 1,34,35
 2966 2324 2966 2324 2988 2319 c 1,36,37
 3003 2313 3003 2313 3012 2297.5 c 128,-1,38
 3021 2282 3021 2282 2995 2270 c 1,39,40
 2933 2258 2933 2258 2869 2260 c 128,-1,41
 2805 2262 2805 2262 2748 2270 c 1,42,43
 2694 2295 2694 2295 2657 2361.5 c 128,-1,44
 2620 2428 2620 2428 2557 2605 c 1,45,46
 2551 2616 2551 2616 2534.5 2637.5 c 128,-1,47
 2518 2659 2518 2659 2496 2663 c 0,48,49
 2468 2668 2468 2668 2464 2691 c 128,-1,50
 2460 2714 2460 2714 2503 2715 c 1,28,29
3057 2715 m 1,51,52
 3118 2715 3118 2715 3185.5 2713 c 128,-1,53
 3253 2711 3253 2711 3307 2701 c 1,54,55
 3345 2701 3345 2701 3394.5 2596.5 c 128,-1,56
 3444 2492 3444 2492 3502 2367 c 0,57,58
 3521 2324 3521 2324 3541 2319 c 1,59,60
 3557 2313 3557 2313 3566 2297.5 c 128,-1,61
 3575 2282 3575 2282 3549 2270 c 1,62,63
 3486 2258 3486 2258 3422.5 2260 c 128,-1,64
 3359 2262 3359 2262 3301 2270 c 1,65,66
 3247 2295 3247 2295 3210.5 2361.5 c 128,-1,67
 3174 2428 3174 2428 3111 2605 c 1,68,69
 3105 2616 3105 2616 3088 2637.5 c 128,-1,70
 3071 2659 3071 2659 3050 2663 c 0,71,72
 3021 2668 3021 2668 3017.5 2691 c 128,-1,73
 3014 2714 3014 2714 3057 2715 c 1,51,52
196 2697 m 1,74,75
 118 2838 118 2838 154 2939 c 128,-1,76
 190 3040 190 3040 282 3047 c 0,77,78
 342 3051 342 3051 373.5 3038 c 128,-1,79
 405 3025 405 3025 429 3011.5 c 128,-1,80
 453 2998 453 2998 474.5 2982.5 c 128,-1,81
 496 2967 496 2967 515 2950.5 c 128,-1,82
 534 2934 534 2934 541.5 2921 c 128,-1,83
 549 2908 549 2908 548 2897 c 128,-1,84
 547 2886 547 2886 539.5 2881 c 128,-1,85
 532 2876 532 2876 496 2862 c 128,-1,86
 460 2848 460 2848 403 2816 c 128,-1,87
 346 2784 346 2784 348 2709 c 1,88,89
 349 2631 349 2631 510.5 2562.5 c 128,-1,90
 672 2494 672 2494 991 2507 c 1,91,-1
 1905 2555 l 1,92,93
 1972 2555 1972 2555 2012.5 2546 c 128,-1,94
 2053 2537 2053 2537 2085.5 2523 c 128,-1,95
 2118 2509 2118 2509 2141 2495 c 128,-1,96
 2164 2481 2164 2481 2195 2453.5 c 128,-1,97
 2226 2426 2226 2426 2266 2383 c 128,-1,98
 2306 2340 2306 2340 2318.5 2319.5 c 128,-1,99
 2331 2299 2331 2299 2331 2280 c 128,-1,100
 2331 2261 2331 2261 2318.5 2254.5 c 128,-1,101
 2306 2248 2306 2248 2291 2248 c 128,-1,102
 2276 2248 2276 2248 2259.5 2254.5 c 128,-1,103
 2243 2261 2243 2261 2219.5 2268.5 c 128,-1,104
 2196 2276 2196 2276 2167.5 2284.5 c 128,-1,105
 2139 2293 2139 2293 2114.5 2297 c 128,-1,106
 2090 2301 2090 2301 2048 2303 c 1,107,-1
 1928 2315 l 1,108,109
 1639 2305 1639 2305 1431.5 2320.5 c 128,-1,110
 1224 2336 1224 2336 1040 2360.5 c 128,-1,111
 856 2385 856 2385 716.5 2414 c 128,-1,112
 577 2443 577 2443 525 2462 c 1,113,114
 436 2499 436 2499 368.5 2535 c 128,-1,115
 301 2571 301 2571 196 2697 c 1,74,75
EndSplineSet
EndChar

StartChar: B
Encoding: 66 66 29
Width: 3091
Flags: W
LayerCount: 2
Fore
SplineSet
168 2020.5 m 128,-1,1
 177 2033 177 2033 189 2034 c 128,-1,2
 201 2035 201 2035 290.5 2031 c 128,-1,3
 380 2027 380 2027 657 2049 c 1,4,-1
 1983 2149 l 2,5,6
 2169 2164 2169 2164 2243.5 2166 c 128,-1,7
 2318 2168 2318 2168 2384 2161.5 c 128,-1,8
 2450 2155 2450 2155 2499 2143 c 128,-1,9
 2548 2131 2548 2131 2616 2111.5 c 128,-1,10
 2684 2092 2684 2092 2745.5 2069 c 128,-1,11
 2807 2046 2807 2046 2860.5 2017 c 128,-1,12
 2914 1988 2914 1988 2926.5 1959.5 c 128,-1,13
 2939 1931 2939 1931 2919 1923.5 c 128,-1,14
 2899 1916 2899 1916 2869 1917.5 c 128,-1,15
 2839 1919 2839 1919 2788 1923 c 128,-1,16
 2737 1927 2737 1927 2687 1930.5 c 128,-1,17
 2637 1934 2637 1934 2542 1933 c 128,-1,18
 2447 1932 2447 1932 2328 1924 c 2,19,-1
 691 1802 l 1,20,21
 591 1800 591 1800 552.5 1803 c 128,-1,22
 514 1806 514 1806 481.5 1812 c 128,-1,23
 449 1818 449 1818 419.5 1829 c 128,-1,24
 390 1840 390 1840 356 1856.5 c 128,-1,25
 322 1873 322 1873 286.5 1895.5 c 128,-1,26
 251 1918 251 1918 214.5 1947 c 128,-1,27
 178 1976 178 1976 168.5 1992 c 128,-1,0
 159 2008 159 2008 168 2020.5 c 128,-1,1
1375 2768 m 1,28,29
 1436 2768 1436 2768 1503.5 2766 c 128,-1,30
 1571 2764 1571 2764 1625 2754 c 1,31,32
 1663 2754 1663 2754 1706 2623 c 128,-1,33
 1749 2492 1749 2492 1807 2367 c 0,34,35
 1826 2324 1826 2324 1846 2319 c 1,36,37
 1862 2313 1862 2313 1871 2297.5 c 128,-1,38
 1880 2282 1880 2282 1854 2270 c 1,39,40
 1792 2258 1792 2258 1728 2260 c 128,-1,41
 1664 2262 1664 2262 1607 2270 c 1,42,43
 1553 2295 1553 2295 1522.5 2388 c 128,-1,44
 1492 2481 1492 2481 1429 2658 c 1,45,46
 1423 2668 1423 2668 1406 2689.5 c 128,-1,47
 1389 2711 1389 2711 1368 2716 c 1,48,49
 1339 2721 1339 2721 1335.5 2743.5 c 128,-1,50
 1332 2766 1332 2766 1375 2768 c 1,28,29
1173 3724 m 1,51,52
 1206 3718 1206 3718 1202 3690 c 128,-1,53
 1198 3662 1198 3662 1160 3659 c 1,54,55
 1118 3644 1118 3644 1091.5 3550.5 c 128,-1,56
 1065 3457 1065 3457 1035 3353 c 0,57,58
 966 3109 966 3109 908.5 2957.5 c 128,-1,59
 851 2806 851 2806 799.5 2745 c 128,-1,60
 748 2684 748 2684 676 2653 c 0,61,62
 565 2605 565 2605 457.5 2582 c 128,-1,63
 350 2559 350 2559 271 2559 c 1,64,65
 310 2466 310 2466 402 2430.5 c 128,-1,66
 494 2395 494 2395 455 2353 c 1,67,68
 432 2330 432 2330 313 2412.5 c 128,-1,69
 194 2495 194 2495 150 2575 c 1,70,71
 150 2626 150 2626 191.5 2617.5 c 128,-1,72
 233 2609 233 2609 281 2606 c 256,73,74
 329 2603 329 2603 379 2611 c 128,-1,75
 429 2619 429 2619 513 2662 c 0,76,77
 554 2683 554 2683 590.5 2755.5 c 128,-1,78
 627 2828 627 2828 656.5 2916.5 c 128,-1,79
 686 3005 686 3005 706.5 3092 c 128,-1,80
 727 3179 727 3179 760.5 3342.5 c 128,-1,81
 794 3506 794 3506 818 3561.5 c 128,-1,82
 842 3617 842 3617 886 3651.5 c 128,-1,83
 930 3686 930 3686 970 3696 c 128,-1,84
 1010 3706 1010 3706 1059 3711 c 128,-1,85
 1108 3716 1108 3716 1173 3724 c 1,51,52
2208 4082 m 1,86,87
 2239 4077 2239 4077 2235 4053.5 c 128,-1,88
 2231 4030 2231 4030 2196 4027 c 1,89,90
 2157 4015 2157 4015 2132.5 3936 c 128,-1,91
 2108 3857 2108 3857 2081 3769 c 0,92,93
 2017 3563 2017 3563 1963.5 3435 c 128,-1,94
 1910 3307 1910 3307 1862.5 3256 c 128,-1,95
 1815 3205 1815 3205 1749 3179 c 0,96,97
 1646 3138 1646 3138 1546.5 3119 c 128,-1,98
 1447 3100 1447 3100 1374 3100 c 1,99,100
 1410 3021 1410 3021 1495 2991 c 128,-1,101
 1580 2961 1580 2961 1544 2926 c 1,102,103
 1523 2907 1523 2907 1413 2976.5 c 128,-1,104
 1303 3046 1303 3046 1262 3113 c 1,105,106
 1262 3156 1262 3156 1300.5 3149 c 128,-1,107
 1339 3142 1339 3142 1383 3139 c 1,108,109
 1428 3137 1428 3137 1474 3143.5 c 128,-1,110
 1520 3150 1520 3150 1598 3186 c 0,111,112
 1636 3204 1636 3204 1669.5 3265 c 128,-1,113
 1703 3326 1703 3326 1730.5 3401 c 128,-1,114
 1758 3476 1758 3476 1777 3549 c 128,-1,115
 1796 3622 1796 3622 1826.5 3760 c 128,-1,116
 1857 3898 1857 3898 1879.5 3945 c 128,-1,117
 1902 3992 1902 3992 1942.5 4021 c 128,-1,118
 1983 4050 1983 4050 2020 4058.5 c 128,-1,119
 2057 4067 2057 4067 2102.5 4071 c 128,-1,120
 2148 4075 2148 4075 2208 4082 c 1,86,87
EndSplineSet
EndChar

StartChar: C
Encoding: 67 67 30
Width: 3009
Flags: W
LayerCount: 2
Fore
SplineSet
176 2020.5 m 128,-1,1
 185 2033 185 2033 197 2034 c 128,-1,2
 209 2035 209 2035 298.5 2031 c 128,-1,3
 388 2027 388 2027 665 2049 c 1,4,-1
 1991 2149 l 2,5,6
 2177 2164 2177 2164 2251.5 2166 c 128,-1,7
 2326 2168 2326 2168 2392 2161.5 c 128,-1,8
 2458 2155 2458 2155 2507 2143 c 128,-1,9
 2556 2131 2556 2131 2624 2111.5 c 128,-1,10
 2692 2092 2692 2092 2753.5 2069 c 128,-1,11
 2815 2046 2815 2046 2868.5 2017 c 128,-1,12
 2922 1988 2922 1988 2934.5 1959.5 c 128,-1,13
 2947 1931 2947 1931 2927 1923.5 c 128,-1,14
 2907 1916 2907 1916 2877 1917.5 c 128,-1,15
 2847 1919 2847 1919 2796 1923 c 128,-1,16
 2745 1927 2745 1927 2695 1930.5 c 128,-1,17
 2645 1934 2645 1934 2550 1933 c 128,-1,18
 2455 1932 2455 1932 2336 1924 c 2,19,-1
 699 1802 l 1,20,21
 599 1800 599 1800 560.5 1803 c 128,-1,22
 522 1806 522 1806 489.5 1812 c 128,-1,23
 457 1818 457 1818 427.5 1829 c 128,-1,24
 398 1840 398 1840 364 1856.5 c 128,-1,25
 330 1873 330 1873 294.5 1895.5 c 128,-1,26
 259 1918 259 1918 222.5 1947 c 128,-1,27
 186 1976 186 1976 176.5 1992 c 128,-1,0
 167 2008 167 2008 176 2020.5 c 128,-1,1
1554 2694 m 1,28,29
 1624 2694 1624 2694 1701 2692.5 c 128,-1,30
 1778 2691 1778 2691 1840 2683 c 1,31,32
 1883 2683 1883 2683 1922 2578.5 c 128,-1,33
 1961 2474 1961 2474 2032 2369 c 0,34,35
 2056 2333 2056 2333 2076 2330 c 1,36,37
 2095 2325 2095 2325 2105 2312.5 c 128,-1,38
 2115 2300 2115 2300 2085 2290 c 1,39,40
 2014 2280 2014 2280 1941.5 2281.5 c 128,-1,41
 1869 2283 1869 2283 1803 2290 c 1,42,43
 1740 2311 1740 2311 1714 2385 c 128,-1,44
 1688 2459 1688 2459 1615 2605 c 1,45,46
 1594 2637 1594 2637 1546 2646 c 1,47,48
 1513 2650 1513 2650 1509 2671.5 c 128,-1,49
 1505 2693 1505 2693 1554 2694 c 1,28,29
1045 2697 m 1,50,51
 1106 2697 1106 2697 1173.5 2695.5 c 128,-1,52
 1241 2694 1241 2694 1295 2685 c 1,53,54
 1333 2685 1333 2685 1376 2577.5 c 128,-1,55
 1419 2470 1419 2470 1477 2367 c 0,56,57
 1497 2331 1497 2331 1516 2327 c 0,58,59
 1532 2323 1532 2323 1541 2310 c 128,-1,60
 1550 2297 1550 2297 1524 2287 c 1,61,62
 1461 2277 1461 2277 1397.5 2279 c 128,-1,63
 1334 2281 1334 2281 1277 2287 c 1,64,65
 1223 2308 1223 2308 1192.5 2384 c 128,-1,66
 1162 2460 1162 2460 1099 2607 c 1,67,68
 1093 2615 1093 2615 1076.5 2632.5 c 128,-1,69
 1060 2650 1060 2650 1038 2654 c 0,70,71
 1009 2658 1009 2658 1005.5 2676.5 c 128,-1,72
 1002 2695 1002 2695 1045 2697 c 1,50,51
1826 3176 m 1,73,74
 1826 3247 1826 3247 1828 3313 c 128,-1,75
 1830 3379 1830 3379 1830 3459 c 0,76,77
 1830 3484 1830 3484 1849 3487 c 1,78,79
 2000 3488 2000 3488 2152.5 3488.5 c 128,-1,80
 2305 3489 2305 3489 2456 3492 c 1,81,82
 2473 3471 2473 3471 2456 3422 c 1,83,84
 2425 3416 2425 3416 2254.5 3416.5 c 128,-1,85
 2084 3417 2084 3417 1959 3417 c 1,86,87
 1958 3318 1958 3318 1962 3217 c 128,-1,88
 1966 3116 1966 3116 1954 3116 c 1,89,90
 1937 3112 1937 3112 1921.5 3109 c 128,-1,91
 1906 3106 1906 3106 1828 3109 c 1,92,93
 1745 3107 1745 3107 1638 3104.5 c 128,-1,94
 1531 3102 1531 3102 1451 3102 c 1,95,96
 1450 3004 1450 3004 1453.5 2902 c 128,-1,97
 1457 2800 1457 2800 1446 2799 c 1,98,99
 1414 2799 1414 2799 1378.5 2795 c 128,-1,100
 1343 2791 1343 2791 1317 2799 c 0,101,102
 1314 2799 1314 2799 1314 2819 c 1,103,104
 1314 2819 1314 2819 1315.5 2820.5 c 128,-1,105
 1317 2822 1317 2822 1317 2823 c 0,106,107
 1317 2923 1317 2923 1320 2983 c 128,-1,108
 1323 3043 1323 3043 1323 3145 c 0,109,110
 1323 3170 1323 3170 1342 3173 c 1,111,112
 1462 3174 1462 3174 1583.5 3174.5 c 128,-1,113
 1705 3175 1705 3175 1826 3176 c 1,73,74
EndSplineSet
EndChar

StartChar: D
Encoding: 68 68 31
Width: 3103
Flags: W
LayerCount: 2
Fore
SplineSet
176 2020.5 m 128,-1,1
 185 2033 185 2033 197 2034 c 128,-1,2
 209 2035 209 2035 298.5 2031 c 128,-1,3
 388 2027 388 2027 665 2049 c 1,4,-1
 1991 2149 l 2,5,6
 2177 2164 2177 2164 2251.5 2166 c 128,-1,7
 2326 2168 2326 2168 2392 2161.5 c 128,-1,8
 2458 2155 2458 2155 2507 2143 c 128,-1,9
 2556 2131 2556 2131 2624 2111.5 c 128,-1,10
 2692 2092 2692 2092 2753.5 2069 c 128,-1,11
 2815 2046 2815 2046 2868.5 2017 c 128,-1,12
 2922 1988 2922 1988 2934.5 1959.5 c 128,-1,13
 2947 1931 2947 1931 2927 1923.5 c 128,-1,14
 2907 1916 2907 1916 2877 1917.5 c 128,-1,15
 2847 1919 2847 1919 2796 1923 c 128,-1,16
 2745 1927 2745 1927 2695 1930.5 c 128,-1,17
 2645 1934 2645 1934 2550 1933 c 128,-1,18
 2455 1932 2455 1932 2336 1924 c 2,19,-1
 699 1802 l 1,20,21
 599 1800 599 1800 560.5 1803 c 128,-1,22
 522 1806 522 1806 489.5 1812 c 128,-1,23
 457 1818 457 1818 427.5 1829 c 128,-1,24
 398 1840 398 1840 364 1856.5 c 128,-1,25
 330 1873 330 1873 294.5 1895.5 c 128,-1,26
 259 1918 259 1918 222.5 1947 c 128,-1,27
 186 1976 186 1976 176.5 1992 c 128,-1,0
 167 2008 167 2008 176 2020.5 c 128,-1,1
1219 2946 m 1,28,29
 1289 2946 1289 2946 1366 2944 c 128,-1,30
 1443 2942 1443 2942 1505 2932 c 1,31,32
 1548 2932 1548 2932 1600 2763 c 128,-1,33
 1652 2594 1652 2594 1724 2466 c 0,34,35
 1748 2423 1748 2423 1769 2418 c 1,36,37
 1788 2412 1788 2412 1797.5 2396.5 c 128,-1,38
 1807 2381 1807 2381 1777 2369 c 1,39,40
 1706 2357 1706 2357 1633.5 2359 c 128,-1,41
 1561 2361 1561 2361 1495 2369 c 1,42,43
 1433 2394 1433 2394 1393 2526.5 c 128,-1,44
 1353 2659 1353 2659 1281 2837 c 1,45,46
 1275 2847 1275 2847 1256 2864 c 128,-1,47
 1237 2881 1237 2881 1212 2887 c 1,48,49
 1179 2893 1179 2893 1174.5 2919 c 128,-1,50
 1170 2945 1170 2945 1219 2946 c 1,28,29
2927 3724 m 1,51,52
 2960 3718 2960 3718 2956 3690 c 128,-1,53
 2952 3662 2952 3662 2914 3659 c 1,54,55
 2872 3644 2872 3644 2845.5 3550.5 c 128,-1,56
 2819 3457 2819 3457 2789 3353 c 0,57,58
 2720 3109 2720 3109 2662.5 2957.5 c 128,-1,59
 2605 2806 2605 2806 2553.5 2745 c 128,-1,60
 2502 2684 2502 2684 2430 2653 c 0,61,62
 2319 2605 2319 2605 2211.5 2582 c 128,-1,63
 2104 2559 2104 2559 2025 2559 c 1,64,65
 2064 2466 2064 2466 2156 2430.5 c 128,-1,66
 2248 2395 2248 2395 2209 2353 c 1,67,68
 2186 2330 2186 2330 2067 2412.5 c 128,-1,69
 1948 2495 1948 2495 1904 2575 c 1,70,71
 1904 2626 1904 2626 1945.5 2617.5 c 128,-1,72
 1987 2609 1987 2609 2035 2606 c 256,73,74
 2083 2603 2083 2603 2133 2611 c 128,-1,75
 2183 2619 2183 2619 2267 2662 c 0,76,77
 2308 2683 2308 2683 2344.5 2755.5 c 128,-1,78
 2381 2828 2381 2828 2410.5 2916.5 c 128,-1,79
 2440 3005 2440 3005 2460.5 3092 c 128,-1,80
 2481 3179 2481 3179 2514.5 3342.5 c 128,-1,81
 2548 3506 2548 3506 2572 3561.5 c 128,-1,82
 2596 3617 2596 3617 2640 3651.5 c 128,-1,83
 2684 3686 2684 3686 2724 3696 c 128,-1,84
 2764 3706 2764 3706 2813 3711 c 128,-1,85
 2862 3716 2862 3716 2927 3724 c 1,51,52
EndSplineSet
EndChar

StartChar: E
Encoding: 69 69 32
Width: 0
Flags: W
LayerCount: 2
Fore
SplineSet
-1633 1319 m 1,0,1
 -1482 1320 -1482 1320 -1329.5 1320.5 c 128,-1,2
 -1177 1321 -1177 1321 -1027 1324 c 1,3,4
 -1016 1310 -1016 1310 -1018 1287 c 128,-1,5
 -1020 1264 -1020 1264 -1026 1249 c 1,6,7
 -1056 1242 -1056 1242 -1227 1242.5 c 128,-1,8
 -1398 1243 -1398 1243 -1524 1243 c 1,9,10
 -1524 1137 -1524 1137 -1519.5 1004 c 128,-1,11
 -1515 871 -1515 871 -1527 869 c 1,12,13
 -1557 869 -1557 869 -1593 864.5 c 128,-1,14
 -1629 860 -1629 860 -1655 869 c 1,15,16
 -1659 869 -1659 869 -1659 890 c 0,17,18
 -1659 891 -1659 891 -1657 892 c 128,-1,19
 -1655 893 -1655 893 -1655 895 c 0,20,21
 -1655 1003 -1655 1003 -1653.5 1091 c 128,-1,22
 -1652 1179 -1652 1179 -1652 1288 c 0,23,24
 -1652 1316 -1652 1316 -1633 1319 c 1,0,1
35 1940 m 1,25,26
 37 1940 37 1940 37 1938 c 256,27,28
 37 1936 37 1936 35 1936 c 1,29,30
 35 1936 35 1936 34.5 1936.5 c 128,-1,31
 34 1937 34 1937 34 1938 c 2,32,33
 34 1938 34 1938 34.5 1939 c 128,-1,34
 35 1940 35 1940 35 1940 c 1,25,26
EndSplineSet
EndChar

StartChar: F
Encoding: 70 70 33
Width: 3103
Flags: W
LayerCount: 2
Fore
SplineSet
176 2020.5 m 128,-1,1
 185 2033 185 2033 197 2034 c 128,-1,2
 209 2035 209 2035 298.5 2031 c 128,-1,3
 388 2027 388 2027 665 2049 c 1,4,-1
 1991 2149 l 2,5,6
 2177 2164 2177 2164 2251.5 2166 c 128,-1,7
 2326 2168 2326 2168 2392 2161.5 c 128,-1,8
 2458 2155 2458 2155 2507 2143 c 128,-1,9
 2556 2131 2556 2131 2624 2111.5 c 128,-1,10
 2692 2092 2692 2092 2753.5 2069 c 128,-1,11
 2815 2046 2815 2046 2868.5 2017 c 128,-1,12
 2922 1988 2922 1988 2934.5 1959.5 c 128,-1,13
 2947 1931 2947 1931 2927 1923.5 c 128,-1,14
 2907 1916 2907 1916 2877 1917.5 c 128,-1,15
 2847 1919 2847 1919 2796 1923 c 128,-1,16
 2745 1927 2745 1927 2695 1930.5 c 128,-1,17
 2645 1934 2645 1934 2550 1933 c 128,-1,18
 2455 1932 2455 1932 2336 1924 c 2,19,-1
 699 1802 l 1,20,21
 599 1800 599 1800 560.5 1803 c 128,-1,22
 522 1806 522 1806 489.5 1812 c 128,-1,23
 457 1818 457 1818 427.5 1829 c 128,-1,24
 398 1840 398 1840 364 1856.5 c 128,-1,25
 330 1873 330 1873 294.5 1895.5 c 128,-1,26
 259 1918 259 1918 222.5 1947 c 128,-1,27
 186 1976 186 1976 176.5 1992 c 128,-1,0
 167 2008 167 2008 176 2020.5 c 128,-1,1
1314 2708 m 1,28,29
 1377 2708 1377 2708 1445.5 2706.5 c 128,-1,30
 1514 2705 1514 2705 1569 2697 c 1,31,32
 1608 2697 1608 2697 1647.5 2564.5 c 128,-1,33
 1687 2432 1687 2432 1746 2331 c 0,34,35
 1765 2297 1765 2297 1784 2293 c 1,36,37
 1801 2288 1801 2288 1809 2276 c 128,-1,38
 1817 2264 1817 2264 1790 2255 c 1,39,40
 1725 2245 1725 2245 1660 2247 c 128,-1,41
 1595 2249 1595 2249 1537 2255 c 1,42,43
 1482 2275 1482 2275 1452 2378.5 c 128,-1,44
 1422 2482 1422 2482 1364 2622 c 1,45,46
 1345 2655 1345 2655 1305 2662 c 1,47,48
 1275 2666 1275 2666 1272.5 2686.5 c 128,-1,49
 1270 2707 1270 2707 1314 2708 c 1,28,29
2212 3942 m 1,50,51
 2243 3937 2243 3937 2239 3913.5 c 128,-1,52
 2235 3890 2235 3890 2200 3887 c 1,53,54
 2161 3875 2161 3875 2136.5 3796 c 128,-1,55
 2112 3717 2112 3717 2085 3629 c 0,56,57
 2021 3423 2021 3423 1967.5 3295 c 128,-1,58
 1914 3167 1914 3167 1866.5 3116 c 128,-1,59
 1819 3065 1819 3065 1753 3039 c 0,60,61
 1650 2998 1650 2998 1550.5 2979 c 128,-1,62
 1451 2960 1451 2960 1378 2960 c 1,63,64
 1414 2881 1414 2881 1499 2851 c 128,-1,65
 1584 2821 1584 2821 1548 2786 c 1,66,67
 1527 2767 1527 2767 1417 2836.5 c 128,-1,68
 1307 2906 1307 2906 1266 2973 c 1,69,70
 1266 3016 1266 3016 1304.5 3009 c 128,-1,71
 1343 3002 1343 3002 1387 2999 c 1,72,73
 1432 2997 1432 2997 1478 3003.5 c 128,-1,74
 1524 3010 1524 3010 1602 3046 c 0,75,76
 1640 3064 1640 3064 1673.5 3125 c 128,-1,77
 1707 3186 1707 3186 1734.5 3261 c 128,-1,78
 1762 3336 1762 3336 1781 3409 c 128,-1,79
 1800 3482 1800 3482 1830.5 3620 c 128,-1,80
 1861 3758 1861 3758 1883.5 3805 c 128,-1,81
 1906 3852 1906 3852 1946.5 3881 c 128,-1,82
 1987 3910 1987 3910 2024 3918.5 c 128,-1,83
 2061 3927 2061 3927 2106.5 3931 c 128,-1,84
 2152 3935 2152 3935 2212 3942 c 1,50,51
EndSplineSet
EndChar

StartChar: G
Encoding: 71 71 34
Width: 3103
Flags: W
LayerCount: 2
Fore
SplineSet
176 2020.5 m 128,-1,1
 185 2033 185 2033 197 2034 c 128,-1,2
 209 2035 209 2035 298.5 2031 c 128,-1,3
 388 2027 388 2027 665 2049 c 1,4,-1
 1991 2149 l 2,5,6
 2177 2164 2177 2164 2251.5 2166 c 128,-1,7
 2326 2168 2326 2168 2392 2161.5 c 128,-1,8
 2458 2155 2458 2155 2507 2143 c 128,-1,9
 2556 2131 2556 2131 2624 2111.5 c 128,-1,10
 2692 2092 2692 2092 2753.5 2069 c 128,-1,11
 2815 2046 2815 2046 2868.5 2017 c 128,-1,12
 2922 1988 2922 1988 2934.5 1959.5 c 128,-1,13
 2947 1931 2947 1931 2927 1923.5 c 128,-1,14
 2907 1916 2907 1916 2877 1917.5 c 128,-1,15
 2847 1919 2847 1919 2796 1923 c 128,-1,16
 2745 1927 2745 1927 2695 1930.5 c 128,-1,17
 2645 1934 2645 1934 2550 1933 c 128,-1,18
 2455 1932 2455 1932 2336 1924 c 2,19,-1
 699 1802 l 1,20,21
 599 1800 599 1800 560.5 1803 c 128,-1,22
 522 1806 522 1806 489.5 1812 c 128,-1,23
 457 1818 457 1818 427.5 1829 c 128,-1,24
 398 1840 398 1840 364 1856.5 c 128,-1,25
 330 1873 330 1873 294.5 1895.5 c 128,-1,26
 259 1918 259 1918 222.5 1947 c 128,-1,27
 186 1976 186 1976 176.5 1992 c 128,-1,0
 167 2008 167 2008 176 2020.5 c 128,-1,1
2927 3724 m 1,28,29
 2960 3718 2960 3718 2956 3690 c 128,-1,30
 2952 3662 2952 3662 2914 3659 c 1,31,32
 2872 3644 2872 3644 2845.5 3550.5 c 128,-1,33
 2819 3457 2819 3457 2789 3353 c 0,34,35
 2720 3109 2720 3109 2662.5 2957.5 c 128,-1,36
 2605 2806 2605 2806 2553.5 2745 c 128,-1,37
 2502 2684 2502 2684 2430 2653 c 0,38,39
 2319 2605 2319 2605 2211.5 2582 c 128,-1,40
 2104 2559 2104 2559 2025 2559 c 1,41,42
 2064 2466 2064 2466 2156 2430.5 c 128,-1,43
 2248 2395 2248 2395 2209 2353 c 1,44,45
 2186 2330 2186 2330 2067 2412.5 c 128,-1,46
 1948 2495 1948 2495 1904 2575 c 1,47,48
 1904 2626 1904 2626 1945.5 2617.5 c 128,-1,49
 1987 2609 1987 2609 2035 2606 c 256,50,51
 2083 2603 2083 2603 2133 2611 c 128,-1,52
 2183 2619 2183 2619 2267 2662 c 0,53,54
 2308 2683 2308 2683 2344.5 2755.5 c 128,-1,55
 2381 2828 2381 2828 2410.5 2916.5 c 128,-1,56
 2440 3005 2440 3005 2460.5 3092 c 128,-1,57
 2481 3179 2481 3179 2514.5 3342.5 c 128,-1,58
 2548 3506 2548 3506 2572 3561.5 c 128,-1,59
 2596 3617 2596 3617 2640 3651.5 c 128,-1,60
 2684 3686 2684 3686 2724 3696 c 128,-1,61
 2764 3706 2764 3706 2813 3711 c 128,-1,62
 2862 3716 2862 3716 2927 3724 c 1,28,29
1357 3724 m 1,63,64
 1390 3718 1390 3718 1386 3690 c 128,-1,65
 1382 3662 1382 3662 1344 3659 c 1,66,67
 1302 3644 1302 3644 1275.5 3550.5 c 128,-1,68
 1249 3457 1249 3457 1219 3353 c 0,69,70
 1150 3109 1150 3109 1092.5 2957.5 c 128,-1,71
 1035 2806 1035 2806 983.5 2745 c 128,-1,72
 932 2684 932 2684 860 2653 c 0,73,74
 749 2605 749 2605 641.5 2582 c 128,-1,75
 534 2559 534 2559 455 2559 c 1,76,77
 494 2466 494 2466 586 2430.5 c 128,-1,78
 678 2395 678 2395 639 2353 c 1,79,80
 616 2330 616 2330 497 2412.5 c 128,-1,81
 378 2495 378 2495 334 2575 c 1,82,83
 334 2626 334 2626 375.5 2617.5 c 128,-1,84
 417 2609 417 2609 465 2606 c 256,85,86
 513 2603 513 2603 563 2611 c 128,-1,87
 613 2619 613 2619 697 2662 c 0,88,89
 738 2683 738 2683 774.5 2755.5 c 128,-1,90
 811 2828 811 2828 840.5 2916.5 c 128,-1,91
 870 3005 870 3005 890.5 3092 c 128,-1,92
 911 3179 911 3179 944.5 3342.5 c 128,-1,93
 978 3506 978 3506 1002 3561.5 c 128,-1,94
 1026 3617 1026 3617 1070 3651.5 c 128,-1,95
 1114 3686 1114 3686 1154 3696 c 128,-1,96
 1194 3706 1194 3706 1243 3711 c 128,-1,97
 1292 3716 1292 3716 1357 3724 c 1,63,64
EndSplineSet
EndChar

StartChar: H
Encoding: 72 72 35
Width: 4394
Flags: W
LayerCount: 2
Fore
SplineSet
447 2018.5 m 128,-1,1
 456 2031 456 2031 468.5 2031.5 c 128,-1,2
 481 2032 481 2032 570.5 2026.5 c 128,-1,3
 660 2021 660 2021 936 2038 c 1,4,-1
 3263 2168 l 1,5,6
 3449 2181 3449 2181 3523.5 2181.5 c 128,-1,7
 3598 2182 3598 2182 3664 2173.5 c 128,-1,8
 3730 2165 3730 2165 3779 2152.5 c 128,-1,9
 3828 2140 3828 2140 3895 2119.5 c 128,-1,10
 3962 2099 3962 2099 4023.5 2074.5 c 128,-1,11
 4085 2050 4085 2050 4137.5 2020 c 128,-1,12
 4190 1990 4190 1990 4202.5 1961 c 128,-1,13
 4215 1932 4215 1932 4195 1925 c 128,-1,14
 4175 1918 4175 1918 4144.5 1920.5 c 128,-1,15
 4114 1923 4114 1923 4064 1928 c 128,-1,16
 4014 1933 4014 1933 3963.5 1937 c 128,-1,17
 3913 1941 3913 1941 3817.5 1942 c 128,-1,18
 3722 1943 3722 1943 3603 1937 c 2,19,-1
 966 1791 l 1,20,21
 866 1790 866 1790 828 1794 c 128,-1,22
 790 1798 790 1798 757.5 1804.5 c 128,-1,23
 725 1811 725 1811 695.5 1822.5 c 128,-1,24
 666 1834 666 1834 632.5 1851 c 128,-1,25
 599 1868 599 1868 563.5 1891.5 c 128,-1,26
 528 1915 528 1915 492.5 1944.5 c 128,-1,27
 457 1974 457 1974 447.5 1990 c 128,-1,0
 438 2006 438 2006 447 2018.5 c 128,-1,1
499 2288 m 1,28,29
 479 2303 479 2303 496.5 2316.5 c 128,-1,30
 514 2330 514 2330 540 2330 c 0,31,32
 569 2330 569 2330 620 2381.5 c 128,-1,33
 671 2433 671 2433 688 2509 c 1,34,35
 714 2637 714 2637 554 2718 c 0,36,37
 434 2778 434 2778 228.5 2810 c 128,-1,38
 23 2842 23 2842 0 2851 c 256,39,40
 -23 2860 -23 2860 -17 2876.5 c 128,-1,41
 -11 2893 -11 2893 7 2893 c 0,42,43
 26 2892 26 2892 235 2862.5 c 128,-1,44
 444 2833 444 2833 616 2767 c 0,45,46
 718 2727 718 2727 780 2686 c 128,-1,47
 842 2645 842 2645 894 2577 c 1,48,49
 945 2508 945 2508 936.5 2439.5 c 128,-1,50
 928 2371 928 2371 877 2334 c 0,51,52
 830 2299 830 2299 769.5 2287 c 128,-1,53
 709 2275 709 2275 654 2275 c 0,54,55
 598 2275 598 2275 576 2275 c 128,-1,56
 554 2275 554 2275 499 2288 c 1,28,29
3103 2715 m 1,57,58
 3165 2715 3165 2715 3232 2713 c 128,-1,59
 3299 2711 3299 2711 3353 2701 c 1,60,61
 3391 2701 3391 2701 3441 2596.5 c 128,-1,62
 3491 2492 3491 2492 3549 2367 c 0,63,64
 3568 2324 3568 2324 3588 2319 c 1,65,66
 3603 2313 3603 2313 3612.5 2297.5 c 128,-1,67
 3622 2282 3622 2282 3595 2270 c 1,68,69
 3533 2258 3533 2258 3469 2260 c 128,-1,70
 3405 2262 3405 2262 3348 2270 c 1,71,72
 3294 2295 3294 2295 3257 2361.5 c 128,-1,73
 3220 2428 3220 2428 3157 2605 c 1,74,75
 3152 2616 3152 2616 3135 2637.5 c 128,-1,76
 3118 2659 3118 2659 3097 2663 c 0,77,78
 3068 2668 3068 2668 3064.5 2691 c 128,-1,79
 3061 2714 3061 2714 3103 2715 c 1,57,58
3657 2715 m 1,80,81
 3718 2715 3718 2715 3785.5 2713 c 128,-1,82
 3853 2711 3853 2711 3907 2701 c 1,83,84
 3945 2701 3945 2701 3995 2596.5 c 128,-1,85
 4045 2492 4045 2492 4102 2367 c 0,86,87
 4121 2324 4121 2324 4141 2319 c 1,88,89
 4157 2313 4157 2313 4166 2297.5 c 128,-1,90
 4175 2282 4175 2282 4149 2270 c 1,91,92
 4086 2258 4086 2258 4022.5 2260 c 128,-1,93
 3959 2262 3959 2262 3902 2270 c 1,94,95
 3847 2295 3847 2295 3810.5 2361.5 c 128,-1,96
 3774 2428 3774 2428 3711 2605 c 1,97,98
 3705 2616 3705 2616 3688 2637.5 c 128,-1,99
 3671 2659 3671 2659 3650 2663 c 0,100,101
 3621 2668 3621 2668 3617.5 2691 c 128,-1,102
 3614 2714 3614 2714 3657 2715 c 1,80,81
1499 2294 m 1,103,104
 1429 2268 1429 2268 1264 2297 c 1,105,106
 1167 2321 1167 2321 1092.5 2361.5 c 128,-1,107
 1018 2402 1018 2402 978 2503 c 1,108,109
 951 2600 951 2600 960 2657.5 c 128,-1,110
 969 2715 969 2715 1024 2791 c 1,111,112
 1077 2855 1077 2855 1147.5 2888 c 128,-1,113
 1218 2921 1218 2921 1321 2942 c 0,114,115
 1423 2962 1423 2962 1487 2961.5 c 128,-1,116
 1551 2961 1551 2961 1625 2958 c 256,117,118
 1699 2955 1699 2955 1762 2946.5 c 128,-1,119
 1825 2938 1825 2938 1914 2910 c 1,120,121
 2063 2869 2063 2869 2207 2798 c 0,122,123
 2289 2758 2289 2758 2379.5 2711.5 c 128,-1,124
 2470 2665 2470 2665 2582 2602 c 1,125,126
 2634 2571 2634 2571 2694 2535.5 c 128,-1,127
 2754 2500 2754 2500 2825 2463 c 1,128,129
 2878 2430 2878 2430 2929.5 2396.5 c 128,-1,130
 2981 2363 2981 2363 2973 2329 c 128,-1,131
 2965 2295 2965 2295 2934 2297 c 128,-1,132
 2903 2299 2903 2299 2738 2295.5 c 128,-1,133
 2573 2292 2573 2292 2449 2294 c 1,134,135
 2400 2330 2400 2330 2450.5 2346 c 128,-1,136
 2501 2362 2501 2362 2525 2386 c 0,137,138
 2571 2434 2571 2434 2566 2461.5 c 128,-1,139
 2561 2489 2561 2489 2551.5 2504.5 c 128,-1,140
 2542 2520 2542 2520 2521.5 2538 c 128,-1,141
 2501 2556 2501 2556 2421.5 2610.5 c 128,-1,142
 2342 2665 2342 2665 2224 2726 c 1,143,144
 2119 2773 2119 2773 2058 2802 c 128,-1,145
 1997 2831 1997 2831 1861 2867 c 1,146,147
 1760 2887 1760 2887 1656 2891.5 c 128,-1,148
 1552 2896 1552 2896 1445 2861 c 1,149,150
 1370 2828 1370 2828 1339 2804.5 c 128,-1,151
 1308 2781 1308 2781 1271 2724 c 1,152,153
 1238 2669 1238 2669 1233 2631 c 128,-1,154
 1228 2593 1228 2593 1231 2543 c 0,155,156
 1234 2492 1234 2492 1244 2469 c 128,-1,157
 1254 2446 1254 2446 1270 2422.5 c 128,-1,158
 1286 2399 1286 2399 1310.5 2380 c 128,-1,159
 1335 2361 1335 2361 1386 2352.5 c 128,-1,160
 1437 2344 1437 2344 1487 2339 c 1,161,162
 1508 2335 1508 2335 1514 2321 c 128,-1,163
 1520 2307 1520 2307 1499 2294 c 1,103,104
EndSplineSet
EndChar

StartChar: I
Encoding: 73 73 36
Width: 0
Flags: W
LayerCount: 2
Fore
SplineSet
-1890.5 1518 m 128,-1,1
 -1941 1532 -1941 1532 -1911.5 1499 c 128,-1,2
 -1882 1466 -1882 1466 -1854 1446 c 128,-1,3
 -1826 1426 -1826 1426 -1240 1172 c 1,4,5
 -1208 1157 -1208 1157 -1191 1181 c 1,6,-1
 -976 1424 l 1,7,8
 -933 1478 -933 1478 -982 1510 c 1,9,-1
 -1068 1560 l 2,10,11
 -1126 1593 -1126 1593 -1156 1554 c 1,12,-1
 -1361 1310 l 1,13,14
 -1731 1465 -1731 1465 -1785.5 1484.5 c 128,-1,0
 -1840 1504 -1840 1504 -1890.5 1518 c 128,-1,1
EndSplineSet
EndChar

StartChar: J
Encoding: 74 74 37
Width: 3333
Flags: W
LayerCount: 2
Fore
SplineSet
166 2020.5 m 128,-1,1
 175 2033 175 2033 187 2034 c 128,-1,2
 199 2035 199 2035 288.5 2031 c 128,-1,3
 378 2027 378 2027 655 2049 c 1,4,-1
 1981 2149 l 2,5,6
 2167 2164 2167 2164 2241.5 2166 c 128,-1,7
 2316 2168 2316 2168 2382 2161.5 c 128,-1,8
 2448 2155 2448 2155 2497 2143 c 128,-1,9
 2546 2131 2546 2131 2614 2111.5 c 128,-1,10
 2682 2092 2682 2092 2743.5 2069 c 128,-1,11
 2805 2046 2805 2046 2858.5 2017 c 128,-1,12
 2912 1988 2912 1988 2924.5 1959.5 c 128,-1,13
 2937 1931 2937 1931 2917 1923.5 c 128,-1,14
 2897 1916 2897 1916 2867 1917.5 c 128,-1,15
 2837 1919 2837 1919 2786 1923 c 128,-1,16
 2735 1927 2735 1927 2685 1930.5 c 128,-1,17
 2635 1934 2635 1934 2540 1933 c 128,-1,18
 2445 1932 2445 1932 2326 1924 c 2,19,-1
 689 1802 l 1,20,21
 589 1800 589 1800 550.5 1803 c 128,-1,22
 512 1806 512 1806 479.5 1812 c 128,-1,23
 447 1818 447 1818 417.5 1829 c 128,-1,24
 388 1840 388 1840 354 1856.5 c 128,-1,25
 320 1873 320 1873 284.5 1895.5 c 128,-1,26
 249 1918 249 1918 212.5 1947 c 128,-1,27
 176 1976 176 1976 166.5 1992 c 128,-1,0
 157 2008 157 2008 166 2020.5 c 128,-1,1
840 2280 m 1,28,29
 817 2298 817 2298 837.5 2313.5 c 128,-1,30
 858 2329 858 2329 888 2329 c 0,31,32
 921 2329 921 2329 981 2389 c 128,-1,33
 1041 2449 1041 2449 1061 2537 c 1,34,35
 1091 2687 1091 2687 904 2782 c 0,36,37
 833 2817 833 2817 723.5 2844.5 c 128,-1,38
 614 2872 614 2872 508 2892.5 c 128,-1,39
 402 2913 402 2913 320.5 2925.5 c 128,-1,40
 239 2938 239 2938 226 2944 c 1,41,42
 198 2954 198 2954 204 2973.5 c 128,-1,43
 210 2993 210 2993 234 2993 c 1,44,45
 246 2992 246 2992 325.5 2983 c 128,-1,46
 405 2974 405 2974 516 2955 c 128,-1,47
 627 2936 627 2936 751 2907 c 128,-1,48
 875 2878 875 2878 976 2839 c 1,49,50
 1096 2791 1096 2791 1168.5 2744 c 128,-1,51
 1241 2697 1241 2697 1301 2617 c 256,52,53
 1361 2537 1361 2537 1351.5 2457 c 128,-1,54
 1342 2377 1342 2377 1282 2333 c 0,55,56
 1227 2292 1227 2292 1156 2278 c 128,-1,57
 1085 2264 1085 2264 1020 2264 c 256,58,59
 955 2264 955 2264 930 2264 c 128,-1,60
 905 2264 905 2264 840 2280 c 1,28,29
2357 2715 m 1,61,62
 2418 2715 2418 2715 2485.5 2713 c 128,-1,63
 2553 2711 2553 2711 2607 2701 c 1,64,65
 2645 2701 2645 2701 2695 2596.5 c 128,-1,66
 2745 2492 2745 2492 2803 2367 c 1,67,68
 2820 2324 2820 2324 2842 2319 c 1,69,70
 2857 2313 2857 2313 2866 2297.5 c 128,-1,71
 2875 2282 2875 2282 2849 2270 c 1,72,73
 2787 2258 2787 2258 2723 2260 c 128,-1,74
 2659 2262 2659 2262 2602 2270 c 1,75,76
 2548 2295 2548 2295 2511 2361.5 c 128,-1,77
 2474 2428 2474 2428 2411 2605 c 1,78,79
 2405 2616 2405 2616 2388.5 2637.5 c 128,-1,80
 2372 2659 2372 2659 2350 2663 c 0,81,82
 2322 2668 2322 2668 2318 2691 c 128,-1,83
 2314 2714 2314 2714 2357 2715 c 1,61,62
1804 2715 m 1,84,85
 1865 2715 1865 2715 1932.5 2713 c 128,-1,86
 2000 2711 2000 2711 2054 2701 c 1,87,88
 2092 2701 2092 2701 2141.5 2596.5 c 128,-1,89
 2191 2492 2191 2492 2249 2367 c 0,90,91
 2268 2324 2268 2324 2288 2319 c 1,92,93
 2304 2313 2304 2313 2313 2297.5 c 128,-1,94
 2322 2282 2322 2282 2296 2270 c 1,95,96
 2233 2258 2233 2258 2169.5 2260 c 128,-1,97
 2106 2262 2106 2262 2048 2270 c 1,98,99
 1994 2295 1994 2295 1957.5 2361.5 c 128,-1,100
 1921 2428 1921 2428 1858 2605 c 1,101,102
 1852 2616 1852 2616 1835 2637.5 c 128,-1,103
 1818 2659 1818 2659 1797 2663 c 0,104,105
 1768 2668 1768 2668 1764.5 2691 c 128,-1,106
 1761 2714 1761 2714 1804 2715 c 1,84,85
EndSplineSet
EndChar

StartChar: K
Encoding: 75 75 38
Width: 4127
Flags: W
LayerCount: 2
Fore
SplineSet
366.5 2024 m 128,-1,1
 376 2036 376 2036 389.5 2037 c 128,-1,2
 403 2038 403 2038 498.5 2032 c 128,-1,3
 594 2026 594 2026 889 2042 c 1,4,-1
 2980 2145 l 1,5,6
 3179 2157 3179 2157 3258.5 2157.5 c 128,-1,7
 3338 2158 3338 2158 3408.5 2150 c 128,-1,8
 3479 2142 3479 2142 3531.5 2128.5 c 128,-1,9
 3584 2115 3584 2115 3655.5 2094.5 c 128,-1,10
 3727 2074 3727 2074 3792.5 2049.5 c 128,-1,11
 3858 2025 3858 2025 3914.5 1994.5 c 128,-1,12
 3971 1964 3971 1964 3983.5 1935.5 c 128,-1,13
 3996 1907 3996 1907 3975 1900 c 128,-1,14
 3954 1893 3954 1893 3921.5 1895 c 128,-1,15
 3889 1897 3889 1897 3835.5 1902.5 c 128,-1,16
 3782 1908 3782 1908 3728 1912 c 128,-1,17
 3674 1916 3674 1916 3572 1917.5 c 128,-1,18
 3470 1919 3470 1919 3343 1914 c 1,19,-1
 920 1795 l 1,20,21
 814 1794 814 1794 773 1798 c 128,-1,22
 732 1802 732 1802 697 1809 c 128,-1,23
 662 1816 662 1816 631 1827.5 c 128,-1,24
 600 1839 600 1839 564 1856 c 128,-1,25
 528 1873 528 1873 490.5 1896.5 c 128,-1,26
 453 1920 453 1920 415 1950 c 128,-1,27
 377 1980 377 1980 367 1996 c 128,-1,0
 357 2012 357 2012 366.5 2024 c 128,-1,1
3255 2715 m 1,28,29
 3317 2715 3317 2715 3384 2713 c 128,-1,30
 3451 2711 3451 2711 3505 2701 c 1,31,32
 3543 2701 3543 2701 3593 2596.5 c 128,-1,33
 3643 2492 3643 2492 3701 2367 c 0,34,35
 3720 2324 3720 2324 3740 2319 c 1,36,37
 3755 2313 3755 2313 3764.5 2297.5 c 128,-1,38
 3774 2282 3774 2282 3747 2270 c 1,39,40
 3685 2258 3685 2258 3621 2260 c 128,-1,41
 3557 2262 3557 2262 3500 2270 c 1,42,43
 3446 2295 3446 2295 3409 2361.5 c 128,-1,44
 3372 2428 3372 2428 3309 2605 c 1,45,46
 3304 2616 3304 2616 3287 2637.5 c 128,-1,47
 3270 2659 3270 2659 3249 2663 c 0,48,49
 3220 2668 3220 2668 3216.5 2691 c 128,-1,50
 3213 2714 3213 2714 3255 2715 c 1,28,29
2702 2715 m 1,51,52
 2763 2715 2763 2715 2830.5 2713 c 128,-1,53
 2898 2711 2898 2711 2952 2701 c 1,54,55
 2990 2701 2990 2701 3040 2596.5 c 128,-1,56
 3090 2492 3090 2492 3147 2367 c 0,57,58
 3166 2324 3166 2324 3186 2319 c 1,59,60
 3202 2313 3202 2313 3211 2297.5 c 128,-1,61
 3220 2282 3220 2282 3194 2270 c 1,62,63
 3131 2258 3131 2258 3067.5 2260 c 128,-1,64
 3004 2262 3004 2262 2947 2270 c 1,65,66
 2892 2295 2892 2295 2855.5 2361.5 c 128,-1,67
 2819 2428 2819 2428 2756 2605 c 1,68,69
 2750 2616 2750 2616 2733 2637.5 c 128,-1,70
 2716 2659 2716 2659 2695 2663 c 0,71,72
 2666 2668 2666 2668 2662.5 2691 c 128,-1,73
 2659 2714 2659 2714 2702 2715 c 1,51,52
767 2342 m 1,74,75
 689 2313 689 2313 504 2345 c 1,76,77
 396 2372 396 2372 312.5 2417 c 128,-1,78
 229 2462 229 2462 184 2575 c 1,79,80
 154 2684 154 2684 164 2748.5 c 128,-1,81
 174 2813 174 2813 236 2898 c 1,82,83
 295 2969 295 2969 374 3006 c 128,-1,84
 453 3043 453 3043 568 3067 c 1,85,86
 682 3089 682 3089 754 3088.5 c 128,-1,87
 826 3088 826 3088 909 3085 c 1,88,89
 991 3081 991 3081 1061.5 3071.5 c 128,-1,90
 1132 3062 1132 3062 1232 3031 c 1,91,92
 1398 2985 1398 2985 1560 2906 c 0,93,94
 1651 2861 1651 2861 1752.5 2809 c 128,-1,95
 1854 2757 1854 2757 1979 2686 c 1,96,97
 2037 2651 2037 2651 2104.5 2611.5 c 128,-1,98
 2172 2572 2172 2572 2251 2531 c 1,99,100
 2311 2494 2311 2494 2368.5 2456.5 c 128,-1,101
 2426 2419 2426 2419 2417 2381 c 128,-1,102
 2408 2343 2408 2343 2373 2345 c 128,-1,103
 2338 2347 2338 2347 2153.5 2343 c 128,-1,104
 1969 2339 1969 2339 1831 2342 c 1,105,106
 1776 2382 1776 2382 1832.5 2400 c 128,-1,107
 1889 2418 1889 2418 1916 2445 c 0,108,109
 1967 2498 1967 2498 1961.5 2529 c 128,-1,110
 1956 2560 1956 2560 1945.5 2577.5 c 128,-1,111
 1935 2595 1935 2595 1912 2615 c 128,-1,112
 1889 2635 1889 2635 1800 2696 c 128,-1,113
 1711 2757 1711 2757 1579 2825 c 1,114,115
 1461 2877 1461 2877 1393 2909.5 c 128,-1,116
 1325 2942 1325 2942 1173 2983 c 1,117,118
 1060 3005 1060 3005 943.5 3010 c 128,-1,119
 827 3015 827 3015 707 2976 c 1,120,121
 623 2939 623 2939 588.5 2913 c 128,-1,122
 554 2887 554 2887 512 2823 c 1,123,124
 475 2761 475 2761 469.5 2718.5 c 128,-1,125
 464 2676 464 2676 468 2620 c 1,126,127
 471 2563 471 2563 482 2537.5 c 128,-1,128
 493 2512 493 2512 511 2485.5 c 128,-1,129
 529 2459 529 2459 556.5 2437.5 c 128,-1,130
 584 2416 584 2416 641 2407 c 128,-1,131
 698 2398 698 2398 754 2392 c 1,132,133
 778 2387 778 2387 784.5 2371.5 c 128,-1,134
 791 2356 791 2356 767 2342 c 1,74,75
EndSplineSet
EndChar

StartChar: L
Encoding: 76 76 39
Width: 3885
Flags: W
LayerCount: 2
Fore
SplineSet
366 2024 m 128,-1,1
 375 2036 375 2036 387.5 2037 c 128,-1,2
 400 2038 400 2038 489.5 2032 c 128,-1,3
 579 2026 579 2026 855 2042 c 1,4,-1
 2813 2145 l 1,5,6
 2999 2157 2999 2157 3073.5 2157.5 c 128,-1,7
 3148 2158 3148 2158 3214 2150 c 128,-1,8
 3280 2142 3280 2142 3329 2128.5 c 128,-1,9
 3378 2115 3378 2115 3445 2094.5 c 128,-1,10
 3512 2074 3512 2074 3573.5 2049.5 c 128,-1,11
 3635 2025 3635 2025 3687.5 1994.5 c 128,-1,12
 3740 1964 3740 1964 3752 1935.5 c 128,-1,13
 3764 1907 3764 1907 3744 1900 c 128,-1,14
 3724 1893 3724 1893 3693.5 1895 c 128,-1,15
 3663 1897 3663 1897 3613 1902.5 c 128,-1,16
 3563 1908 3563 1908 3512.5 1912 c 128,-1,17
 3462 1916 3462 1916 3367 1917.5 c 128,-1,18
 3272 1919 3272 1919 3152 1914 c 1,19,-1
 884 1795 l 1,20,21
 785 1794 785 1794 746.5 1798 c 128,-1,22
 708 1802 708 1802 675.5 1809 c 128,-1,23
 643 1816 643 1816 613.5 1827.5 c 128,-1,24
 584 1839 584 1839 551 1856 c 128,-1,25
 518 1873 518 1873 482.5 1896.5 c 128,-1,26
 447 1920 447 1920 411.5 1950 c 128,-1,27
 376 1980 376 1980 366.5 1996 c 128,-1,0
 357 2012 357 2012 366 2024 c 128,-1,1
2705 2715 m 1,28,29
 2766 2715 2766 2715 2833.5 2713 c 128,-1,30
 2901 2711 2901 2711 2955 2701 c 1,31,32
 2993 2701 2993 2701 3043 2596.5 c 128,-1,33
 3093 2492 3093 2492 3150 2367 c 0,34,35
 3169 2324 3169 2324 3189 2319 c 1,36,37
 3205 2313 3205 2313 3214 2297.5 c 128,-1,38
 3223 2282 3223 2282 3197 2270 c 1,39,40
 3134 2258 3134 2258 3070.5 2260 c 128,-1,41
 3007 2262 3007 2262 2950 2270 c 1,42,43
 2895 2295 2895 2295 2858.5 2361.5 c 128,-1,44
 2822 2428 2822 2428 2759 2605 c 1,45,46
 2753 2616 2753 2616 2736 2637.5 c 128,-1,47
 2719 2659 2719 2659 2698 2663 c 0,48,49
 2669 2668 2669 2668 2665.5 2691 c 128,-1,50
 2662 2714 2662 2714 2705 2715 c 1,28,29
3258 2715 m 1,51,52
 3320 2715 3320 2715 3387 2713 c 128,-1,53
 3454 2711 3454 2711 3508 2701 c 1,54,55
 3546 2701 3546 2701 3596 2596.5 c 128,-1,56
 3646 2492 3646 2492 3704 2367 c 0,57,58
 3723 2324 3723 2324 3743 2319 c 1,59,60
 3758 2313 3758 2313 3767.5 2297.5 c 128,-1,61
 3777 2282 3777 2282 3750 2270 c 1,62,63
 3688 2258 3688 2258 3624 2260 c 128,-1,64
 3560 2262 3560 2262 3503 2270 c 1,65,66
 3449 2295 3449 2295 3412 2361.5 c 128,-1,67
 3375 2428 3375 2428 3312 2605 c 1,68,69
 3307 2616 3307 2616 3290 2637.5 c 128,-1,70
 3273 2659 3273 2659 3252 2663 c 0,71,72
 3223 2668 3223 2668 3219.5 2691 c 128,-1,73
 3216 2714 3216 2714 3258 2715 c 1,51,52
767 2339 m 1,74,75
 689 2310 689 2310 504 2342 c 1,76,77
 396 2369 396 2369 312.5 2414 c 128,-1,78
 229 2459 229 2459 184 2572 c 1,79,80
 154 2681 154 2681 164 2745.5 c 128,-1,81
 174 2810 174 2810 236 2895 c 1,82,83
 295 2966 295 2966 374 3003 c 128,-1,84
 453 3040 453 3040 568 3064 c 1,85,86
 682 3086 682 3086 754 3085.5 c 128,-1,87
 826 3085 826 3085 909 3082 c 1,88,89
 991 3078 991 3078 1061.5 3068.5 c 128,-1,90
 1132 3059 1132 3059 1232 3028 c 1,91,92
 1398 2982 1398 2982 1560 2903 c 0,93,94
 1651 2858 1651 2858 1752.5 2806 c 128,-1,95
 1854 2754 1854 2754 1979 2683 c 1,96,97
 2037 2648 2037 2648 2104.5 2608.5 c 128,-1,98
 2172 2569 2172 2569 2251 2528 c 1,99,100
 2311 2491 2311 2491 2368.5 2453.5 c 128,-1,101
 2426 2416 2426 2416 2417 2378 c 128,-1,102
 2408 2340 2408 2340 2373 2342 c 128,-1,103
 2338 2344 2338 2344 2153.5 2340 c 128,-1,104
 1969 2336 1969 2336 1831 2339 c 1,105,106
 1776 2379 1776 2379 1832.5 2397 c 128,-1,107
 1889 2415 1889 2415 1916 2442 c 0,108,109
 1967 2495 1967 2495 1961.5 2526 c 128,-1,110
 1956 2557 1956 2557 1945 2574.5 c 128,-1,111
 1934 2592 1934 2592 1911.5 2612 c 128,-1,112
 1889 2632 1889 2632 1800 2693 c 128,-1,113
 1711 2754 1711 2754 1579 2822 c 1,114,115
 1461 2874 1461 2874 1393 2906.5 c 128,-1,116
 1325 2939 1325 2939 1173 2980 c 1,117,118
 1060 3002 1060 3002 943.5 3007 c 128,-1,119
 827 3012 827 3012 707 2973 c 1,120,121
 623 2936 623 2936 588.5 2910 c 128,-1,122
 554 2884 554 2884 512 2820 c 1,123,124
 475 2758 475 2758 469.5 2715.5 c 128,-1,125
 464 2673 464 2673 468 2617 c 1,126,127
 471 2560 471 2560 482 2534.5 c 128,-1,128
 493 2509 493 2509 511 2482.5 c 128,-1,129
 529 2456 529 2456 556.5 2434.5 c 128,-1,130
 584 2413 584 2413 641 2404 c 128,-1,131
 698 2395 698 2395 754 2389 c 1,132,133
 778 2384 778 2384 784.5 2368.5 c 128,-1,134
 791 2353 791 2353 767 2339 c 1,74,75
1189 2213 m 1,135,136
 1168 2230 1168 2230 1186.5 2244 c 128,-1,137
 1205 2258 1205 2258 1232 2258 c 0,138,139
 1262 2258 1262 2258 1316.5 2312 c 128,-1,140
 1371 2366 1371 2366 1389 2447 c 1,141,142
 1417 2583 1417 2583 1247 2669 c 1,143,144
 1182 2700 1182 2700 1083.5 2724.5 c 128,-1,145
 985 2749 985 2749 889 2768 c 128,-1,146
 793 2787 793 2787 719 2798 c 128,-1,147
 645 2809 645 2809 633 2815 c 1,148,149
 607 2825 607 2825 612.5 2842 c 128,-1,150
 618 2859 618 2859 640 2859 c 1,151,152
 651 2858 651 2858 723 2850 c 128,-1,153
 795 2842 795 2842 896 2825 c 128,-1,154
 997 2808 997 2808 1109 2782 c 128,-1,155
 1221 2756 1221 2756 1313 2720 c 0,156,157
 1421 2677 1421 2677 1486.5 2634 c 128,-1,158
 1552 2591 1552 2591 1606 2519 c 0,159,160
 1660 2446 1660 2446 1651.5 2373.5 c 128,-1,161
 1643 2301 1643 2301 1589 2261 c 0,162,163
 1539 2224 1539 2224 1474.5 2211.5 c 128,-1,164
 1410 2199 1410 2199 1352 2199 c 256,165,166
 1294 2199 1294 2199 1270.5 2199.5 c 128,-1,167
 1247 2200 1247 2200 1189 2213 c 1,135,136
EndSplineSet
EndChar

StartChar: M
Encoding: 77 77 40
Width: 0
Flags: W
LayerCount: 2
Fore
SplineSet
-1624 1553 m 1,0,1
 -1355 1568 -1355 1568 -990 1589.5 c 128,-1,2
 -625 1611 -625 1611 -357 1602 c 0,3,4
 -123 1595 -123 1595 92 1570 c 128,-1,5
 307 1545 307 1545 420 1516 c 0,6,7
 536 1486 536 1486 632 1415 c 128,-1,8
 728 1344 728 1344 742 1272 c 256,9,10
 756 1200 756 1200 744 1151 c 128,-1,11
 732 1102 732 1102 604 1037 c 1,12,13
 513 1015 513 1015 413.5 1007.5 c 128,-1,14
 314 1000 314 1000 240 1002 c 1,15,16
 210 1016 210 1016 235.5 1031.5 c 128,-1,17
 261 1047 261 1047 307 1072.5 c 128,-1,18
 353 1098 353 1098 401.5 1138 c 128,-1,19
 450 1178 450 1178 465 1240 c 0,20,21
 494 1353 494 1353 378 1412 c 128,-1,22
 262 1471 262 1471 101.5 1497 c 128,-1,23
 -59 1523 -59 1523 -216 1527 c 128,-1,24
 -373 1531 -373 1531 -428 1534 c 0,25,26
 -541 1540 -541 1540 -742 1531.5 c 128,-1,27
 -943 1523 -943 1523 -1139 1510.5 c 128,-1,28
 -1335 1498 -1335 1498 -1479.5 1487 c 128,-1,29
 -1624 1476 -1624 1476 -1624 1476 c 1,30,31
 -1653 1482 -1653 1482 -1652 1515.5 c 128,-1,32
 -1651 1549 -1651 1549 -1624 1553 c 1,0,1
EndSplineSet
EndChar

StartChar: N
Encoding: 78 78 41
Width: 3181
Flags: W
LayerCount: 2
Fore
SplineSet
176 2020.5 m 128,-1,1
 185 2033 185 2033 197 2034 c 128,-1,2
 209 2035 209 2035 298.5 2031 c 128,-1,3
 388 2027 388 2027 665 2049 c 1,4,-1
 1991 2149 l 2,5,6
 2177 2164 2177 2164 2251.5 2166 c 128,-1,7
 2326 2168 2326 2168 2392 2161.5 c 128,-1,8
 2458 2155 2458 2155 2507 2143 c 128,-1,9
 2556 2131 2556 2131 2624 2111.5 c 128,-1,10
 2692 2092 2692 2092 2753.5 2069 c 128,-1,11
 2815 2046 2815 2046 2868.5 2017 c 128,-1,12
 2922 1988 2922 1988 2934.5 1959.5 c 128,-1,13
 2947 1931 2947 1931 2927 1923.5 c 128,-1,14
 2907 1916 2907 1916 2877 1917.5 c 128,-1,15
 2847 1919 2847 1919 2796 1923 c 128,-1,16
 2745 1927 2745 1927 2695 1930.5 c 128,-1,17
 2645 1934 2645 1934 2550 1933 c 128,-1,18
 2455 1932 2455 1932 2336 1924 c 2,19,-1
 699 1802 l 1,20,21
 599 1800 599 1800 560.5 1803 c 128,-1,22
 522 1806 522 1806 489.5 1812 c 128,-1,23
 457 1818 457 1818 427.5 1829 c 128,-1,24
 398 1840 398 1840 364 1856.5 c 128,-1,25
 330 1873 330 1873 294.5 1895.5 c 128,-1,26
 259 1918 259 1918 222.5 1947 c 128,-1,27
 186 1976 186 1976 176.5 1992 c 128,-1,0
 167 2008 167 2008 176 2020.5 c 128,-1,1
3043 3724 m 1,28,29
 3076 3718 3076 3718 3072 3690 c 128,-1,30
 3068 3662 3068 3662 3030 3659 c 1,31,32
 2988 3644 2988 3644 2961.5 3550.5 c 128,-1,33
 2935 3457 2935 3457 2905 3353 c 0,34,35
 2836 3109 2836 3109 2778.5 2957.5 c 128,-1,36
 2721 2806 2721 2806 2669.5 2745 c 128,-1,37
 2618 2684 2618 2684 2546 2653 c 0,38,39
 2435 2605 2435 2605 2327.5 2582 c 128,-1,40
 2220 2559 2220 2559 2141 2559 c 1,41,42
 2180 2466 2180 2466 2272 2430.5 c 128,-1,43
 2364 2395 2364 2395 2325 2353 c 1,44,45
 2302 2330 2302 2330 2183 2412.5 c 128,-1,46
 2064 2495 2064 2495 2020 2575 c 1,47,48
 2020 2626 2020 2626 2061.5 2617.5 c 128,-1,49
 2103 2609 2103 2609 2151 2606 c 256,50,51
 2199 2603 2199 2603 2249 2611 c 128,-1,52
 2299 2619 2299 2619 2383 2662 c 0,53,54
 2424 2683 2424 2683 2460.5 2755.5 c 128,-1,55
 2497 2828 2497 2828 2526.5 2916.5 c 128,-1,56
 2556 3005 2556 3005 2576.5 3092 c 128,-1,57
 2597 3179 2597 3179 2630.5 3342.5 c 128,-1,58
 2664 3506 2664 3506 2688 3561.5 c 128,-1,59
 2712 3617 2712 3617 2756 3651.5 c 128,-1,60
 2800 3686 2800 3686 2840 3696 c 128,-1,61
 2880 3706 2880 3706 2929 3711 c 128,-1,62
 2978 3716 2978 3716 3043 3724 c 1,28,29
2093 3724 m 1,63,64
 2126 3718 2126 3718 2122 3690 c 128,-1,65
 2118 3662 2118 3662 2080 3659 c 1,66,67
 2038 3644 2038 3644 2011.5 3550.5 c 128,-1,68
 1985 3457 1985 3457 1955 3353 c 0,69,70
 1886 3109 1886 3109 1828.5 2957.5 c 128,-1,71
 1771 2806 1771 2806 1719.5 2745 c 128,-1,72
 1668 2684 1668 2684 1596 2653 c 0,73,74
 1485 2605 1485 2605 1377.5 2582 c 128,-1,75
 1270 2559 1270 2559 1191 2559 c 1,76,77
 1230 2466 1230 2466 1322 2430.5 c 128,-1,78
 1414 2395 1414 2395 1375 2353 c 1,79,80
 1352 2330 1352 2330 1233 2412.5 c 128,-1,81
 1114 2495 1114 2495 1070 2575 c 1,82,83
 1070 2626 1070 2626 1111.5 2617.5 c 128,-1,84
 1153 2609 1153 2609 1201 2606 c 256,85,86
 1249 2603 1249 2603 1299 2611 c 128,-1,87
 1349 2619 1349 2619 1433 2662 c 0,88,89
 1474 2683 1474 2683 1510.5 2755.5 c 128,-1,90
 1547 2828 1547 2828 1576.5 2916.5 c 128,-1,91
 1606 3005 1606 3005 1626.5 3092 c 128,-1,92
 1647 3179 1647 3179 1680.5 3342.5 c 128,-1,93
 1714 3506 1714 3506 1738 3561.5 c 128,-1,94
 1762 3617 1762 3617 1806 3651.5 c 128,-1,95
 1850 3686 1850 3686 1890 3696 c 128,-1,96
 1930 3706 1930 3706 1979 3711 c 128,-1,97
 2028 3716 2028 3716 2093 3724 c 1,63,64
1143 3724 m 1,98,99
 1176 3718 1176 3718 1172 3690 c 128,-1,100
 1168 3662 1168 3662 1130 3659 c 1,101,102
 1088 3644 1088 3644 1061.5 3550.5 c 128,-1,103
 1035 3457 1035 3457 1005 3353 c 0,104,105
 936 3109 936 3109 878.5 2957.5 c 128,-1,106
 821 2806 821 2806 769.5 2745 c 128,-1,107
 718 2684 718 2684 646 2653 c 0,108,109
 535 2605 535 2605 427.5 2582 c 128,-1,110
 320 2559 320 2559 241 2559 c 1,111,112
 280 2466 280 2466 372 2430.5 c 128,-1,113
 464 2395 464 2395 425 2353 c 1,114,115
 402 2330 402 2330 283 2412.5 c 128,-1,116
 164 2495 164 2495 120 2575 c 1,117,118
 120 2626 120 2626 161.5 2617.5 c 128,-1,119
 203 2609 203 2609 251 2606 c 256,120,121
 299 2603 299 2603 349 2611 c 128,-1,122
 399 2619 399 2619 483 2662 c 0,123,124
 524 2683 524 2683 560.5 2755.5 c 128,-1,125
 597 2828 597 2828 626.5 2916.5 c 128,-1,126
 656 3005 656 3005 676.5 3092 c 128,-1,127
 697 3179 697 3179 730.5 3342.5 c 128,-1,128
 764 3506 764 3506 788 3561.5 c 128,-1,129
 812 3617 812 3617 856 3651.5 c 128,-1,130
 900 3686 900 3686 940 3696 c 128,-1,131
 980 3706 980 3706 1029 3711 c 128,-1,132
 1078 3716 1078 3716 1143 3724 c 1,98,99
EndSplineSet
EndChar

StartChar: O
Encoding: 79 79 42
Width: 3334
Flags: W
LayerCount: 2
Fore
SplineSet
166 2020.5 m 128,-1,1
 175 2033 175 2033 187 2034 c 128,-1,2
 199 2035 199 2035 288.5 2031 c 128,-1,3
 378 2027 378 2027 655 2049 c 1,4,-1
 1981 2149 l 2,5,6
 2167 2164 2167 2164 2241.5 2166 c 128,-1,7
 2316 2168 2316 2168 2382 2161.5 c 128,-1,8
 2448 2155 2448 2155 2497 2143 c 128,-1,9
 2546 2131 2546 2131 2614 2111.5 c 128,-1,10
 2682 2092 2682 2092 2743.5 2069 c 128,-1,11
 2805 2046 2805 2046 2858.5 2017 c 128,-1,12
 2912 1988 2912 1988 2924.5 1959.5 c 128,-1,13
 2937 1931 2937 1931 2917 1923.5 c 128,-1,14
 2897 1916 2897 1916 2867 1917.5 c 128,-1,15
 2837 1919 2837 1919 2786 1923 c 128,-1,16
 2735 1927 2735 1927 2685 1930.5 c 128,-1,17
 2635 1934 2635 1934 2540 1933 c 128,-1,18
 2445 1932 2445 1932 2326 1924 c 2,19,-1
 689 1802 l 1,20,21
 589 1800 589 1800 550.5 1803 c 128,-1,22
 512 1806 512 1806 479.5 1812 c 128,-1,23
 447 1818 447 1818 417.5 1829 c 128,-1,24
 388 1840 388 1840 354 1856.5 c 128,-1,25
 320 1873 320 1873 284.5 1895.5 c 128,-1,26
 249 1918 249 1918 212.5 1947 c 128,-1,27
 176 1976 176 1976 166.5 1992 c 128,-1,0
 157 2008 157 2008 166 2020.5 c 128,-1,1
2357 2715 m 1,28,29
 2418 2715 2418 2715 2485.5 2713 c 128,-1,30
 2553 2711 2553 2711 2607 2701 c 1,31,32
 2645 2701 2645 2701 2695 2596.5 c 128,-1,33
 2745 2492 2745 2492 2803 2367 c 1,34,35
 2820 2324 2820 2324 2842 2319 c 1,36,37
 2857 2313 2857 2313 2866 2297.5 c 128,-1,38
 2875 2282 2875 2282 2849 2270 c 1,39,40
 2787 2258 2787 2258 2723 2260 c 128,-1,41
 2659 2262 2659 2262 2602 2270 c 1,42,43
 2548 2295 2548 2295 2511 2361.5 c 128,-1,44
 2474 2428 2474 2428 2411 2605 c 1,45,46
 2405 2616 2405 2616 2388.5 2637.5 c 128,-1,47
 2372 2659 2372 2659 2350 2663 c 0,48,49
 2322 2668 2322 2668 2318 2691 c 128,-1,50
 2314 2714 2314 2714 2357 2715 c 1,28,29
1804 2715 m 1,51,52
 1865 2715 1865 2715 1932.5 2713 c 128,-1,53
 2000 2711 2000 2711 2054 2701 c 1,54,55
 2092 2701 2092 2701 2141.5 2596.5 c 128,-1,56
 2191 2492 2191 2492 2249 2367 c 0,57,58
 2268 2324 2268 2324 2288 2319 c 1,59,60
 2304 2313 2304 2313 2313 2297.5 c 128,-1,61
 2322 2282 2322 2282 2296 2270 c 1,62,63
 2233 2258 2233 2258 2169.5 2260 c 128,-1,64
 2106 2262 2106 2262 2048 2270 c 1,65,66
 1994 2295 1994 2295 1957.5 2361.5 c 128,-1,67
 1921 2428 1921 2428 1858 2605 c 1,68,69
 1852 2616 1852 2616 1835 2637.5 c 128,-1,70
 1818 2659 1818 2659 1797 2663 c 0,71,72
 1768 2668 1768 2668 1764.5 2691 c 128,-1,73
 1761 2714 1761 2714 1804 2715 c 1,51,52
1152 2815 m 1,74,75
 1200 2813 1200 2813 1196.5 2789.5 c 128,-1,76
 1193 2766 1193 2766 1160 2761 c 0,77,78
 1134 2757 1134 2757 1115 2741 c 128,-1,79
 1096 2725 1096 2725 1091 2716 c 0,80,81
 1017 2557 1017 2557 977.5 2438 c 128,-1,82
 938 2319 938 2319 876 2297 c 1,83,84
 810 2290 810 2290 737 2287.5 c 128,-1,85
 664 2285 664 2285 594 2297 c 1,86,87
 564 2308 564 2308 573.5 2321.5 c 128,-1,88
 583 2335 583 2335 603 2340 c 0,89,90
 624 2346 624 2346 647 2384 c 0,91,92
 718 2498 718 2498 770 2650 c 128,-1,93
 822 2802 822 2802 867 2802 c 1,94,95
 928 2811 928 2811 1004.5 2813 c 128,-1,96
 1081 2815 1081 2815 1152 2815 c 1,74,75
712 3298 m 1,97,98
 860 3298 860 3298 1008 3300.5 c 128,-1,99
 1156 3303 1156 3303 1305 3305 c 1,100,101
 1320 3287 1320 3287 1305 3247 c 1,102,103
 1275 3241 1275 3241 1108.5 3241 c 128,-1,104
 942 3241 942 3241 819 3241 c 1,105,106
 818 3146 818 3146 819 3075 c 128,-1,107
 820 3004 820 3004 820 2910 c 1,108,109
 788 2910 788 2910 753 2906 c 128,-1,110
 718 2902 718 2902 693 2910 c 1,111,112
 693 3012 693 3012 693 3089 c 128,-1,113
 693 3166 693 3166 693 3270 c 0,114,115
 693 3294 693 3294 712 3298 c 1,97,98
EndSplineSet
EndChar

StartChar: P
Encoding: 80 80 43
Width: 3309
Flags: W
LayerCount: 2
Fore
SplineSet
166 2020.5 m 128,-1,1
 175 2033 175 2033 187 2034 c 128,-1,2
 199 2035 199 2035 288.5 2031 c 128,-1,3
 378 2027 378 2027 655 2049 c 1,4,-1
 1981 2149 l 2,5,6
 2167 2164 2167 2164 2241.5 2166 c 128,-1,7
 2316 2168 2316 2168 2382 2161.5 c 128,-1,8
 2448 2155 2448 2155 2497 2143 c 128,-1,9
 2546 2131 2546 2131 2614 2111.5 c 128,-1,10
 2682 2092 2682 2092 2743.5 2069 c 128,-1,11
 2805 2046 2805 2046 2858.5 2017 c 128,-1,12
 2912 1988 2912 1988 2924.5 1959.5 c 128,-1,13
 2937 1931 2937 1931 2917 1923.5 c 128,-1,14
 2897 1916 2897 1916 2867 1917.5 c 128,-1,15
 2837 1919 2837 1919 2786 1923 c 128,-1,16
 2735 1927 2735 1927 2685 1930.5 c 128,-1,17
 2635 1934 2635 1934 2540 1933 c 128,-1,18
 2445 1932 2445 1932 2326 1924 c 2,19,-1
 689 1802 l 1,20,21
 589 1800 589 1800 550.5 1803 c 128,-1,22
 512 1806 512 1806 479.5 1812 c 128,-1,23
 447 1818 447 1818 417.5 1829 c 128,-1,24
 388 1840 388 1840 354 1856.5 c 128,-1,25
 320 1873 320 1873 284.5 1895.5 c 128,-1,26
 249 1918 249 1918 212.5 1947 c 128,-1,27
 176 1976 176 1976 166.5 1992 c 128,-1,0
 157 2008 157 2008 166 2020.5 c 128,-1,1
2357 2715 m 1,28,29
 2418 2715 2418 2715 2485.5 2713 c 128,-1,30
 2553 2711 2553 2711 2607 2701 c 1,31,32
 2645 2701 2645 2701 2695 2596.5 c 128,-1,33
 2745 2492 2745 2492 2803 2367 c 1,34,35
 2820 2324 2820 2324 2842 2319 c 1,36,37
 2857 2313 2857 2313 2866 2297.5 c 128,-1,38
 2875 2282 2875 2282 2849 2270 c 1,39,40
 2787 2258 2787 2258 2723 2260 c 128,-1,41
 2659 2262 2659 2262 2602 2270 c 1,42,43
 2548 2295 2548 2295 2511 2361.5 c 128,-1,44
 2474 2428 2474 2428 2411 2605 c 1,45,46
 2405 2616 2405 2616 2388.5 2637.5 c 128,-1,47
 2372 2659 2372 2659 2350 2663 c 0,48,49
 2322 2668 2322 2668 2318 2691 c 128,-1,50
 2314 2714 2314 2714 2357 2715 c 1,28,29
1804 2715 m 1,51,52
 1865 2715 1865 2715 1932.5 2713 c 128,-1,53
 2000 2711 2000 2711 2054 2701 c 1,54,55
 2092 2701 2092 2701 2141.5 2596.5 c 128,-1,56
 2191 2492 2191 2492 2249 2367 c 0,57,58
 2268 2324 2268 2324 2288 2319 c 1,59,60
 2304 2313 2304 2313 2313 2297.5 c 128,-1,61
 2322 2282 2322 2282 2296 2270 c 1,62,63
 2233 2258 2233 2258 2169.5 2260 c 128,-1,64
 2106 2262 2106 2262 2048 2270 c 1,65,66
 1994 2295 1994 2295 1957.5 2361.5 c 128,-1,67
 1921 2428 1921 2428 1858 2605 c 1,68,69
 1852 2616 1852 2616 1835 2637.5 c 128,-1,70
 1818 2659 1818 2659 1797 2663 c 0,71,72
 1768 2668 1768 2668 1764.5 2691 c 128,-1,73
 1761 2714 1761 2714 1804 2715 c 1,51,52
1152 2815 m 1,74,75
 1200 2813 1200 2813 1196.5 2789.5 c 128,-1,76
 1193 2766 1193 2766 1160 2761 c 0,77,78
 1134 2757 1134 2757 1115 2741 c 128,-1,79
 1096 2725 1096 2725 1091 2716 c 0,80,81
 1017 2557 1017 2557 977.5 2438 c 128,-1,82
 938 2319 938 2319 876 2297 c 1,83,84
 810 2290 810 2290 737 2287.5 c 128,-1,85
 664 2285 664 2285 594 2297 c 1,86,87
 564 2308 564 2308 573.5 2321.5 c 128,-1,88
 583 2335 583 2335 603 2340 c 0,89,90
 624 2346 624 2346 647 2384 c 0,91,92
 718 2498 718 2498 770 2650 c 128,-1,93
 822 2802 822 2802 867 2802 c 1,94,95
 928 2811 928 2811 1004.5 2813 c 128,-1,96
 1081 2815 1081 2815 1152 2815 c 1,74,75
1073 3287 m 1,97,98
 1073 3358 1073 3358 1075 3424 c 128,-1,99
 1077 3490 1077 3490 1077 3569 c 0,100,101
 1077 3595 1077 3595 1096 3598 c 1,102,103
 1246 3599 1246 3599 1399 3599.5 c 128,-1,104
 1552 3600 1552 3600 1703 3603 c 1,105,106
 1713 3590 1713 3590 1710.5 3569 c 128,-1,107
 1708 3548 1708 3548 1704 3534 c 1,108,109
 1672 3527 1672 3527 1501.5 3527 c 128,-1,110
 1331 3527 1331 3527 1206 3527 c 1,111,112
 1205 3429 1205 3429 1208.5 3328 c 128,-1,113
 1212 3227 1212 3227 1201 3226 c 0,114,115
 1183 3223 1183 3223 1168 3219.5 c 128,-1,116
 1153 3216 1153 3216 1075 3219 c 1,117,118
 992 3218 992 3218 885 3215.5 c 128,-1,119
 778 3213 778 3213 698 3213 c 1,120,121
 697 3115 697 3115 700.5 3013 c 128,-1,122
 704 2911 704 2911 693 2910 c 1,123,124
 661 2910 661 2910 625.5 2906 c 128,-1,125
 590 2902 590 2902 564 2910 c 0,126,127
 561 2910 561 2910 561 2930 c 1,128,129
 561 2930 561 2930 562.5 2931 c 128,-1,130
 564 2932 564 2932 564 2934 c 0,131,132
 564 3033 564 3033 566.5 3093.5 c 128,-1,133
 569 3154 569 3154 569 3256 c 0,134,135
 569 3281 569 3281 589 3284 c 1,136,137
 709 3284 709 3284 830 3285 c 128,-1,138
 951 3286 951 3286 1073 3287 c 1,97,98
345 3195 m 2,139,-1
 432 3195 l 2,140,141
 438 3195 438 3195 454.5 3194.5 c 128,-1,142
 471 3194 471 3194 476 3190 c 0,143,144
 482 3184 482 3184 474 3183.5 c 128,-1,145
 466 3183 466 3183 461 3150 c 2,146,-1
 452 3081 l 2,147,148
 446 3036 446 3036 410 3036 c 2,149,-1
 324 3036 l 2,150,151
 316 3036 316 3036 296.5 3037 c 128,-1,152
 277 3038 277 3038 277 3046 c 0,153,154
 276 3055 276 3055 283 3057.5 c 128,-1,155
 290 3060 290 3060 293 3081 c 2,156,-1
 302 3150 l 1,157,158
 309 3195 309 3195 345 3195 c 2,139,-1
EndSplineSet
EndChar

StartChar: Q
Encoding: 81 81 44
Width: 0
Flags: W
LayerCount: 2
Fore
SplineSet
31 1970 m 0,0,1
 33 1970 33 1970 33 1967 c 0,2,3
 33 1965 33 1965 31 1965 c 0,4,5
 28 1965 28 1965 28 1967 c 0,6,7
 28 1970 28 1970 31 1970 c 0,0,1
-3254 2858 m 0,8,9
 -3302 2947 -3302 2947 -3258 3002 c 1,10,11
 -3208 3046 -3208 3046 -3160 3002 c 2,12,-1
 -3086 2934 l 1,13,14
 -3079 2929 -3079 2929 -3084 2917 c 128,-1,15
 -3089 2905 -3089 2905 -3108 2909 c 1,16,17
 -3131 2916 -3131 2916 -3154.5 2913.5 c 128,-1,18
 -3178 2911 -3178 2911 -3185 2871 c 0,19,20
 -3193 2818 -3193 2818 -3166.5 2788.5 c 128,-1,21
 -3140 2759 -3140 2759 -3103 2739 c 1,22,23
 -3064 2720 -3064 2720 -3034 2720.5 c 128,-1,24
 -3004 2721 -3004 2721 -2976 2725 c 1,25,26
 -2910 2730 -2910 2730 -2839.5 2744 c 128,-1,27
 -2769 2758 -2769 2758 -2702 2773 c 1,28,29
 -2685 2778 -2685 2778 -2655 2779 c 0,30,31
 -2627 2779 -2627 2779 -2588.5 2726 c 128,-1,32
 -2550 2673 -2550 2673 -2542.5 2656.5 c 128,-1,33
 -2535 2640 -2535 2640 -2543.5 2628 c 128,-1,34
 -2552 2616 -2552 2616 -2572 2627.5 c 128,-1,35
 -2592 2639 -2592 2639 -2636 2646.5 c 128,-1,36
 -2680 2654 -2680 2654 -2718 2654 c 2,37,-1
 -2836 2654 l 1,38,39
 -2909 2653 -2909 2653 -2986.5 2665.5 c 128,-1,40
 -3064 2678 -3064 2678 -3121 2715 c 0,41,42
 -3158 2740 -3158 2740 -3196.5 2782 c 128,-1,43
 -3235 2824 -3235 2824 -3254 2858 c 0,8,9
EndSplineSet
EndChar

StartChar: R
Encoding: 82 82 45
Width: 0
Flags: W
LayerCount: 2
Fore
SplineSet
-840 1375 m 1,0,1
 -689 1376 -689 1376 -536 1376.5 c 128,-1,2
 -383 1377 -383 1377 -233 1380 c 1,3,4
 -222 1366 -222 1366 -224.5 1343.5 c 128,-1,5
 -227 1321 -227 1321 -233 1306 c 1,6,7
 -263 1298 -263 1298 -434 1298.5 c 128,-1,8
 -605 1299 -605 1299 -731 1299 c 1,9,10
 -731 1194 -731 1194 -726 1060.5 c 128,-1,11
 -721 927 -721 927 -733 926 c 1,12,13
 -764 926 -764 926 -800 921.5 c 128,-1,14
 -836 917 -836 917 -862 926 c 0,15,16
 -865 926 -865 926 -865 947 c 1,17,18
 -865 947 -865 947 -863.5 948.5 c 128,-1,19
 -862 950 -862 950 -862 951 c 0,20,21
 -862 1059 -862 1059 -860.5 1147.5 c 128,-1,22
 -859 1236 -859 1236 -859 1345 c 0,23,24
 -859 1372 -859 1372 -840 1375 c 1,0,1
35 1940 m 1,25,26
 37 1940 37 1940 37 1938 c 256,27,28
 37 1936 37 1936 35 1936 c 1,29,30
 35 1936 35 1936 34.5 1936.5 c 128,-1,31
 34 1937 34 1937 34 1938 c 2,32,33
 34 1938 34 1938 34.5 1939 c 128,-1,34
 35 1940 35 1940 35 1940 c 1,25,26
EndSplineSet
EndChar

StartChar: S
Encoding: 83 83 46
Width: 3103
Flags: W
LayerCount: 2
Fore
SplineSet
1362 3714 m 1,0,1
 1395 3708 1395 3708 1391 3680 c 128,-1,2
 1387 3652 1387 3652 1349 3649 c 1,3,4
 1307 3634 1307 3634 1280.5 3540.5 c 128,-1,5
 1254 3447 1254 3447 1224 3343 c 0,6,7
 1155 3099 1155 3099 1097.5 2947.5 c 128,-1,8
 1040 2796 1040 2796 988.5 2735 c 128,-1,9
 937 2674 937 2674 865 2643 c 0,10,11
 754 2595 754 2595 646.5 2572 c 128,-1,12
 539 2549 539 2549 460 2549 c 1,13,14
 499 2456 499 2456 591 2420.5 c 128,-1,15
 683 2385 683 2385 644 2343 c 1,16,17
 621 2320 621 2320 502 2402.5 c 128,-1,18
 383 2485 383 2485 339 2565 c 1,19,20
 339 2616 339 2616 380.5 2607.5 c 128,-1,21
 422 2599 422 2599 470 2596 c 256,22,23
 518 2593 518 2593 568 2601 c 128,-1,24
 618 2609 618 2609 702 2652 c 0,25,26
 743 2673 743 2673 779.5 2745.5 c 128,-1,27
 816 2818 816 2818 845.5 2906.5 c 128,-1,28
 875 2995 875 2995 895.5 3082 c 128,-1,29
 916 3169 916 3169 949.5 3332.5 c 128,-1,30
 983 3496 983 3496 1007 3551.5 c 128,-1,31
 1031 3607 1031 3607 1075 3641.5 c 128,-1,32
 1119 3676 1119 3676 1159 3686 c 128,-1,33
 1199 3696 1199 3696 1248 3701 c 128,-1,34
 1297 3706 1297 3706 1362 3714 c 1,0,1
176 2020.5 m 128,-1,36
 185 2033 185 2033 197 2034 c 128,-1,37
 209 2035 209 2035 298.5 2031 c 128,-1,38
 388 2027 388 2027 665 2049 c 1,39,-1
 1991 2149 l 2,40,41
 2177 2164 2177 2164 2251.5 2166 c 128,-1,42
 2326 2168 2326 2168 2392 2161.5 c 128,-1,43
 2458 2155 2458 2155 2507 2143 c 128,-1,44
 2556 2131 2556 2131 2624 2111.5 c 128,-1,45
 2692 2092 2692 2092 2753.5 2069 c 128,-1,46
 2815 2046 2815 2046 2868.5 2017 c 128,-1,47
 2922 1988 2922 1988 2934.5 1959.5 c 128,-1,48
 2947 1931 2947 1931 2927 1923.5 c 128,-1,49
 2907 1916 2907 1916 2877 1917.5 c 128,-1,50
 2847 1919 2847 1919 2796 1923 c 128,-1,51
 2745 1927 2745 1927 2695 1930.5 c 128,-1,52
 2645 1934 2645 1934 2550 1933 c 128,-1,53
 2455 1932 2455 1932 2336 1924 c 2,54,-1
 699 1802 l 1,55,56
 599 1800 599 1800 560.5 1803 c 128,-1,57
 522 1806 522 1806 489.5 1812 c 128,-1,58
 457 1818 457 1818 427.5 1829 c 128,-1,59
 398 1840 398 1840 364 1856.5 c 128,-1,60
 330 1873 330 1873 294.5 1895.5 c 128,-1,61
 259 1918 259 1918 222.5 1947 c 128,-1,62
 186 1976 186 1976 176.5 1992 c 128,-1,35
 167 2008 167 2008 176 2020.5 c 128,-1,36
EndSplineSet
EndChar

StartChar: T
Encoding: 84 84 47
Width: 117
Flags: W
LayerCount: 2
Fore
SplineSet
8 1970 m 0,0,1
 10 1970 10 1970 10 1967 c 0,2,3
 10 1965 10 1965 8 1965 c 0,4,5
 5 1965 5 1965 5 1967 c 0,6,7
 5 1970 5 1970 8 1970 c 0,0,1
-527 3294 m 1,8,9
 -526 3365 -526 3365 -524.5 3430.5 c 128,-1,10
 -523 3496 -523 3496 -523 3576 c 0,11,12
 -523 3601 -523 3601 -503 3604 c 1,13,14
 -352 3605 -352 3605 -199.5 3606 c 128,-1,15
 -47 3607 -47 3607 102 3609 c 1,16,17
 112 3596 112 3596 109.5 3575 c 128,-1,18
 107 3554 107 3554 103 3540 c 1,19,20
 72 3533 72 3533 -98 3533.5 c 128,-1,21
 -268 3534 -268 3534 -394 3534 c 1,22,23
 -394 3435 -394 3435 -390 3334 c 128,-1,24
 -386 3233 -386 3233 -398 3233 c 1,25,26
 -415 3230 -415 3230 -431 3226.5 c 128,-1,27
 -447 3223 -447 3223 -525 3226 c 1,28,29
 -607 3224 -607 3224 -714 3221.5 c 128,-1,30
 -821 3219 -821 3219 -901 3219 c 1,31,32
 -901 3121 -901 3121 -898 3019.5 c 128,-1,33
 -895 2918 -895 2918 -907 2917 c 1,34,35
 -937 2917 -937 2917 -973 2912.5 c 128,-1,36
 -1009 2908 -1009 2908 -1036 2917 c 0,37,38
 -1039 2917 -1039 2917 -1039 2936 c 1,39,40
 -1039 2936 -1039 2936 -1037.5 2937 c 128,-1,41
 -1036 2938 -1036 2938 -1036 2940 c 0,42,43
 -1035 3040 -1035 3040 -1032.5 3100.5 c 128,-1,44
 -1030 3161 -1030 3161 -1030 3262 c 0,45,46
 -1030 3287 -1030 3287 -1011 3290 c 1,47,48
 -891 3291 -891 3291 -769 3291.5 c 128,-1,49
 -647 3292 -647 3292 -527 3294 c 1,8,9
8 1970 m 0,50,51
 10 1970 10 1970 10 1967 c 0,52,53
 10 1965 10 1965 8 1965 c 0,54,55
 5 1965 5 1965 5 1967 c 0,56,57
 5 1970 5 1970 8 1970 c 0,50,51
EndSplineSet
EndChar

StartChar: U
Encoding: 85 85 48
Width: 0
Flags: W
LayerCount: 2
Fore
SplineSet
28 1970 m 0,0,1
 30 1970 30 1970 30 1967 c 0,2,3
 30 1965 30 1965 28 1965 c 0,4,5
 25 1965 25 1965 25 1967 c 0,6,7
 25 1970 25 1970 28 1970 c 0,0,1
-2473.5 2794 m 128,-1,9
 -2524 2808 -2524 2808 -2494.5 2775 c 128,-1,10
 -2465 2742 -2465 2742 -2437 2722 c 128,-1,11
 -2409 2702 -2409 2702 -1822 2448 c 1,12,13
 -1790 2433 -1790 2433 -1774 2457 c 1,14,-1
 -1558 2700 l 1,15,16
 -1515 2754 -1515 2754 -1564 2786 c 1,17,-1
 -1650 2836 l 1,18,19
 -1709 2869 -1709 2869 -1738 2830 c 1,20,-1
 -1943 2586 l 1,21,22
 -2314 2741 -2314 2741 -2368.5 2760.5 c 128,-1,8
 -2423 2780 -2423 2780 -2473.5 2794 c 128,-1,9
EndSplineSet
EndChar

StartChar: V
Encoding: 86 86 49
Width: 3009
Flags: W
LayerCount: 2
Fore
SplineSet
176 2020.5 m 128,-1,1
 185 2033 185 2033 197 2034 c 128,-1,2
 209 2035 209 2035 298.5 2031 c 128,-1,3
 388 2027 388 2027 665 2049 c 1,4,-1
 1991 2149 l 2,5,6
 2177 2164 2177 2164 2251.5 2166 c 128,-1,7
 2326 2168 2326 2168 2392 2161.5 c 128,-1,8
 2458 2155 2458 2155 2507 2143 c 128,-1,9
 2556 2131 2556 2131 2624 2111.5 c 128,-1,10
 2692 2092 2692 2092 2753.5 2069 c 128,-1,11
 2815 2046 2815 2046 2868.5 2017 c 128,-1,12
 2922 1988 2922 1988 2934.5 1959.5 c 128,-1,13
 2947 1931 2947 1931 2927 1923.5 c 128,-1,14
 2907 1916 2907 1916 2877 1917.5 c 128,-1,15
 2847 1919 2847 1919 2796 1923 c 128,-1,16
 2745 1927 2745 1927 2695 1930.5 c 128,-1,17
 2645 1934 2645 1934 2550 1933 c 128,-1,18
 2455 1932 2455 1932 2336 1924 c 2,19,-1
 699 1802 l 1,20,21
 599 1800 599 1800 560.5 1803 c 128,-1,22
 522 1806 522 1806 489.5 1812 c 128,-1,23
 457 1818 457 1818 427.5 1829 c 128,-1,24
 398 1840 398 1840 364 1856.5 c 128,-1,25
 330 1873 330 1873 294.5 1895.5 c 128,-1,26
 259 1918 259 1918 222.5 1947 c 128,-1,27
 186 1976 186 1976 176.5 1992 c 128,-1,0
 167 2008 167 2008 176 2020.5 c 128,-1,1
1546 2694 m 1,28,29
 1616 2694 1616 2694 1693 2692.5 c 128,-1,30
 1770 2691 1770 2691 1832 2683 c 1,31,32
 1875 2683 1875 2683 1914 2578.5 c 128,-1,33
 1953 2474 1953 2474 2024 2369 c 0,34,35
 2048 2333 2048 2333 2068 2330 c 1,36,37
 2087 2325 2087 2325 2097 2312.5 c 128,-1,38
 2107 2300 2107 2300 2077 2290 c 1,39,40
 2006 2280 2006 2280 1933.5 2281.5 c 128,-1,41
 1861 2283 1861 2283 1795 2290 c 1,42,43
 1732 2311 1732 2311 1706 2385 c 128,-1,44
 1680 2459 1680 2459 1607 2605 c 1,45,46
 1586 2637 1586 2637 1538 2646 c 1,47,48
 1505 2650 1505 2650 1501 2671.5 c 128,-1,49
 1497 2693 1497 2693 1546 2694 c 1,28,29
1037 2697 m 1,50,51
 1098 2697 1098 2697 1165.5 2695.5 c 128,-1,52
 1233 2694 1233 2694 1287 2685 c 1,53,54
 1325 2685 1325 2685 1368 2577.5 c 128,-1,55
 1411 2470 1411 2470 1469 2367 c 0,56,57
 1489 2331 1489 2331 1508 2327 c 0,58,59
 1524 2323 1524 2323 1533 2310 c 128,-1,60
 1542 2297 1542 2297 1516 2287 c 1,61,62
 1453 2277 1453 2277 1389.5 2279 c 128,-1,63
 1326 2281 1326 2281 1269 2287 c 1,64,65
 1215 2308 1215 2308 1184.5 2384 c 128,-1,66
 1154 2460 1154 2460 1091 2607 c 1,67,68
 1085 2615 1085 2615 1068.5 2632.5 c 128,-1,69
 1052 2650 1052 2650 1030 2654 c 0,70,71
 1001 2658 1001 2658 997.5 2676.5 c 128,-1,72
 994 2695 994 2695 1037 2697 c 1,50,51
1352 3284 m 1,73,74
 1502 3285 1502 3285 1655 3286 c 128,-1,75
 1808 3287 1808 3287 1959 3289 c 1,76,77
 1969 3275 1969 3275 1966.5 3252 c 128,-1,78
 1964 3229 1964 3229 1959 3214 c 1,79,80
 1928 3207 1928 3207 1757 3207.5 c 128,-1,81
 1586 3208 1586 3208 1461 3208 c 1,82,83
 1460 3102 1460 3102 1465 2990.5 c 128,-1,84
 1470 2879 1470 2879 1459 2877 c 1,85,86
 1427 2877 1427 2877 1391 2872.5 c 128,-1,87
 1355 2868 1355 2868 1330 2877 c 1,88,89
 1327 2877 1327 2877 1327 2898 c 0,90,91
 1327 2899 1327 2899 1328.5 2900 c 128,-1,92
 1330 2901 1330 2901 1330 2903 c 0,93,94
 1330 3011 1330 3011 1331.5 3078 c 128,-1,95
 1333 3145 1333 3145 1333 3253 c 0,96,97
 1333 3281 1333 3281 1352 3284 c 1,73,74
EndSplineSet
EndChar

StartChar: W
Encoding: 87 87 50
Width: 0
Flags: W
LayerCount: 2
Fore
SplineSet
-266 1965 m 0,0,1
 -264 1965 -264 1965 -264 1963 c 256,2,3
 -264 1961 -264 1961 -266 1961 c 0,4,5
 -269 1961 -269 1961 -269 1963 c 256,6,7
 -269 1965 -269 1965 -266 1965 c 0,0,1
-266 1965 m 0,8,9
 -264 1965 -264 1965 -264 1963 c 256,10,11
 -264 1961 -264 1961 -266 1961 c 0,12,13
 -269 1961 -269 1961 -269 1963 c 256,14,15
 -269 1965 -269 1965 -266 1965 c 0,8,9
-1944 2977 m 1,16,17
 -1797 2974 -1797 2974 -1649 2977 c 128,-1,18
 -1501 2980 -1501 2980 -1353 2979 c 0,19,20
 -1353 2978 -1353 2978 -1352 2978 c 1,21,22
 -1352 2978 -1352 2978 -1352 2978 c 129,-1,23
 -1352 2978 -1352 2978 -1352 2978 c 1,24,25
 -1334 2975 -1334 2975 -1334 2948 c 0,26,27
 -1334 2839 -1334 2839 -1332 2747 c 128,-1,28
 -1330 2655 -1330 2655 -1330 2547 c 0,29,30
 -1330 2546 -1330 2546 -1328 2544.5 c 128,-1,31
 -1326 2543 -1326 2543 -1326 2543 c 1,32,33
 -1326 2522 -1326 2522 -1330 2522 c 1,34,35
 -1343 2517 -1343 2517 -1370 2517 c 0,36,37
 -1389 2517 -1389 2517 -1410 2519 c 128,-1,38
 -1431 2521 -1431 2521 -1451 2522 c 0,39,40
 -1452 2522 -1452 2522 -1454 2522 c 128,-1,41
 -1456 2522 -1456 2522 -1459 2522 c 0,42,43
 -1470 2523 -1470 2523 -1465 2656.5 c 128,-1,44
 -1460 2790 -1460 2790 -1461 2895 c 1,45,46
 -1608 2898 -1608 2898 -1761.5 2894.5 c 128,-1,47
 -1915 2891 -1915 2891 -2050 2895 c 1,48,49
 -2070 2897 -2070 2897 -2070 2925 c 0,50,51
 -2070 3039 -2070 3039 -2070.5 3130.5 c 128,-1,52
 -2071 3222 -2071 3222 -2071 3337 c 1,53,54
 -2046 3346 -2046 3346 -2010.5 3341.5 c 128,-1,55
 -1975 3337 -1975 3337 -1945 3337 c 1,56,57
 -1944 3232 -1944 3232 -1943.5 3157 c 128,-1,58
 -1943 3082 -1943 3082 -1944 2977 c 1,16,17
EndSplineSet
EndChar

StartChar: X
Encoding: 88 88 51
Width: 3116
Flags: W
LayerCount: 2
Fore
SplineSet
176 2020.5 m 128,-1,1
 185 2033 185 2033 197 2034 c 128,-1,2
 209 2035 209 2035 298.5 2031 c 128,-1,3
 388 2027 388 2027 665 2049 c 1,4,-1
 1991 2149 l 2,5,6
 2177 2164 2177 2164 2251.5 2166 c 128,-1,7
 2326 2168 2326 2168 2392 2161.5 c 128,-1,8
 2458 2155 2458 2155 2507 2143 c 128,-1,9
 2556 2131 2556 2131 2624 2111.5 c 128,-1,10
 2692 2092 2692 2092 2753.5 2069 c 128,-1,11
 2815 2046 2815 2046 2868.5 2017 c 128,-1,12
 2922 1988 2922 1988 2934.5 1959.5 c 128,-1,13
 2947 1931 2947 1931 2927 1923.5 c 128,-1,14
 2907 1916 2907 1916 2877 1917.5 c 128,-1,15
 2847 1919 2847 1919 2796 1923 c 128,-1,16
 2745 1927 2745 1927 2695 1930.5 c 128,-1,17
 2645 1934 2645 1934 2550 1933 c 128,-1,18
 2455 1932 2455 1932 2336 1924 c 2,19,-1
 699 1802 l 1,20,21
 599 1800 599 1800 560.5 1803 c 128,-1,22
 522 1806 522 1806 489.5 1812 c 128,-1,23
 457 1818 457 1818 427.5 1829 c 128,-1,24
 398 1840 398 1840 364 1856.5 c 128,-1,25
 330 1873 330 1873 294.5 1895.5 c 128,-1,26
 259 1918 259 1918 222.5 1947 c 128,-1,27
 186 1976 186 1976 176.5 1992 c 128,-1,0
 167 2008 167 2008 176 2020.5 c 128,-1,1
364 1169 m 1,28,29
 671 1184 671 1184 1087 1206 c 128,-1,30
 1503 1228 1503 1228 1809 1219 c 0,31,32
 2074 1211 2074 1211 2320 1186 c 128,-1,33
 2566 1161 2566 1161 2695 1133 c 1,34,35
 2826 1103 2826 1103 2935 1032 c 128,-1,36
 3044 961 3044 961 3062 889 c 1,37,38
 3078 817 3078 817 3063.5 768 c 128,-1,39
 3049 719 3049 719 2903 654 c 1,40,41
 2799 631 2799 631 2685.5 624 c 128,-1,42
 2572 617 2572 617 2488 619 c 1,43,44
 2453 632 2453 632 2482.5 648 c 128,-1,45
 2512 664 2512 664 2564.5 689.5 c 128,-1,46
 2617 715 2617 715 2672 755 c 128,-1,47
 2727 795 2727 795 2745 857 c 0,48,49
 2777 970 2777 970 2645 1029 c 128,-1,50
 2513 1088 2513 1088 2330 1114 c 128,-1,51
 2147 1140 2147 1140 1968 1143.5 c 128,-1,52
 1789 1147 1789 1147 1728 1150 c 0,53,54
 1598 1156 1598 1156 1369 1148 c 128,-1,55
 1140 1140 1140 1140 916.5 1127.5 c 128,-1,56
 693 1115 693 1115 528.5 1104 c 128,-1,57
 364 1093 364 1093 364 1093 c 1,58,59
 331 1099 331 1099 332 1132.5 c 128,-1,60
 333 1166 333 1166 364 1169 c 1,28,29
1772 1711 m 1,61,62
 1842 1711 1842 1711 1919 1709.5 c 128,-1,63
 1996 1708 1996 1708 2058 1700 c 1,64,65
 2101 1700 2101 1700 2140 1595 c 128,-1,66
 2179 1490 2179 1490 2250 1386 c 0,67,68
 2275 1350 2275 1350 2295 1346 c 1,69,70
 2313 1341 2313 1341 2323.5 1328.5 c 128,-1,71
 2334 1316 2334 1316 2304 1307 c 1,72,73
 2232 1296 2232 1296 2159.5 1298 c 128,-1,74
 2087 1300 2087 1300 2021 1307 c 1,75,76
 1959 1327 1959 1327 1932.5 1401.5 c 128,-1,77
 1906 1476 1906 1476 1834 1621 c 1,78,79
 1811 1655 1811 1655 1765 1662 c 0,80,81
 1732 1667 1732 1667 1727.5 1688.5 c 128,-1,82
 1723 1710 1723 1710 1772 1711 c 1,61,62
EndSplineSet
EndChar

StartChar: Y
Encoding: 89 89 52
Width: 0
Flags: W
LayerCount: 2
Fore
SplineSet
-555 3408 m 0,0,1
 -555 3434 -555 3434 -536 3438 c 1,2,3
 -416 3438 -416 3438 -294 3439 c 128,-1,4
 -172 3440 -172 3440 -52 3441 c 1,5,6
 -51 3515 -51 3515 -50.5 3538 c 128,-1,7
 -50 3561 -50 3561 -50 3643 c 0,8,9
 -50 3670 -50 3670 -31 3673 c 1,10,11
 119 3674 119 3674 271.5 3674.5 c 128,-1,12
 424 3675 424 3675 575 3678 c 1,13,14
 591 3654 591 3654 575 3606 c 1,15,16
 544 3599 544 3599 373 3599.5 c 128,-1,17
 202 3600 202 3600 77 3600 c 1,18,19
 77 3498 77 3498 82 3438.5 c 128,-1,20
 87 3379 87 3379 75 3378 c 1,21,22
 58 3375 58 3375 43 3371.5 c 128,-1,23
 28 3368 28 3368 -50 3371 c 1,24,25
 -132 3369 -132 3369 -239 3366.5 c 128,-1,26
 -346 3364 -346 3364 -426 3364 c 1,27,28
 -427 3350 -427 3350 -426 3338 c 1,29,-1
 -426 3338 l 1,30,31
 -424 3143 -424 3143 -429 3143 c 1,32,33
 -445 3139 -445 3139 -460.5 3136 c 128,-1,34
 -476 3133 -476 3133 -555 3136 c 1,35,36
 -637 3134 -637 3134 -743.5 3131.5 c 128,-1,37
 -850 3129 -850 3129 -931 3129 c 1,38,39
 -932 2909 -932 2909 -936 2909 c 0,40,41
 -967 2909 -967 2909 -1003 2904.5 c 128,-1,42
 -1039 2900 -1039 2900 -1065 2909 c 0,43,44
 -1068 2909 -1068 2909 -1068 2929 c 0,45,46
 -1068 2930 -1068 2930 -1066.5 2931 c 128,-1,47
 -1065 2932 -1065 2932 -1065 2934 c 0,48,49
 -1064 3037 -1064 3037 -1062 3052.5 c 128,-1,50
 -1060 3068 -1060 3068 -1060 3173 c 0,51,52
 -1060 3199 -1060 3199 -1041 3202 c 1,53,54
 -921 3203 -921 3203 -799 3204 c 128,-1,55
 -677 3205 -677 3205 -557 3206 c 1,56,57
 -556 3257 -556 3257 -555.5 3307 c 128,-1,58
 -555 3357 -555 3357 -555 3408 c 0,0,1
EndSplineSet
EndChar

StartChar: Z
Encoding: 90 90 53
Width: 3137
Flags: W
LayerCount: 2
Fore
SplineSet
176 2020.5 m 128,-1,1
 185 2033 185 2033 197 2034 c 128,-1,2
 209 2035 209 2035 298.5 2031 c 128,-1,3
 388 2027 388 2027 665 2049 c 1,4,-1
 1991 2149 l 2,5,6
 2177 2164 2177 2164 2251.5 2166 c 128,-1,7
 2326 2168 2326 2168 2392 2161.5 c 128,-1,8
 2458 2155 2458 2155 2507 2143 c 128,-1,9
 2556 2131 2556 2131 2624 2111.5 c 128,-1,10
 2692 2092 2692 2092 2753.5 2069 c 128,-1,11
 2815 2046 2815 2046 2868.5 2017 c 128,-1,12
 2922 1988 2922 1988 2934.5 1959.5 c 128,-1,13
 2947 1931 2947 1931 2927 1923.5 c 128,-1,14
 2907 1916 2907 1916 2877 1917.5 c 128,-1,15
 2847 1919 2847 1919 2796 1923 c 128,-1,16
 2745 1927 2745 1927 2695 1930.5 c 128,-1,17
 2645 1934 2645 1934 2550 1933 c 128,-1,18
 2455 1932 2455 1932 2336 1924 c 2,19,-1
 699 1802 l 1,20,21
 599 1800 599 1800 560.5 1803 c 128,-1,22
 522 1806 522 1806 489.5 1812 c 128,-1,23
 457 1818 457 1818 427.5 1829 c 128,-1,24
 398 1840 398 1840 364 1856.5 c 128,-1,25
 330 1873 330 1873 294.5 1895.5 c 128,-1,26
 259 1918 259 1918 222.5 1947 c 128,-1,27
 186 1976 186 1976 176.5 1992 c 128,-1,0
 167 2008 167 2008 176 2020.5 c 128,-1,1
1896 2798 m 1,28,29
 1957 2798 1957 2798 2024.5 2796 c 128,-1,30
 2092 2794 2092 2794 2146 2784 c 1,31,32
 2184 2784 2184 2784 2227 2653.5 c 128,-1,33
 2270 2523 2270 2523 2329 2397 c 1,34,35
 2347 2355 2347 2355 2368 2349 c 1,36,37
 2384 2343 2384 2343 2393 2328 c 128,-1,38
 2402 2313 2402 2313 2375 2301 c 1,39,40
 2313 2288 2313 2288 2249 2290 c 128,-1,41
 2185 2292 2185 2292 2128 2301 c 1,42,43
 2074 2325 2074 2325 2043.5 2418 c 128,-1,44
 2013 2511 2013 2511 1950 2689 c 1,45,46
 1945 2699 1945 2699 1928 2720 c 128,-1,47
 1911 2741 1911 2741 1889 2746 c 0,48,49
 1860 2752 1860 2752 1856.5 2774.5 c 128,-1,50
 1853 2797 1853 2797 1896 2798 c 1,28,29
1343 2798 m 1,51,52
 1404 2798 1404 2798 1471.5 2796 c 128,-1,53
 1539 2794 1539 2794 1593 2784 c 1,54,55
 1631 2784 1631 2784 1674 2653.5 c 128,-1,56
 1717 2523 1717 2523 1775 2397 c 1,57,58
 1796 2355 1796 2355 1814 2349 c 0,59,60
 1830 2343 1830 2343 1839 2328 c 128,-1,61
 1848 2313 1848 2313 1822 2301 c 1,62,63
 1759 2288 1759 2288 1695.5 2290 c 128,-1,64
 1632 2292 1632 2292 1575 2301 c 1,65,66
 1520 2325 1520 2325 1490 2418 c 128,-1,67
 1460 2511 1460 2511 1397 2689 c 1,68,69
 1391 2699 1391 2699 1374.5 2720 c 128,-1,70
 1358 2741 1358 2741 1336 2746 c 0,71,72
 1306 2752 1306 2752 1303 2774.5 c 128,-1,73
 1300 2797 1300 2797 1343 2798 c 1,51,52
1327 3724 m 1,74,75
 1360 3718 1360 3718 1356 3690 c 128,-1,76
 1352 3662 1352 3662 1314 3659 c 1,77,78
 1272 3644 1272 3644 1245.5 3550.5 c 128,-1,79
 1219 3457 1219 3457 1189 3353 c 0,80,81
 1120 3109 1120 3109 1062.5 2957.5 c 128,-1,82
 1005 2806 1005 2806 953.5 2745 c 128,-1,83
 902 2684 902 2684 830 2653 c 0,84,85
 719 2605 719 2605 611.5 2582 c 128,-1,86
 504 2559 504 2559 425 2559 c 1,87,88
 464 2466 464 2466 556 2430.5 c 128,-1,89
 648 2395 648 2395 609 2353 c 1,90,91
 586 2330 586 2330 467 2412.5 c 128,-1,92
 348 2495 348 2495 304 2575 c 1,93,94
 304 2626 304 2626 345.5 2617.5 c 128,-1,95
 387 2609 387 2609 435 2606 c 256,96,97
 483 2603 483 2603 533 2611 c 128,-1,98
 583 2619 583 2619 667 2662 c 0,99,100
 708 2683 708 2683 744.5 2755.5 c 128,-1,101
 781 2828 781 2828 810.5 2916.5 c 128,-1,102
 840 3005 840 3005 860.5 3092 c 128,-1,103
 881 3179 881 3179 914.5 3342.5 c 128,-1,104
 948 3506 948 3506 972 3561.5 c 128,-1,105
 996 3617 996 3617 1040 3651.5 c 128,-1,106
 1084 3686 1084 3686 1124 3696 c 128,-1,107
 1164 3706 1164 3706 1213 3711 c 128,-1,108
 1262 3716 1262 3716 1327 3724 c 1,74,75
EndSplineSet
EndChar

StartChar: bracketleft
Encoding: 91 91 54
Width: 3333
Flags: W
LayerCount: 2
Fore
SplineSet
167 2020.5 m 128,-1,1
 177 2033 177 2033 190 2034 c 128,-1,2
 203 2035 203 2035 301 2031 c 128,-1,3
 399 2027 399 2027 702 2049 c 1,4,-1
 2151 2149 l 2,5,6
 2354 2164 2354 2164 2435.5 2166 c 128,-1,7
 2517 2168 2517 2168 2589.5 2161.5 c 128,-1,8
 2662 2155 2662 2155 2715.5 2143 c 128,-1,9
 2769 2131 2769 2131 2843 2111.5 c 128,-1,10
 2917 2092 2917 2092 2984.5 2069 c 128,-1,11
 3052 2046 3052 2046 3110.5 2017 c 128,-1,12
 3169 1988 3169 1988 3182.5 1959.5 c 128,-1,13
 3196 1931 3196 1931 3174 1923.5 c 128,-1,14
 3152 1916 3152 1916 3119.5 1917.5 c 128,-1,15
 3087 1919 3087 1919 3031.5 1923 c 128,-1,16
 2976 1927 2976 1927 2921 1930.5 c 128,-1,17
 2866 1934 2866 1934 2762 1933 c 128,-1,18
 2658 1932 2658 1932 2528 1924 c 2,19,-1
 738 1802 l 1,20,21
 630 1800 630 1800 588 1803 c 128,-1,22
 546 1806 546 1806 510 1812 c 128,-1,23
 474 1818 474 1818 441.5 1829 c 128,-1,24
 409 1840 409 1840 372.5 1856.5 c 128,-1,25
 336 1873 336 1873 296.5 1895.5 c 128,-1,26
 257 1918 257 1918 217.5 1947 c 128,-1,27
 178 1976 178 1976 167.5 1992 c 128,-1,0
 157 2008 157 2008 167 2020.5 c 128,-1,1
911 3409 m 0,28,29
 911 3435 911 3435 931 3438 c 1,30,31
 1051 3439 1051 3439 1172.5 3440 c 128,-1,32
 1294 3441 1294 3441 1414 3442 c 1,33,34
 1415 3516 1415 3516 1415.5 3539 c 128,-1,35
 1416 3562 1416 3562 1416 3644 c 0,36,37
 1416 3670 1416 3670 1436 3674 c 1,38,39
 1586 3675 1586 3675 1738.5 3675.5 c 128,-1,40
 1891 3676 1891 3676 2042 3678 c 1,41,42
 2052 3665 2052 3665 2049.5 3643.5 c 128,-1,43
 2047 3622 2047 3622 2043 3607 c 1,44,45
 2012 3600 2012 3600 1841 3600 c 128,-1,46
 1670 3600 1670 3600 1545 3600 c 1,47,48
 1544 3498 1544 3498 1549 3438.5 c 128,-1,49
 1554 3379 1554 3379 1543 3379 c 1,50,51
 1525 3375 1525 3375 1510 3372 c 128,-1,52
 1495 3369 1495 3369 1417 3372 c 1,53,54
 1334 3370 1334 3370 1227 3367.5 c 128,-1,55
 1120 3365 1120 3365 1040 3365 c 1,56,57
 1040 3358 1040 3358 1040 3351 c 128,-1,58
 1040 3344 1040 3344 1040 3338 c 1,59,-1
 1040 3338 l 1,60,61
 1041 3143 1041 3143 1038 3143 c 0,62,63
 1020 3140 1020 3140 1005 3136.5 c 128,-1,64
 990 3133 990 3133 912 3136 c 1,65,66
 829 3135 829 3135 722 3132.5 c 128,-1,67
 615 3130 615 3130 535 3130 c 1,68,69
 533 2910 533 2910 531 2910 c 0,70,71
 499 2910 499 2910 463 2905.5 c 128,-1,72
 427 2901 427 2901 402 2910 c 1,73,74
 399 2910 399 2910 399 2930 c 1,75,76
 399 2930 399 2930 400.5 2931.5 c 128,-1,77
 402 2933 402 2933 402 2934 c 0,78,79
 402 3038 402 3038 404.5 3053.5 c 128,-1,80
 407 3069 407 3069 407 3174 c 0,81,82
 407 3200 407 3200 426 3203 c 1,83,84
 546 3204 546 3204 667.5 3204.5 c 128,-1,85
 789 3205 789 3205 910 3206 c 1,86,87
 910 3257 910 3257 910.5 3307.5 c 128,-1,88
 911 3358 911 3358 911 3409 c 0,28,29
2357 2715 m 1,89,90
 2418 2715 2418 2715 2485.5 2713 c 128,-1,91
 2553 2711 2553 2711 2607 2701 c 1,92,93
 2645 2701 2645 2701 2695 2596.5 c 128,-1,94
 2745 2492 2745 2492 2803 2367 c 1,95,96
 2820 2324 2820 2324 2842 2319 c 1,97,98
 2857 2313 2857 2313 2866 2297.5 c 128,-1,99
 2875 2282 2875 2282 2849 2270 c 1,100,101
 2787 2258 2787 2258 2723 2260 c 128,-1,102
 2659 2262 2659 2262 2602 2270 c 1,103,104
 2548 2295 2548 2295 2511 2361.5 c 128,-1,105
 2474 2428 2474 2428 2411 2605 c 1,106,107
 2405 2616 2405 2616 2388.5 2637.5 c 128,-1,108
 2372 2659 2372 2659 2350 2663 c 0,109,110
 2322 2668 2322 2668 2318 2691 c 128,-1,111
 2314 2714 2314 2714 2357 2715 c 1,89,90
1804 2715 m 1,112,113
 1865 2715 1865 2715 1932.5 2713 c 128,-1,114
 2000 2711 2000 2711 2054 2701 c 1,115,116
 2092 2701 2092 2701 2141.5 2596.5 c 128,-1,117
 2191 2492 2191 2492 2249 2367 c 0,118,119
 2268 2324 2268 2324 2288 2319 c 1,120,121
 2304 2313 2304 2313 2313 2297.5 c 128,-1,122
 2322 2282 2322 2282 2296 2270 c 1,123,124
 2233 2258 2233 2258 2169.5 2260 c 128,-1,125
 2106 2262 2106 2262 2048 2270 c 1,126,127
 1994 2295 1994 2295 1957.5 2361.5 c 128,-1,128
 1921 2428 1921 2428 1858 2605 c 1,129,130
 1852 2616 1852 2616 1835 2637.5 c 128,-1,131
 1818 2659 1818 2659 1797 2663 c 0,132,133
 1768 2668 1768 2668 1764.5 2691 c 128,-1,134
 1761 2714 1761 2714 1804 2715 c 1,112,113
1152 2815 m 1,135,136
 1200 2813 1200 2813 1196.5 2789.5 c 128,-1,137
 1193 2766 1193 2766 1160 2761 c 0,138,139
 1134 2757 1134 2757 1115 2741 c 128,-1,140
 1096 2725 1096 2725 1091 2716 c 0,141,142
 1017 2557 1017 2557 977.5 2438 c 128,-1,143
 938 2319 938 2319 876 2297 c 1,144,145
 810 2290 810 2290 737 2287.5 c 128,-1,146
 664 2285 664 2285 594 2297 c 1,147,148
 564 2308 564 2308 573.5 2321.5 c 128,-1,149
 583 2335 583 2335 603 2340 c 0,150,151
 624 2346 624 2346 647 2384 c 0,152,153
 718 2498 718 2498 770 2650 c 128,-1,154
 822 2802 822 2802 867 2802 c 1,155,156
 928 2811 928 2811 1004.5 2813 c 128,-1,157
 1081 2815 1081 2815 1152 2815 c 1,135,136
EndSplineSet
EndChar

StartChar: backslash
Encoding: 92 92 55
Width: 1271
Flags: W
LayerCount: 2
Fore
SplineSet
1056 1310 m 0,0,1
 1056 1183 1056 1183 990.5 971 c 128,-1,2
 925 759 925 759 895 628.5 c 128,-1,3
 865 498 865 498 867.5 411.5 c 128,-1,4
 870 325 870 325 927.5 257.5 c 128,-1,5
 985 190 985 190 1044 178 c 1,6,7
 1085 172 1085 172 1111.5 180 c 128,-1,8
 1138 188 1138 188 1179 209 c 1,9,-1
 1188 163 l 1,10,11
 1145 114 1145 114 1097.5 97 c 128,-1,12
 1050 80 1050 80 977 82 c 0,13,14
 864 84 864 84 770 175 c 128,-1,15
 676 266 676 266 668 378 c 128,-1,16
 660 490 660 490 694.5 612.5 c 128,-1,17
 729 735 729 735 798.5 960 c 128,-1,18
 868 1185 868 1185 878 1339 c 1,19,20
 880 1446 880 1446 822 1517.5 c 128,-1,21
 764 1589 764 1589 645 1607 c 1,22,23
 485 1624 485 1624 362 1503 c 1,24,25
 282 1390 282 1390 299 1257 c 1,26,27
 307 1161 307 1161 324.5 1120 c 128,-1,28
 342 1079 342 1079 342 1036 c 0,29,30
 342 1003 342 1003 311 987.5 c 128,-1,31
 280 972 280 972 202 968 c 1,32,33
 149 995 149 995 117.5 1119 c 128,-1,34
 86 1243 86 1243 106 1411 c 1,35,36
 151 1564 151 1564 284.5 1661.5 c 128,-1,37
 418 1759 418 1759 680 1742 c 1,38,39
 909 1710 909 1710 982.5 1587 c 128,-1,40
 1056 1464 1056 1464 1056 1310 c 0,0,1
EndSplineSet
EndChar

StartChar: asciicircum
Encoding: 94 94 56
Width: 0
Flags: W
LayerCount: 2
Fore
SplineSet
-144 2760 m 1,0,1
 -142 2786 -142 2786 -111.5 2784.5 c 128,-1,2
 -81 2783 -81 2783 -79 2761 c 1,3,-1
 -79 1402 l 2,4,5
 -79 1372 -79 1372 -79 1372 c 1,6,7
 -91 1345 -91 1345 -117.5 1349 c 128,-1,8
 -144 1353 -144 1353 -144 1372 c 2,9,-1
 -144 2731 l 2,10,11
 -144 2760 -144 2760 -144 2760 c 1,0,1
-145 1850 m 257,12,13
 -145 1850 -145 1850 -145 1850 c 129,-1,14
 -145 1850 -145 1850 -145 1850 c 257,15,16
 -145 1850 -145 1850 -145 1850 c 129,-1,17
 -145 1850 -145 1850 -145 1850 c 257,18,19
 -145 1850 -145 1850 -145 1850 c 129,-1,20
 -145 1850 -145 1850 -145 1850 c 257,21,22
 -145 1850 -145 1850 -145 1850 c 129,-1,23
 -145 1850 -145 1850 -145 1850 c 257,12,13
96 2760 m 1,24,25
 98 2786 98 2786 128.5 2784.5 c 128,-1,26
 159 2783 159 2783 161 2761 c 1,27,-1
 161 1402 l 2,28,29
 161 1372 161 1372 161 1372 c 1,30,31
 149 1345 149 1345 122.5 1349 c 128,-1,32
 96 1353 96 1353 96 1372 c 2,33,-1
 96 2731 l 2,34,35
 96 2760 96 2760 96 2760 c 1,24,25
EndSplineSet
EndChar

StartChar: underscore
Encoding: 95 95 57
Width: 9
Flags: W
LayerCount: 2
Fore
SplineSet
40 1940 m 1,0,1
 42 1940 42 1940 42 1938 c 256,2,3
 42 1936 42 1936 40 1936 c 1,4,5
 40 1936 40 1936 39.5 1936.5 c 128,-1,6
 39 1937 39 1937 39 1938 c 2,7,8
 39 1938 39 1938 39.5 1939 c 128,-1,9
 40 1940 40 1940 40 1940 c 1,0,1
-4591 1532 m 1,10,11
 -4569 1551 -4569 1551 -4526.5 1531 c 128,-1,12
 -4484 1511 -4484 1511 -4514 1464 c 1,13,-1
 -4753 1203 l 1,14,15
 -4734 1218 -4734 1218 -4587.5 1279.5 c 128,-1,16
 -4441 1341 -4441 1341 -4362 1363 c 0,17,18
 -4180 1412 -4180 1412 -3950.5 1394 c 128,-1,19
 -3721 1376 -3721 1376 -3550 1323 c 0,20,21
 -3475 1300 -3475 1300 -3349 1248 c 128,-1,22
 -3223 1196 -3223 1196 -3071 1150 c 128,-1,23
 -2919 1104 -2919 1104 -2754 1081 c 128,-1,24
 -2589 1058 -2589 1058 -2438 1092 c 1,25,26
 -2352 1110 -2352 1110 -2281.5 1166.5 c 128,-1,27
 -2211 1223 -2211 1223 -2236 1259 c 0,28,29
 -2260 1295 -2260 1295 -2333.5 1247 c 128,-1,30
 -2407 1199 -2407 1199 -2475 1324 c 1,31,32
 -2525 1420 -2525 1420 -2462 1487.5 c 128,-1,33
 -2399 1555 -2399 1555 -2286 1535 c 0,34,35
 -2121 1505 -2121 1505 -2121 1341 c 1,36,37
 -2120 1254 -2120 1254 -2195.5 1164.5 c 128,-1,38
 -2271 1075 -2271 1075 -2368 1045 c 1,39,40
 -2563 982 -2563 982 -2739.5 991.5 c 128,-1,41
 -2916 1001 -2916 1001 -3071.5 1043 c 128,-1,42
 -3227 1085 -3227 1085 -3360.5 1142 c 128,-1,43
 -3494 1199 -3494 1199 -3603 1231 c 0,44,45
 -3808 1292 -3808 1292 -3986 1317.5 c 128,-1,46
 -4164 1343 -4164 1343 -4354 1298 c 0,47,48
 -4465 1272 -4465 1272 -4608 1211.5 c 128,-1,49
 -4751 1151 -4751 1151 -4801 1112 c 1,50,51
 -4825 1090 -4825 1090 -4864.5 1115 c 128,-1,52
 -4904 1140 -4904 1140 -4886 1187 c 1,53,-1
 -4591 1532 l 1,10,11
EndSplineSet
EndChar

StartChar: a
Encoding: 97 97 58
Width: 3091
Flags: W
LayerCount: 2
Fore
SplineSet
152 2020.5 m 128,-1,1
 161 2033 161 2033 173 2034 c 128,-1,2
 185 2035 185 2035 274.5 2031 c 128,-1,3
 364 2027 364 2027 641 2049 c 1,4,-1
 1967 2149 l 2,5,6
 2153 2164 2153 2164 2227.5 2166 c 128,-1,7
 2302 2168 2302 2168 2368 2161.5 c 128,-1,8
 2434 2155 2434 2155 2483 2143 c 128,-1,9
 2532 2131 2532 2131 2600 2111.5 c 128,-1,10
 2668 2092 2668 2092 2729.5 2069 c 128,-1,11
 2791 2046 2791 2046 2844.5 2017 c 128,-1,12
 2898 1988 2898 1988 2910.5 1959.5 c 128,-1,13
 2923 1931 2923 1931 2903 1923.5 c 128,-1,14
 2883 1916 2883 1916 2853 1917.5 c 128,-1,15
 2823 1919 2823 1919 2772 1923 c 128,-1,16
 2721 1927 2721 1927 2671 1930.5 c 128,-1,17
 2621 1934 2621 1934 2526 1933 c 128,-1,18
 2431 1932 2431 1932 2312 1924 c 2,19,-1
 675 1802 l 1,20,21
 575 1800 575 1800 536.5 1803 c 128,-1,22
 498 1806 498 1806 465.5 1812 c 128,-1,23
 433 1818 433 1818 403.5 1829 c 128,-1,24
 374 1840 374 1840 340 1856.5 c 128,-1,25
 306 1873 306 1873 270.5 1895.5 c 128,-1,26
 235 1918 235 1918 198.5 1947 c 128,-1,27
 162 1976 162 1976 152.5 1992 c 128,-1,0
 143 2008 143 2008 152 2020.5 c 128,-1,1
244 2709 m 1,28,29
 176 2850 176 2850 207.5 2951 c 128,-1,30
 239 3052 239 3052 320 3059 c 0,31,32
 373 3063 373 3063 400.5 3050 c 128,-1,33
 428 3037 428 3037 449 3023.5 c 128,-1,34
 470 3010 470 3010 489 2994.5 c 128,-1,35
 508 2979 508 2979 524.5 2962.5 c 128,-1,36
 541 2946 541 2946 547.5 2933 c 128,-1,37
 554 2920 554 2920 553.5 2909 c 128,-1,38
 553 2898 553 2898 546.5 2893 c 128,-1,39
 540 2888 540 2888 508 2874 c 128,-1,40
 476 2860 476 2860 426 2828 c 128,-1,41
 376 2796 376 2796 378 2721 c 1,42,43
 379 2643 379 2643 521 2574.5 c 128,-1,44
 663 2506 663 2506 943 2519 c 1,45,-1
 2264 2557 l 1,46,47
 2323 2557 2323 2557 2358.5 2548 c 128,-1,48
 2394 2539 2394 2539 2422.5 2525 c 128,-1,49
 2451 2511 2451 2511 2471 2497 c 128,-1,50
 2491 2483 2491 2483 2518 2455.5 c 128,-1,51
 2545 2428 2545 2428 2580.5 2385 c 128,-1,52
 2616 2342 2616 2342 2627 2321.5 c 128,-1,53
 2638 2301 2638 2301 2638 2282 c 128,-1,54
 2638 2263 2638 2263 2627 2256.5 c 128,-1,55
 2616 2250 2616 2250 2603 2250 c 128,-1,56
 2590 2250 2590 2250 2575.5 2256.5 c 128,-1,57
 2561 2263 2561 2263 2540.5 2270.5 c 128,-1,58
 2520 2278 2520 2278 2494.5 2286.5 c 128,-1,59
 2469 2295 2469 2295 2448 2299 c 128,-1,60
 2427 2303 2427 2303 2389 2305 c 1,61,-1
 1678 2317 l 1,62,63
 1512 2317 1512 2317 1329.5 2332.5 c 128,-1,64
 1147 2348 1147 2348 985.5 2372.5 c 128,-1,65
 824 2397 824 2397 701.5 2426 c 128,-1,66
 579 2455 579 2455 533 2474 c 1,67,68
 455 2511 455 2511 396 2547 c 128,-1,69
 337 2583 337 2583 244 2709 c 1,28,29
EndSplineSet
EndChar

StartChar: b
Encoding: 98 98 59
Width: 3151
Flags: W
LayerCount: 2
Fore
SplineSet
769 2768 m 1,0,1
 831 2768 831 2768 898 2766 c 128,-1,2
 965 2764 965 2764 1019 2754 c 1,3,4
 1057 2754 1057 2754 1100.5 2623 c 128,-1,5
 1144 2492 1144 2492 1202 2367 c 0,6,7
 1221 2324 1221 2324 1241 2319 c 1,8,9
 1257 2313 1257 2313 1266 2297.5 c 128,-1,10
 1275 2282 1275 2282 1248 2270 c 1,11,12
 1186 2258 1186 2258 1122 2260 c 128,-1,13
 1058 2262 1058 2262 1001 2270 c 1,14,15
 947 2295 947 2295 916.5 2388 c 128,-1,16
 886 2481 886 2481 823 2658 c 1,17,18
 818 2668 818 2668 801 2689.5 c 128,-1,19
 784 2711 784 2711 763 2716 c 1,20,21
 734 2721 734 2721 730.5 2743.5 c 128,-1,22
 727 2766 727 2766 769 2768 c 1,0,1
1263 2768 m 1,23,24
 1324 2768 1324 2768 1391.5 2766 c 128,-1,25
 1459 2764 1459 2764 1513 2754 c 1,26,27
 1551 2754 1551 2754 1594 2623 c 128,-1,28
 1637 2492 1637 2492 1695 2367 c 0,29,30
 1714 2324 1714 2324 1734 2319 c 1,31,32
 1750 2313 1750 2313 1759 2297.5 c 128,-1,33
 1768 2282 1768 2282 1742 2270 c 1,34,35
 1680 2258 1680 2258 1616 2260 c 128,-1,36
 1552 2262 1552 2262 1495 2270 c 1,37,38
 1441 2295 1441 2295 1410.5 2388 c 128,-1,39
 1380 2481 1380 2481 1317 2658 c 1,40,41
 1311 2668 1311 2668 1294 2689.5 c 128,-1,42
 1277 2711 1277 2711 1256 2716 c 1,43,44
 1227 2721 1227 2721 1223.5 2743.5 c 128,-1,45
 1220 2766 1220 2766 1263 2768 c 1,23,24
2962 3744 m 1,46,47
 2995 3738 2995 3738 2991 3710 c 128,-1,48
 2987 3682 2987 3682 2949 3679 c 1,49,50
 2907 3664 2907 3664 2880.5 3570.5 c 128,-1,51
 2854 3477 2854 3477 2824 3373 c 0,52,53
 2755 3129 2755 3129 2697.5 2977.5 c 128,-1,54
 2640 2826 2640 2826 2588.5 2765 c 128,-1,55
 2537 2704 2537 2704 2465 2673 c 0,56,57
 2354 2625 2354 2625 2246.5 2602 c 128,-1,58
 2139 2579 2139 2579 2060 2579 c 1,59,60
 2099 2486 2099 2486 2191 2450.5 c 128,-1,61
 2283 2415 2283 2415 2244 2373 c 1,62,63
 2221 2350 2221 2350 2102 2432.5 c 128,-1,64
 1983 2515 1983 2515 1939 2595 c 1,65,66
 1939 2646 1939 2646 1980.5 2637.5 c 128,-1,67
 2022 2629 2022 2629 2070 2626 c 256,68,69
 2118 2623 2118 2623 2168 2631 c 128,-1,70
 2218 2639 2218 2639 2302 2682 c 0,71,72
 2343 2703 2343 2703 2379.5 2775.5 c 128,-1,73
 2416 2848 2416 2848 2445.5 2936.5 c 128,-1,74
 2475 3025 2475 3025 2495.5 3112 c 128,-1,75
 2516 3199 2516 3199 2549.5 3362.5 c 128,-1,76
 2583 3526 2583 3526 2607 3581.5 c 128,-1,77
 2631 3637 2631 3637 2675 3671.5 c 128,-1,78
 2719 3706 2719 3706 2759 3716 c 128,-1,79
 2799 3726 2799 3726 2848 3731 c 128,-1,80
 2897 3736 2897 3736 2962 3744 c 1,46,47
1795 3942 m 1,81,82
 1824 3938 1824 3938 1820.5 3917 c 128,-1,83
 1817 3896 1817 3896 1783 3894 c 1,84,85
 1746 3882 1746 3882 1723 3813 c 128,-1,86
 1700 3744 1700 3744 1674 3667 c 0,87,88
 1613 3486 1613 3486 1562.5 3373.5 c 128,-1,89
 1512 3261 1512 3261 1467 3216 c 128,-1,90
 1422 3171 1422 3171 1359 3147 c 1,91,92
 1261 3112 1261 3112 1166.5 3094.5 c 128,-1,93
 1072 3077 1072 3077 1004 3077 c 1,94,95
 1037 3009 1037 3009 1118 2982.5 c 128,-1,96
 1199 2956 1199 2956 1165 2925 c 0,97,98
 1145 2908 1145 2908 1040.5 2969.5 c 128,-1,99
 936 3031 936 3031 897 3089 c 1,100,101
 897 3127 897 3127 933.5 3121 c 128,-1,102
 970 3115 970 3115 1012 3112 c 0,103,104
 1054 3110 1054 3110 1098 3116 c 128,-1,105
 1142 3122 1142 3122 1216 3154 c 0,106,107
 1251 3170 1251 3170 1283 3224 c 128,-1,108
 1315 3278 1315 3278 1341 3343.5 c 128,-1,109
 1367 3409 1367 3409 1385.5 3473.5 c 128,-1,110
 1404 3538 1404 3538 1433 3659.5 c 128,-1,111
 1462 3781 1462 3781 1483 3821.5 c 128,-1,112
 1504 3862 1504 3862 1542.5 3888 c 128,-1,113
 1581 3914 1581 3914 1616.5 3921.5 c 128,-1,114
 1652 3929 1652 3929 1694.5 3932.5 c 128,-1,115
 1737 3936 1737 3936 1795 3942 c 1,81,82
176 2020.5 m 128,-1,117
 185 2033 185 2033 197 2034 c 128,-1,118
 209 2035 209 2035 298.5 2031 c 128,-1,119
 388 2027 388 2027 665 2049 c 1,120,-1
 1991 2149 l 2,121,122
 2177 2164 2177 2164 2251.5 2166 c 128,-1,123
 2326 2168 2326 2168 2392 2161.5 c 128,-1,124
 2458 2155 2458 2155 2507 2143 c 128,-1,125
 2556 2131 2556 2131 2624 2111.5 c 128,-1,126
 2692 2092 2692 2092 2753.5 2069 c 128,-1,127
 2815 2046 2815 2046 2868.5 2017 c 128,-1,128
 2922 1988 2922 1988 2934.5 1959.5 c 128,-1,129
 2947 1931 2947 1931 2927 1923.5 c 128,-1,130
 2907 1916 2907 1916 2877 1917.5 c 128,-1,131
 2847 1919 2847 1919 2796 1923 c 128,-1,132
 2745 1927 2745 1927 2695 1930.5 c 128,-1,133
 2645 1934 2645 1934 2550 1933 c 128,-1,134
 2455 1932 2455 1932 2336 1924 c 2,135,-1
 699 1802 l 1,136,137
 599 1800 599 1800 560.5 1803 c 128,-1,138
 522 1806 522 1806 489.5 1812 c 128,-1,139
 457 1818 457 1818 427.5 1829 c 128,-1,140
 398 1840 398 1840 364 1856.5 c 128,-1,141
 330 1873 330 1873 294.5 1895.5 c 128,-1,142
 259 1918 259 1918 222.5 1947 c 128,-1,143
 186 1976 186 1976 176.5 1992 c 128,-1,116
 167 2008 167 2008 176 2020.5 c 128,-1,117
EndSplineSet
EndChar

StartChar: c
Encoding: 99 99 60
Width: 3103
Flags: W
LayerCount: 2
Fore
SplineSet
176 2020.5 m 128,-1,1
 185 2033 185 2033 197 2034 c 128,-1,2
 209 2035 209 2035 298.5 2031 c 128,-1,3
 388 2027 388 2027 665 2049 c 1,4,-1
 1991 2149 l 2,5,6
 2177 2164 2177 2164 2251.5 2166 c 128,-1,7
 2326 2168 2326 2168 2392 2161.5 c 128,-1,8
 2458 2155 2458 2155 2507 2143 c 128,-1,9
 2556 2131 2556 2131 2624 2111.5 c 128,-1,10
 2692 2092 2692 2092 2753.5 2069 c 128,-1,11
 2815 2046 2815 2046 2868.5 2017 c 128,-1,12
 2922 1988 2922 1988 2934.5 1959.5 c 128,-1,13
 2947 1931 2947 1931 2927 1923.5 c 128,-1,14
 2907 1916 2907 1916 2877 1917.5 c 128,-1,15
 2847 1919 2847 1919 2796 1923 c 128,-1,16
 2745 1927 2745 1927 2695 1930.5 c 128,-1,17
 2645 1934 2645 1934 2550 1933 c 128,-1,18
 2455 1932 2455 1932 2336 1924 c 2,19,-1
 699 1802 l 1,20,21
 599 1800 599 1800 560.5 1803 c 128,-1,22
 522 1806 522 1806 489.5 1812 c 128,-1,23
 457 1818 457 1818 427.5 1829 c 128,-1,24
 398 1840 398 1840 364 1856.5 c 128,-1,25
 330 1873 330 1873 294.5 1895.5 c 128,-1,26
 259 1918 259 1918 222.5 1947 c 128,-1,27
 186 1976 186 1976 176.5 1992 c 128,-1,0
 167 2008 167 2008 176 2020.5 c 128,-1,1
1694 1725 m 1,28,29
 1755 1725 1755 1725 1822.5 1723 c 128,-1,30
 1890 1721 1890 1721 1944 1711 c 1,31,32
 1982 1711 1982 1711 2025 1580.5 c 128,-1,33
 2068 1450 2068 1450 2126 1324 c 1,34,35
 2144 1282 2144 1282 2165 1276 c 1,36,37
 2181 1270 2181 1270 2190 1255 c 128,-1,38
 2199 1240 2199 1240 2173 1228 c 1,39,40
 2110 1216 2110 1216 2046.5 1217.5 c 128,-1,41
 1983 1219 1983 1219 1926 1228 c 1,42,43
 1871 1253 1871 1253 1841 1345.5 c 128,-1,44
 1811 1438 1811 1438 1748 1616 c 1,45,46
 1742 1626 1742 1626 1725.5 1647 c 128,-1,47
 1709 1668 1709 1668 1687 1673 c 0,48,49
 1657 1679 1657 1679 1654 1701.5 c 128,-1,50
 1651 1724 1651 1724 1694 1725 c 1,28,29
2247 1725 m 1,51,52
 2308 1725 2308 1725 2375.5 1723 c 128,-1,53
 2443 1721 2443 1721 2497 1711 c 1,54,55
 2535 1711 2535 1711 2578 1580.5 c 128,-1,56
 2621 1450 2621 1450 2680 1324 c 1,57,58
 2698 1282 2698 1282 2719 1276 c 1,59,60
 2735 1270 2735 1270 2744 1255 c 128,-1,61
 2753 1240 2753 1240 2726 1228 c 1,62,63
 2664 1216 2664 1216 2600 1217.5 c 128,-1,64
 2536 1219 2536 1219 2479 1228 c 1,65,66
 2425 1253 2425 1253 2394.5 1345.5 c 128,-1,67
 2364 1438 2364 1438 2301 1616 c 1,68,69
 2295 1626 2295 1626 2278.5 1647 c 128,-1,70
 2262 1668 2262 1668 2240 1673 c 0,71,72
 2211 1679 2211 1679 2207.5 1701.5 c 128,-1,73
 2204 1724 2204 1724 2247 1725 c 1,51,52
EndSplineSet
EndChar

StartChar: d
Encoding: 100 100 61
Width: 3103
Flags: W
LayerCount: 2
Fore
SplineSet
176 2020.5 m 128,-1,1
 185 2033 185 2033 197 2034 c 128,-1,2
 209 2035 209 2035 298.5 2031 c 128,-1,3
 388 2027 388 2027 665 2049 c 1,4,-1
 1991 2149 l 2,5,6
 2177 2164 2177 2164 2251.5 2166 c 128,-1,7
 2326 2168 2326 2168 2392 2161.5 c 128,-1,8
 2458 2155 2458 2155 2507 2143 c 128,-1,9
 2556 2131 2556 2131 2624 2111.5 c 128,-1,10
 2692 2092 2692 2092 2753.5 2069 c 128,-1,11
 2815 2046 2815 2046 2868.5 2017 c 128,-1,12
 2922 1988 2922 1988 2934.5 1959.5 c 128,-1,13
 2947 1931 2947 1931 2927 1923.5 c 128,-1,14
 2907 1916 2907 1916 2877 1917.5 c 128,-1,15
 2847 1919 2847 1919 2796 1923 c 128,-1,16
 2745 1927 2745 1927 2695 1930.5 c 128,-1,17
 2645 1934 2645 1934 2550 1933 c 128,-1,18
 2455 1932 2455 1932 2336 1924 c 2,19,-1
 699 1802 l 1,20,21
 599 1800 599 1800 560.5 1803 c 128,-1,22
 522 1806 522 1806 489.5 1812 c 128,-1,23
 457 1818 457 1818 427.5 1829 c 128,-1,24
 398 1840 398 1840 364 1856.5 c 128,-1,25
 330 1873 330 1873 294.5 1895.5 c 128,-1,26
 259 1918 259 1918 222.5 1947 c 128,-1,27
 186 1976 186 1976 176.5 1992 c 128,-1,0
 167 2008 167 2008 176 2020.5 c 128,-1,1
1772 1711 m 1,28,29
 1842 1711 1842 1711 1919 1709.5 c 128,-1,30
 1996 1708 1996 1708 2058 1700 c 1,31,32
 2101 1700 2101 1700 2140 1595 c 128,-1,33
 2179 1490 2179 1490 2250 1386 c 0,34,35
 2275 1350 2275 1350 2295 1346 c 1,36,37
 2313 1341 2313 1341 2323.5 1328.5 c 128,-1,38
 2334 1316 2334 1316 2304 1307 c 1,39,40
 2232 1296 2232 1296 2159.5 1298 c 128,-1,41
 2087 1300 2087 1300 2021 1307 c 1,42,43
 1959 1327 1959 1327 1932.5 1401.5 c 128,-1,44
 1906 1476 1906 1476 1834 1621 c 1,45,46
 1811 1655 1811 1655 1765 1662 c 0,47,48
 1732 1667 1732 1667 1727.5 1688.5 c 128,-1,49
 1723 1710 1723 1710 1772 1711 c 1,28,29
EndSplineSet
EndChar

StartChar: e
Encoding: 101 101 62
Width: 0
Flags: W
LayerCount: 2
Fore
SplineSet
35 1940 m 1,0,1
 37 1940 37 1940 37 1938 c 256,2,3
 37 1936 37 1936 35 1936 c 1,4,5
 35 1936 35 1936 34.5 1936.5 c 128,-1,6
 34 1937 34 1937 34 1938 c 2,7,8
 34 1938 34 1938 34.5 1939 c 128,-1,9
 35 1940 35 1940 35 1940 c 1,0,1
-1626 2973 m 1,10,11
 -1475 2974 -1475 2974 -1322.5 2974.5 c 128,-1,12
 -1170 2975 -1170 2975 -1020 2978 c 1,13,14
 -1009 2964 -1009 2964 -1011.5 2941 c 128,-1,15
 -1014 2918 -1014 2918 -1019 2903 c 1,16,17
 -1049 2896 -1049 2896 -1220 2896 c 128,-1,18
 -1391 2896 -1391 2896 -1517 2896 c 1,19,20
 -1517 2791 -1517 2791 -1512.5 2657.5 c 128,-1,21
 -1508 2524 -1508 2524 -1520 2524 c 0,22,23
 -1551 2524 -1551 2524 -1586.5 2519.5 c 128,-1,24
 -1622 2515 -1622 2515 -1648 2524 c 1,25,26
 -1652 2524 -1652 2524 -1652 2544 c 0,27,28
 -1652 2545 -1652 2545 -1650 2546 c 128,-1,29
 -1648 2547 -1648 2547 -1648 2548 c 0,30,31
 -1648 2656 -1648 2656 -1647 2744.5 c 128,-1,32
 -1646 2833 -1646 2833 -1646 2942 c 0,33,34
 -1646 2969 -1646 2969 -1626 2973 c 1,10,11
35 1940 m 1,35,36
 37 1940 37 1940 37 1938 c 256,37,38
 37 1936 37 1936 35 1936 c 1,39,40
 35 1936 35 1936 34.5 1936.5 c 128,-1,41
 34 1937 34 1937 34 1938 c 2,42,43
 34 1938 34 1938 34.5 1939 c 128,-1,44
 35 1940 35 1940 35 1940 c 1,35,36
EndSplineSet
EndChar

StartChar: f
Encoding: 102 102 63
Width: 3103
Flags: W
LayerCount: 2
Fore
SplineSet
176 2020.5 m 128,-1,1
 185 2033 185 2033 197 2034 c 128,-1,2
 209 2035 209 2035 298.5 2031 c 128,-1,3
 388 2027 388 2027 665 2049 c 1,4,-1
 1991 2149 l 2,5,6
 2177 2164 2177 2164 2251.5 2166 c 128,-1,7
 2326 2168 2326 2168 2392 2161.5 c 128,-1,8
 2458 2155 2458 2155 2507 2143 c 128,-1,9
 2556 2131 2556 2131 2624 2111.5 c 128,-1,10
 2692 2092 2692 2092 2753.5 2069 c 128,-1,11
 2815 2046 2815 2046 2868.5 2017 c 128,-1,12
 2922 1988 2922 1988 2934.5 1959.5 c 128,-1,13
 2947 1931 2947 1931 2927 1923.5 c 128,-1,14
 2907 1916 2907 1916 2877 1917.5 c 128,-1,15
 2847 1919 2847 1919 2796 1923 c 128,-1,16
 2745 1927 2745 1927 2695 1930.5 c 128,-1,17
 2645 1934 2645 1934 2550 1933 c 128,-1,18
 2455 1932 2455 1932 2336 1924 c 2,19,-1
 699 1802 l 1,20,21
 599 1800 599 1800 560.5 1803 c 128,-1,22
 522 1806 522 1806 489.5 1812 c 128,-1,23
 457 1818 457 1818 427.5 1829 c 128,-1,24
 398 1840 398 1840 364 1856.5 c 128,-1,25
 330 1873 330 1873 294.5 1895.5 c 128,-1,26
 259 1918 259 1918 222.5 1947 c 128,-1,27
 186 1976 186 1976 176.5 1992 c 128,-1,0
 167 2008 167 2008 176 2020.5 c 128,-1,1
1219 2946 m 1,28,29
 1289 2946 1289 2946 1366 2944 c 128,-1,30
 1443 2942 1443 2942 1505 2932 c 1,31,32
 1548 2932 1548 2932 1600 2763 c 128,-1,33
 1652 2594 1652 2594 1724 2466 c 0,34,35
 1748 2423 1748 2423 1769 2418 c 1,36,37
 1788 2412 1788 2412 1797.5 2396.5 c 128,-1,38
 1807 2381 1807 2381 1777 2369 c 1,39,40
 1706 2357 1706 2357 1633.5 2359 c 128,-1,41
 1561 2361 1561 2361 1495 2369 c 1,42,43
 1433 2394 1433 2394 1393 2526.5 c 128,-1,44
 1353 2659 1353 2659 1281 2837 c 1,45,46
 1275 2847 1275 2847 1256 2864 c 128,-1,47
 1237 2881 1237 2881 1212 2887 c 1,48,49
 1179 2893 1179 2893 1174.5 2919 c 128,-1,50
 1170 2945 1170 2945 1219 2946 c 1,28,29
EndSplineSet
EndChar

StartChar: g
Encoding: 103 103 64
Width: 3103
Flags: W
LayerCount: 2
Fore
SplineSet
176 2020.5 m 128,-1,1
 185 2033 185 2033 197 2034 c 128,-1,2
 209 2035 209 2035 298.5 2031 c 128,-1,3
 388 2027 388 2027 665 2049 c 1,4,-1
 1991 2149 l 2,5,6
 2177 2164 2177 2164 2251.5 2166 c 128,-1,7
 2326 2168 2326 2168 2392 2161.5 c 128,-1,8
 2458 2155 2458 2155 2507 2143 c 128,-1,9
 2556 2131 2556 2131 2624 2111.5 c 128,-1,10
 2692 2092 2692 2092 2753.5 2069 c 128,-1,11
 2815 2046 2815 2046 2868.5 2017 c 128,-1,12
 2922 1988 2922 1988 2934.5 1959.5 c 128,-1,13
 2947 1931 2947 1931 2927 1923.5 c 128,-1,14
 2907 1916 2907 1916 2877 1917.5 c 128,-1,15
 2847 1919 2847 1919 2796 1923 c 128,-1,16
 2745 1927 2745 1927 2695 1930.5 c 128,-1,17
 2645 1934 2645 1934 2550 1933 c 128,-1,18
 2455 1932 2455 1932 2336 1924 c 2,19,-1
 699 1802 l 1,20,21
 599 1800 599 1800 560.5 1803 c 128,-1,22
 522 1806 522 1806 489.5 1812 c 128,-1,23
 457 1818 457 1818 427.5 1829 c 128,-1,24
 398 1840 398 1840 364 1856.5 c 128,-1,25
 330 1873 330 1873 294.5 1895.5 c 128,-1,26
 259 1918 259 1918 222.5 1947 c 128,-1,27
 186 1976 186 1976 176.5 1992 c 128,-1,0
 167 2008 167 2008 176 2020.5 c 128,-1,1
2927 3724 m 1,28,29
 2960 3718 2960 3718 2956 3690 c 128,-1,30
 2952 3662 2952 3662 2914 3659 c 1,31,32
 2872 3644 2872 3644 2845.5 3550.5 c 128,-1,33
 2819 3457 2819 3457 2789 3353 c 0,34,35
 2720 3109 2720 3109 2662.5 2957.5 c 128,-1,36
 2605 2806 2605 2806 2553.5 2745 c 128,-1,37
 2502 2684 2502 2684 2430 2653 c 0,38,39
 2319 2605 2319 2605 2211.5 2582 c 128,-1,40
 2104 2559 2104 2559 2025 2559 c 1,41,42
 2064 2466 2064 2466 2156 2430.5 c 128,-1,43
 2248 2395 2248 2395 2209 2353 c 1,44,45
 2186 2330 2186 2330 2067 2412.5 c 128,-1,46
 1948 2495 1948 2495 1904 2575 c 1,47,48
 1904 2626 1904 2626 1945.5 2617.5 c 128,-1,49
 1987 2609 1987 2609 2035 2606 c 256,50,51
 2083 2603 2083 2603 2133 2611 c 128,-1,52
 2183 2619 2183 2619 2267 2662 c 0,53,54
 2308 2683 2308 2683 2344.5 2755.5 c 128,-1,55
 2381 2828 2381 2828 2410.5 2916.5 c 128,-1,56
 2440 3005 2440 3005 2460.5 3092 c 128,-1,57
 2481 3179 2481 3179 2514.5 3342.5 c 128,-1,58
 2548 3506 2548 3506 2572 3561.5 c 128,-1,59
 2596 3617 2596 3617 2640 3651.5 c 128,-1,60
 2684 3686 2684 3686 2724 3696 c 128,-1,61
 2764 3706 2764 3706 2813 3711 c 128,-1,62
 2862 3716 2862 3716 2927 3724 c 1,28,29
EndSplineSet
EndChar

StartChar: h
Encoding: 104 104 65
Width: 3299
Flags: W
LayerCount: 2
Fore
SplineSet
603 2278 m 1,0,1
 583 2293 583 2293 600.5 2306.5 c 128,-1,2
 618 2320 618 2320 644 2320 c 0,3,4
 673 2320 673 2320 724 2371.5 c 128,-1,5
 775 2423 775 2423 792 2499 c 1,6,7
 818 2627 818 2627 658 2708 c 0,8,9
 538 2768 538 2768 332.5 2800 c 128,-1,10
 127 2832 127 2832 104 2841 c 256,11,12
 81 2850 81 2850 87 2866.5 c 128,-1,13
 93 2883 93 2883 111 2883 c 0,14,15
 130 2882 130 2882 339 2852.5 c 128,-1,16
 548 2823 548 2823 720 2757 c 0,17,18
 822 2717 822 2717 884 2676 c 128,-1,19
 946 2635 946 2635 998 2567 c 1,20,21
 1049 2498 1049 2498 1040.5 2429.5 c 128,-1,22
 1032 2361 1032 2361 981 2324 c 0,23,24
 934 2289 934 2289 873.5 2277 c 128,-1,25
 813 2265 813 2265 758 2265 c 0,26,27
 702 2265 702 2265 680 2265 c 128,-1,28
 658 2265 658 2265 603 2278 c 1,0,1
1603 2284 m 1,29,30
 1533 2258 1533 2258 1368 2287 c 1,31,32
 1271 2311 1271 2311 1196.5 2351.5 c 128,-1,33
 1122 2392 1122 2392 1082 2493 c 1,34,35
 1055 2590 1055 2590 1064 2647.5 c 128,-1,36
 1073 2705 1073 2705 1128 2781 c 1,37,38
 1181 2845 1181 2845 1251.5 2878 c 128,-1,39
 1322 2911 1322 2911 1425 2932 c 0,40,41
 1527 2952 1527 2952 1591 2951.5 c 128,-1,42
 1655 2951 1655 2951 1729 2948 c 256,43,44
 1803 2945 1803 2945 1866 2936.5 c 128,-1,45
 1929 2928 1929 2928 2018 2900 c 1,46,47
 2167 2859 2167 2859 2311 2788 c 0,48,49
 2393 2748 2393 2748 2483.5 2701.5 c 128,-1,50
 2574 2655 2574 2655 2686 2592 c 1,51,52
 2738 2561 2738 2561 2798 2525.5 c 128,-1,53
 2858 2490 2858 2490 2929 2453 c 1,54,55
 2982 2420 2982 2420 3033.5 2386.5 c 128,-1,56
 3085 2353 3085 2353 3077 2319 c 128,-1,57
 3069 2285 3069 2285 3038 2287 c 128,-1,58
 3007 2289 3007 2289 2842 2285.5 c 128,-1,59
 2677 2282 2677 2282 2553 2284 c 1,60,61
 2504 2320 2504 2320 2554.5 2336 c 128,-1,62
 2605 2352 2605 2352 2629 2376 c 0,63,64
 2675 2424 2675 2424 2670 2451.5 c 128,-1,65
 2665 2479 2665 2479 2655.5 2494.5 c 128,-1,66
 2646 2510 2646 2510 2625.5 2528 c 128,-1,67
 2605 2546 2605 2546 2525.5 2600.5 c 128,-1,68
 2446 2655 2446 2655 2328 2716 c 1,69,70
 2223 2763 2223 2763 2162 2792 c 128,-1,71
 2101 2821 2101 2821 1965 2857 c 1,72,73
 1864 2877 1864 2877 1760 2881.5 c 128,-1,74
 1656 2886 1656 2886 1549 2851 c 1,75,76
 1474 2818 1474 2818 1443 2794.5 c 128,-1,77
 1412 2771 1412 2771 1375 2714 c 1,78,79
 1342 2659 1342 2659 1337 2621 c 128,-1,80
 1332 2583 1332 2583 1335 2533 c 0,81,82
 1338 2482 1338 2482 1348 2459 c 128,-1,83
 1358 2436 1358 2436 1374 2412.5 c 128,-1,84
 1390 2389 1390 2389 1414.5 2370 c 128,-1,85
 1439 2351 1439 2351 1490 2342.5 c 128,-1,86
 1541 2334 1541 2334 1591 2329 c 1,87,88
 1612 2325 1612 2325 1618 2311 c 128,-1,89
 1624 2297 1624 2297 1603 2284 c 1,29,30
176.5 2020.5 m 128,-1,91
 186 2033 186 2033 199.5 2034 c 128,-1,92
 213 2035 213 2035 310.5 2031 c 128,-1,93
 408 2027 408 2027 711 2049 c 1,94,-1
 2160 2149 l 2,95,96
 2364 2164 2364 2164 2445 2166 c 128,-1,97
 2526 2168 2526 2168 2598.5 2161.5 c 128,-1,98
 2671 2155 2671 2155 2725 2143 c 128,-1,99
 2779 2131 2779 2131 2853 2111.5 c 128,-1,100
 2927 2092 2927 2092 2994.5 2069 c 128,-1,101
 3062 2046 3062 2046 3120 2017 c 128,-1,102
 3178 1988 3178 1988 3192 1959.5 c 128,-1,103
 3206 1931 3206 1931 3184 1923.5 c 128,-1,104
 3162 1916 3162 1916 3129 1917.5 c 128,-1,105
 3096 1919 3096 1919 3040.5 1923 c 128,-1,106
 2985 1927 2985 1927 2930.5 1930.5 c 128,-1,107
 2876 1934 2876 1934 2771.5 1933 c 128,-1,108
 2667 1932 2667 1932 2537 1924 c 2,109,-1
 748 1802 l 1,110,111
 639 1800 639 1800 597 1803 c 128,-1,112
 555 1806 555 1806 519.5 1812 c 128,-1,113
 484 1818 484 1818 451.5 1829 c 128,-1,114
 419 1840 419 1840 382 1856.5 c 128,-1,115
 345 1873 345 1873 306 1895.5 c 128,-1,116
 267 1918 267 1918 227.5 1947 c 128,-1,117
 188 1976 188 1976 177.5 1992 c 128,-1,90
 167 2008 167 2008 176.5 2020.5 c 128,-1,91
EndSplineSet
EndChar

StartChar: i
Encoding: 105 105 66
Width: 0
Flags: W
LayerCount: 2
Fore
SplineSet
28 1970 m 0,0,1
 30 1970 30 1970 30 1967 c 0,2,3
 30 1965 30 1965 28 1965 c 0,4,5
 25 1965 25 1965 25 1967 c 0,6,7
 25 1970 25 1970 28 1970 c 0,0,1
-1168.5 2855 m 128,-1,9
 -1219 2869 -1219 2869 -1189.5 2836 c 128,-1,10
 -1160 2803 -1160 2803 -1132 2783 c 128,-1,11
 -1104 2763 -1104 2763 -518 2509 c 1,12,13
 -486 2494 -486 2494 -469 2518 c 1,14,-1
 -254 2761 l 1,15,16
 -211 2815 -211 2815 -260 2847 c 1,17,-1
 -346 2897 l 2,18,19
 -404 2930 -404 2930 -434 2891 c 1,20,-1
 -639 2647 l 1,21,22
 -1009 2802 -1009 2802 -1063.5 2821.5 c 128,-1,8
 -1118 2841 -1118 2841 -1168.5 2855 c 128,-1,9
EndSplineSet
EndChar

StartChar: j
Encoding: 106 106 67
Width: 3103
Flags: W
LayerCount: 2
Fore
SplineSet
176 2020.5 m 128,-1,1
 185 2033 185 2033 197 2034 c 128,-1,2
 209 2035 209 2035 298.5 2031 c 128,-1,3
 388 2027 388 2027 665 2049 c 1,4,-1
 1991 2149 l 2,5,6
 2177 2164 2177 2164 2251.5 2166 c 128,-1,7
 2326 2168 2326 2168 2392 2161.5 c 128,-1,8
 2458 2155 2458 2155 2507 2143 c 128,-1,9
 2556 2131 2556 2131 2624 2111.5 c 128,-1,10
 2692 2092 2692 2092 2753.5 2069 c 128,-1,11
 2815 2046 2815 2046 2868.5 2017 c 128,-1,12
 2922 1988 2922 1988 2934.5 1959.5 c 128,-1,13
 2947 1931 2947 1931 2927 1923.5 c 128,-1,14
 2907 1916 2907 1916 2877 1917.5 c 128,-1,15
 2847 1919 2847 1919 2796 1923 c 128,-1,16
 2745 1927 2745 1927 2695 1930.5 c 128,-1,17
 2645 1934 2645 1934 2550 1933 c 128,-1,18
 2455 1932 2455 1932 2336 1924 c 2,19,-1
 699 1802 l 1,20,21
 599 1800 599 1800 560.5 1803 c 128,-1,22
 522 1806 522 1806 489.5 1812 c 128,-1,23
 457 1818 457 1818 427.5 1829 c 128,-1,24
 398 1840 398 1840 364 1856.5 c 128,-1,25
 330 1873 330 1873 294.5 1895.5 c 128,-1,26
 259 1918 259 1918 222.5 1947 c 128,-1,27
 186 1976 186 1976 176.5 1992 c 128,-1,0
 167 2008 167 2008 176 2020.5 c 128,-1,1
1417 2315 m 1,28,29
 1393 2333 1393 2333 1413.5 2348.5 c 128,-1,30
 1434 2364 1434 2364 1464 2364 c 0,31,32
 1497 2364 1497 2364 1557.5 2424 c 128,-1,33
 1618 2484 1618 2484 1637 2573 c 0,34,35
 1668 2723 1668 2723 1480 2818 c 1,36,37
 1409 2852 1409 2852 1300 2879.5 c 128,-1,38
 1191 2907 1191 2907 1085 2927.5 c 128,-1,39
 979 2948 979 2948 897.5 2960.5 c 128,-1,40
 816 2973 816 2973 802 2979 c 0,41,42
 774 2990 774 2990 780 3009 c 128,-1,43
 786 3028 786 3028 810 3028 c 1,44,45
 822 3027 822 3027 901.5 3018 c 128,-1,46
 981 3009 981 3009 1092.5 2990.5 c 128,-1,47
 1204 2972 1204 2972 1328 2943 c 128,-1,48
 1452 2914 1452 2914 1553 2875 c 1,49,50
 1673 2827 1673 2827 1745 2779.5 c 128,-1,51
 1817 2732 1817 2732 1877 2653 c 1,52,53
 1937 2572 1937 2572 1927.5 2492 c 128,-1,54
 1918 2412 1918 2412 1858 2368 c 0,55,56
 1803 2327 1803 2327 1732 2313 c 128,-1,57
 1661 2299 1661 2299 1597 2299 c 0,58,59
 1532 2299 1532 2299 1506.5 2299.5 c 128,-1,60
 1481 2300 1481 2300 1417 2315 c 1,28,29
EndSplineSet
EndChar

StartChar: k
Encoding: 107 107 68
Width: 3095
Flags: W
LayerCount: 2
Fore
SplineSet
176 2020.5 m 128,-1,1
 185 2033 185 2033 197 2034 c 128,-1,2
 209 2035 209 2035 298.5 2031 c 128,-1,3
 388 2027 388 2027 665 2049 c 1,4,-1
 1991 2149 l 2,5,6
 2177 2164 2177 2164 2251.5 2166 c 128,-1,7
 2326 2168 2326 2168 2392 2161.5 c 128,-1,8
 2458 2155 2458 2155 2507 2143 c 128,-1,9
 2556 2131 2556 2131 2624 2111.5 c 128,-1,10
 2692 2092 2692 2092 2753.5 2069 c 128,-1,11
 2815 2046 2815 2046 2868.5 2017 c 128,-1,12
 2922 1988 2922 1988 2934.5 1959.5 c 128,-1,13
 2947 1931 2947 1931 2927 1923.5 c 128,-1,14
 2907 1916 2907 1916 2877 1917.5 c 128,-1,15
 2847 1919 2847 1919 2796 1923 c 128,-1,16
 2745 1927 2745 1927 2695 1930.5 c 128,-1,17
 2645 1934 2645 1934 2550 1933 c 128,-1,18
 2455 1932 2455 1932 2336 1924 c 2,19,-1
 699 1802 l 1,20,21
 599 1800 599 1800 560.5 1803 c 128,-1,22
 522 1806 522 1806 489.5 1812 c 128,-1,23
 457 1818 457 1818 427.5 1829 c 128,-1,24
 398 1840 398 1840 364 1856.5 c 128,-1,25
 330 1873 330 1873 294.5 1895.5 c 128,-1,26
 259 1918 259 1918 222.5 1947 c 128,-1,27
 186 1976 186 1976 176.5 1992 c 128,-1,0
 167 2008 167 2008 176 2020.5 c 128,-1,1
891 2369 m 1,28,29
 813 2340 813 2340 628 2372 c 1,30,31
 520 2399 520 2399 436.5 2444 c 128,-1,32
 353 2489 353 2489 308 2602 c 1,33,34
 278 2711 278 2711 288 2775.5 c 128,-1,35
 298 2840 298 2840 360 2925 c 1,36,37
 419 2996 419 2996 498 3033 c 128,-1,38
 577 3070 577 3070 692 3094 c 1,39,40
 806 3116 806 3116 878 3115.5 c 128,-1,41
 950 3115 950 3115 1033 3112 c 1,42,43
 1115 3108 1115 3108 1185.5 3098.5 c 128,-1,44
 1256 3089 1256 3089 1356 3058 c 1,45,46
 1522 3012 1522 3012 1684 2933 c 0,47,48
 1775 2888 1775 2888 1876.5 2836 c 128,-1,49
 1978 2784 1978 2784 2103 2713 c 1,50,51
 2161 2678 2161 2678 2228.5 2638.5 c 128,-1,52
 2296 2599 2296 2599 2375 2558 c 1,53,54
 2435 2521 2435 2521 2492.5 2483.5 c 128,-1,55
 2550 2446 2550 2446 2541 2408 c 128,-1,56
 2532 2370 2532 2370 2497 2372 c 128,-1,57
 2462 2374 2462 2374 2277.5 2370 c 128,-1,58
 2093 2366 2093 2366 1955 2369 c 1,59,60
 1900 2409 1900 2409 1956.5 2427 c 128,-1,61
 2013 2445 2013 2445 2040 2472 c 0,62,63
 2091 2525 2091 2525 2085.5 2556 c 128,-1,64
 2080 2587 2080 2587 2069 2604.5 c 128,-1,65
 2058 2622 2058 2622 2035.5 2642 c 128,-1,66
 2013 2662 2013 2662 1924 2723 c 128,-1,67
 1835 2784 1835 2784 1703 2852 c 1,68,69
 1585 2904 1585 2904 1517 2936.5 c 128,-1,70
 1449 2969 1449 2969 1297 3010 c 1,71,72
 1184 3032 1184 3032 1067.5 3037 c 128,-1,73
 951 3042 951 3042 831 3003 c 1,74,75
 747 2966 747 2966 712.5 2940 c 128,-1,76
 678 2914 678 2914 636 2850 c 1,77,78
 599 2788 599 2788 593.5 2745.5 c 128,-1,79
 588 2703 588 2703 592 2647 c 1,80,81
 595 2590 595 2590 606 2564.5 c 128,-1,82
 617 2539 617 2539 635 2512.5 c 128,-1,83
 653 2486 653 2486 680.5 2464.5 c 128,-1,84
 708 2443 708 2443 765 2434 c 128,-1,85
 822 2425 822 2425 878 2419 c 1,86,87
 902 2414 902 2414 908.5 2398.5 c 128,-1,88
 915 2383 915 2383 891 2369 c 1,28,29
EndSplineSet
EndChar

StartChar: l
Encoding: 108 108 69
Width: 3103
Flags: W
LayerCount: 2
Fore
SplineSet
176 2020.5 m 128,-1,1
 185 2033 185 2033 197 2034 c 128,-1,2
 209 2035 209 2035 298.5 2031 c 128,-1,3
 388 2027 388 2027 665 2049 c 1,4,-1
 1991 2149 l 2,5,6
 2177 2164 2177 2164 2251.5 2166 c 128,-1,7
 2326 2168 2326 2168 2392 2161.5 c 128,-1,8
 2458 2155 2458 2155 2507 2143 c 128,-1,9
 2556 2131 2556 2131 2624 2111.5 c 128,-1,10
 2692 2092 2692 2092 2753.5 2069 c 128,-1,11
 2815 2046 2815 2046 2868.5 2017 c 128,-1,12
 2922 1988 2922 1988 2934.5 1959.5 c 128,-1,13
 2947 1931 2947 1931 2927 1923.5 c 128,-1,14
 2907 1916 2907 1916 2877 1917.5 c 128,-1,15
 2847 1919 2847 1919 2796 1923 c 128,-1,16
 2745 1927 2745 1927 2695 1930.5 c 128,-1,17
 2645 1934 2645 1934 2550 1933 c 128,-1,18
 2455 1932 2455 1932 2336 1924 c 2,19,-1
 699 1802 l 1,20,21
 599 1800 599 1800 560.5 1803 c 128,-1,22
 522 1806 522 1806 489.5 1812 c 128,-1,23
 457 1818 457 1818 427.5 1829 c 128,-1,24
 398 1840 398 1840 364 1856.5 c 128,-1,25
 330 1873 330 1873 294.5 1895.5 c 128,-1,26
 259 1918 259 1918 222.5 1947 c 128,-1,27
 186 1976 186 1976 176.5 1992 c 128,-1,0
 167 2008 167 2008 176 2020.5 c 128,-1,1
891 2369 m 1,28,29
 813 2340 813 2340 628 2372 c 1,30,31
 520 2399 520 2399 436.5 2444 c 128,-1,32
 353 2489 353 2489 308 2602 c 1,33,34
 278 2711 278 2711 288 2775.5 c 128,-1,35
 298 2840 298 2840 360 2925 c 1,36,37
 419 2996 419 2996 498 3033 c 128,-1,38
 577 3070 577 3070 692 3094 c 1,39,40
 806 3116 806 3116 878 3115.5 c 128,-1,41
 950 3115 950 3115 1033 3112 c 1,42,43
 1115 3108 1115 3108 1185.5 3098.5 c 128,-1,44
 1256 3089 1256 3089 1356 3058 c 1,45,46
 1522 3012 1522 3012 1684 2933 c 0,47,48
 1775 2888 1775 2888 1876.5 2836 c 128,-1,49
 1978 2784 1978 2784 2103 2713 c 1,50,51
 2161 2678 2161 2678 2228.5 2638.5 c 128,-1,52
 2296 2599 2296 2599 2375 2558 c 1,53,54
 2435 2521 2435 2521 2492.5 2483.5 c 128,-1,55
 2550 2446 2550 2446 2541 2408 c 128,-1,56
 2532 2370 2532 2370 2497 2372 c 128,-1,57
 2462 2374 2462 2374 2277.5 2370 c 128,-1,58
 2093 2366 2093 2366 1955 2369 c 1,59,60
 1900 2409 1900 2409 1956.5 2427 c 128,-1,61
 2013 2445 2013 2445 2040 2472 c 0,62,63
 2091 2525 2091 2525 2085.5 2556 c 128,-1,64
 2080 2587 2080 2587 2069 2604.5 c 128,-1,65
 2058 2622 2058 2622 2035.5 2642 c 128,-1,66
 2013 2662 2013 2662 1924 2723 c 128,-1,67
 1835 2784 1835 2784 1703 2852 c 1,68,69
 1585 2904 1585 2904 1517 2936.5 c 128,-1,70
 1449 2969 1449 2969 1297 3010 c 1,71,72
 1184 3032 1184 3032 1067.5 3037 c 128,-1,73
 951 3042 951 3042 831 3003 c 1,74,75
 747 2966 747 2966 712.5 2940 c 128,-1,76
 678 2914 678 2914 636 2850 c 1,77,78
 599 2788 599 2788 593.5 2745.5 c 128,-1,79
 588 2703 588 2703 592 2647 c 1,80,81
 595 2590 595 2590 606 2564.5 c 128,-1,82
 617 2539 617 2539 635 2512.5 c 128,-1,83
 653 2486 653 2486 680.5 2464.5 c 128,-1,84
 708 2443 708 2443 765 2434 c 128,-1,85
 822 2425 822 2425 878 2419 c 1,86,87
 902 2414 902 2414 908.5 2398.5 c 128,-1,88
 915 2383 915 2383 891 2369 c 1,28,29
1314 2262 m 1,89,90
 1295 2277 1295 2277 1311.5 2290 c 128,-1,91
 1328 2303 1328 2303 1353 2303 c 0,92,93
 1380 2303 1380 2303 1430 2352.5 c 128,-1,94
 1480 2402 1480 2402 1496 2475 c 0,95,96
 1522 2599 1522 2599 1366 2678 c 1,97,98
 1308 2706 1308 2706 1218 2728.5 c 128,-1,99
 1128 2751 1128 2751 1040.5 2768 c 128,-1,100
 953 2785 953 2785 885.5 2795.5 c 128,-1,101
 818 2806 818 2806 807 2811 c 0,102,103
 784 2820 784 2820 789 2835.5 c 128,-1,104
 794 2851 794 2851 813 2851 c 1,105,106
 823 2850 823 2850 889 2842.5 c 128,-1,107
 955 2835 955 2835 1047 2820 c 128,-1,108
 1139 2805 1139 2805 1241 2781 c 128,-1,109
 1343 2757 1343 2757 1427 2725 c 1,110,111
 1526 2685 1526 2685 1585.5 2646 c 128,-1,112
 1645 2607 1645 2607 1694 2541 c 0,113,114
 1744 2474 1744 2474 1736 2408 c 128,-1,115
 1728 2342 1728 2342 1678 2306 c 1,116,117
 1633 2272 1633 2272 1574.5 2260.5 c 128,-1,118
 1516 2249 1516 2249 1463 2249 c 0,119,120
 1409 2249 1409 2249 1388 2249.5 c 128,-1,121
 1367 2250 1367 2250 1314 2262 c 1,89,90
EndSplineSet
EndChar

StartChar: m
Encoding: 109 109 70
Width: 0
Flags: W
LayerCount: 2
Fore
SplineSet
-2127 1623 m 1,0,1
 -1820 1638 -1820 1638 -1404 1659.5 c 128,-1,2
 -988 1681 -988 1681 -682 1672 c 0,3,4
 -416 1665 -416 1665 -170.5 1640 c 128,-1,5
 75 1615 75 1615 204 1586 c 0,6,7
 336 1556 336 1556 445.5 1485 c 128,-1,8
 555 1414 555 1414 571 1342 c 256,9,10
 587 1270 587 1270 573 1221 c 128,-1,11
 559 1172 559 1172 413 1107 c 1,12,13
 310 1085 310 1085 196.5 1077.5 c 128,-1,14
 83 1070 83 1070 -2 1072 c 1,15,16
 -36 1086 -36 1086 -7 1101.5 c 128,-1,17
 22 1117 22 1117 74.5 1142.5 c 128,-1,18
 127 1168 127 1168 182.5 1208 c 128,-1,19
 238 1248 238 1248 255 1310 c 1,20,21
 288 1423 288 1423 156 1482 c 128,-1,22
 24 1541 24 1541 -159.5 1567 c 128,-1,23
 -343 1593 -343 1593 -522 1597 c 128,-1,24
 -701 1601 -701 1601 -763 1604 c 0,25,26
 -892 1610 -892 1610 -1121 1601.5 c 128,-1,27
 -1350 1593 -1350 1593 -1573.5 1580.5 c 128,-1,28
 -1797 1568 -1797 1568 -1962 1557 c 128,-1,29
 -2127 1546 -2127 1546 -2127 1546 c 1,30,31
 -2160 1552 -2160 1552 -2159 1585.5 c 128,-1,32
 -2158 1619 -2158 1619 -2127 1623 c 1,0,1
EndSplineSet
EndChar

StartChar: n
Encoding: 110 110 71
Width: 3144
Flags: W
LayerCount: 2
Fore
SplineSet
176 2020.5 m 128,-1,1
 185 2033 185 2033 197 2034 c 128,-1,2
 209 2035 209 2035 298.5 2031 c 128,-1,3
 388 2027 388 2027 665 2049 c 1,4,-1
 1991 2149 l 2,5,6
 2177 2164 2177 2164 2251.5 2166 c 128,-1,7
 2326 2168 2326 2168 2392 2161.5 c 128,-1,8
 2458 2155 2458 2155 2507 2143 c 128,-1,9
 2556 2131 2556 2131 2624 2111.5 c 128,-1,10
 2692 2092 2692 2092 2753.5 2069 c 128,-1,11
 2815 2046 2815 2046 2868.5 2017 c 128,-1,12
 2922 1988 2922 1988 2934.5 1959.5 c 128,-1,13
 2947 1931 2947 1931 2927 1923.5 c 128,-1,14
 2907 1916 2907 1916 2877 1917.5 c 128,-1,15
 2847 1919 2847 1919 2796 1923 c 128,-1,16
 2745 1927 2745 1927 2695 1930.5 c 128,-1,17
 2645 1934 2645 1934 2550 1933 c 128,-1,18
 2455 1932 2455 1932 2336 1924 c 2,19,-1
 699 1802 l 1,20,21
 599 1800 599 1800 560.5 1803 c 128,-1,22
 522 1806 522 1806 489.5 1812 c 128,-1,23
 457 1818 457 1818 427.5 1829 c 128,-1,24
 398 1840 398 1840 364 1856.5 c 128,-1,25
 330 1873 330 1873 294.5 1895.5 c 128,-1,26
 259 1918 259 1918 222.5 1947 c 128,-1,27
 186 1976 186 1976 176.5 1992 c 128,-1,0
 167 2008 167 2008 176 2020.5 c 128,-1,1
1011 2768 m 1,28,29
 1072 2768 1072 2768 1139.5 2766 c 128,-1,30
 1207 2764 1207 2764 1261 2754 c 1,31,32
 1299 2754 1299 2754 1342 2623 c 128,-1,33
 1385 2492 1385 2492 1443 2367 c 0,34,35
 1462 2324 1462 2324 1482 2319 c 1,36,37
 1498 2313 1498 2313 1507 2297.5 c 128,-1,38
 1516 2282 1516 2282 1490 2270 c 1,39,40
 1427 2258 1427 2258 1363.5 2260 c 128,-1,41
 1300 2262 1300 2262 1243 2270 c 1,42,43
 1188 2295 1188 2295 1158 2388 c 128,-1,44
 1128 2481 1128 2481 1065 2658 c 1,45,46
 1059 2668 1059 2668 1042 2689.5 c 128,-1,47
 1025 2711 1025 2711 1004 2716 c 1,48,49
 975 2721 975 2721 971.5 2743.5 c 128,-1,50
 968 2766 968 2766 1011 2768 c 1,28,29
3047 3724 m 1,51,52
 3080 3718 3080 3718 3076 3690 c 128,-1,53
 3072 3662 3072 3662 3034 3659 c 1,54,55
 2992 3644 2992 3644 2965.5 3550.5 c 128,-1,56
 2939 3457 2939 3457 2909 3353 c 0,57,58
 2840 3109 2840 3109 2782.5 2957.5 c 128,-1,59
 2725 2806 2725 2806 2673.5 2745 c 128,-1,60
 2622 2684 2622 2684 2550 2653 c 0,61,62
 2439 2605 2439 2605 2331.5 2582 c 128,-1,63
 2224 2559 2224 2559 2145 2559 c 1,64,65
 2184 2466 2184 2466 2276 2430.5 c 128,-1,66
 2368 2395 2368 2395 2329 2353 c 1,67,68
 2306 2330 2306 2330 2187 2412.5 c 128,-1,69
 2068 2495 2068 2495 2024 2575 c 1,70,71
 2024 2626 2024 2626 2065.5 2617.5 c 128,-1,72
 2107 2609 2107 2609 2155 2606 c 256,73,74
 2203 2603 2203 2603 2253 2611 c 128,-1,75
 2303 2619 2303 2619 2387 2662 c 0,76,77
 2428 2683 2428 2683 2464.5 2755.5 c 128,-1,78
 2501 2828 2501 2828 2530.5 2916.5 c 128,-1,79
 2560 3005 2560 3005 2580.5 3092 c 128,-1,80
 2601 3179 2601 3179 2634.5 3342.5 c 128,-1,81
 2668 3506 2668 3506 2692 3561.5 c 128,-1,82
 2716 3617 2716 3617 2760 3651.5 c 128,-1,83
 2804 3686 2804 3686 2844 3696 c 128,-1,84
 2884 3706 2884 3706 2933 3711 c 128,-1,85
 2982 3716 2982 3716 3047 3724 c 1,51,52
1842 4082 m 1,86,87
 1873 4077 1873 4077 1869 4053.5 c 128,-1,88
 1865 4030 1865 4030 1830 4027 c 1,89,90
 1791 4015 1791 4015 1766.5 3936 c 128,-1,91
 1742 3857 1742 3857 1715 3769 c 0,92,93
 1651 3563 1651 3563 1597.5 3435 c 128,-1,94
 1544 3307 1544 3307 1496.5 3256 c 128,-1,95
 1449 3205 1449 3205 1383 3179 c 0,96,97
 1280 3138 1280 3138 1180.5 3119 c 128,-1,98
 1081 3100 1081 3100 1008 3100 c 1,99,100
 1044 3021 1044 3021 1129 2991 c 128,-1,101
 1214 2961 1214 2961 1178 2926 c 1,102,103
 1157 2907 1157 2907 1047 2976.5 c 128,-1,104
 937 3046 937 3046 896 3113 c 1,105,106
 896 3156 896 3156 934.5 3149 c 128,-1,107
 973 3142 973 3142 1017 3139 c 1,108,109
 1062 3137 1062 3137 1108 3143.5 c 128,-1,110
 1154 3150 1154 3150 1232 3186 c 0,111,112
 1270 3204 1270 3204 1303.5 3265 c 128,-1,113
 1337 3326 1337 3326 1364.5 3401 c 128,-1,114
 1392 3476 1392 3476 1411 3549 c 128,-1,115
 1430 3622 1430 3622 1460.5 3760 c 128,-1,116
 1491 3898 1491 3898 1513.5 3945 c 128,-1,117
 1536 3992 1536 3992 1576.5 4021 c 128,-1,118
 1617 4050 1617 4050 1654 4058.5 c 128,-1,119
 1691 4067 1691 4067 1736.5 4071 c 128,-1,120
 1782 4075 1782 4075 1842 4082 c 1,86,87
EndSplineSet
EndChar

StartChar: o
Encoding: 111 111 72
Width: 3333
Flags: W
LayerCount: 2
Fore
SplineSet
167 2020.5 m 128,-1,1
 177 2033 177 2033 190 2034 c 128,-1,2
 203 2035 203 2035 301 2031 c 128,-1,3
 399 2027 399 2027 702 2049 c 1,4,-1
 2151 2149 l 2,5,6
 2354 2164 2354 2164 2435.5 2166 c 128,-1,7
 2517 2168 2517 2168 2589.5 2161.5 c 128,-1,8
 2662 2155 2662 2155 2715.5 2143 c 128,-1,9
 2769 2131 2769 2131 2843 2111.5 c 128,-1,10
 2917 2092 2917 2092 2984.5 2069 c 128,-1,11
 3052 2046 3052 2046 3110.5 2017 c 128,-1,12
 3169 1988 3169 1988 3182.5 1959.5 c 128,-1,13
 3196 1931 3196 1931 3174 1923.5 c 128,-1,14
 3152 1916 3152 1916 3119.5 1917.5 c 128,-1,15
 3087 1919 3087 1919 3031.5 1923 c 128,-1,16
 2976 1927 2976 1927 2921 1930.5 c 128,-1,17
 2866 1934 2866 1934 2762 1933 c 128,-1,18
 2658 1932 2658 1932 2528 1924 c 2,19,-1
 738 1802 l 1,20,21
 630 1800 630 1800 588 1803 c 128,-1,22
 546 1806 546 1806 510 1812 c 128,-1,23
 474 1818 474 1818 441.5 1829 c 128,-1,24
 409 1840 409 1840 372.5 1856.5 c 128,-1,25
 336 1873 336 1873 296.5 1895.5 c 128,-1,26
 257 1918 257 1918 217.5 1947 c 128,-1,27
 178 1976 178 1976 167.5 1992 c 128,-1,0
 157 2008 157 2008 167 2020.5 c 128,-1,1
2347 2715 m 1,28,29
 2408 2715 2408 2715 2475.5 2713 c 128,-1,30
 2543 2711 2543 2711 2597 2701 c 1,31,32
 2635 2701 2635 2701 2685 2596.5 c 128,-1,33
 2735 2492 2735 2492 2793 2367 c 1,34,35
 2810 2324 2810 2324 2832 2319 c 1,36,37
 2847 2313 2847 2313 2856 2297.5 c 128,-1,38
 2865 2282 2865 2282 2839 2270 c 1,39,40
 2777 2258 2777 2258 2713 2260 c 128,-1,41
 2649 2262 2649 2262 2592 2270 c 1,42,43
 2538 2295 2538 2295 2501 2361.5 c 128,-1,44
 2464 2428 2464 2428 2401 2605 c 1,45,46
 2395 2616 2395 2616 2378.5 2637.5 c 128,-1,47
 2362 2659 2362 2659 2340 2663 c 0,48,49
 2312 2668 2312 2668 2308 2691 c 128,-1,50
 2304 2714 2304 2714 2347 2715 c 1,28,29
1794 2715 m 1,51,52
 1855 2715 1855 2715 1922.5 2713 c 128,-1,53
 1990 2711 1990 2711 2044 2701 c 1,54,55
 2082 2701 2082 2701 2131.5 2596.5 c 128,-1,56
 2181 2492 2181 2492 2239 2367 c 0,57,58
 2258 2324 2258 2324 2278 2319 c 1,59,60
 2294 2313 2294 2313 2303 2297.5 c 128,-1,61
 2312 2282 2312 2282 2286 2270 c 1,62,63
 2223 2258 2223 2258 2159.5 2260 c 128,-1,64
 2096 2262 2096 2262 2038 2270 c 1,65,66
 1984 2295 1984 2295 1947.5 2361.5 c 128,-1,67
 1911 2428 1911 2428 1848 2605 c 1,68,69
 1842 2616 1842 2616 1825 2637.5 c 128,-1,70
 1808 2659 1808 2659 1787 2663 c 0,71,72
 1758 2668 1758 2668 1754.5 2691 c 128,-1,73
 1751 2714 1751 2714 1794 2715 c 1,51,52
1142 2815 m 1,74,75
 1190 2813 1190 2813 1186.5 2789.5 c 128,-1,76
 1183 2766 1183 2766 1150 2761 c 0,77,78
 1124 2757 1124 2757 1105 2741 c 128,-1,79
 1086 2725 1086 2725 1081 2716 c 0,80,81
 1007 2557 1007 2557 967.5 2438 c 128,-1,82
 928 2319 928 2319 866 2297 c 1,83,84
 800 2290 800 2290 727 2287.5 c 128,-1,85
 654 2285 654 2285 584 2297 c 1,86,87
 554 2308 554 2308 563.5 2321.5 c 128,-1,88
 573 2335 573 2335 593 2340 c 0,89,90
 614 2346 614 2346 637 2384 c 0,91,92
 708 2498 708 2498 760 2650 c 128,-1,93
 812 2802 812 2802 857 2802 c 1,94,95
 918 2811 918 2811 994.5 2813 c 128,-1,96
 1071 2815 1071 2815 1142 2815 c 1,74,75
EndSplineSet
EndChar

StartChar: p
Encoding: 112 112 73
Width: 3333
Flags: W
LayerCount: 2
Fore
SplineSet
167 2020.5 m 128,-1,1
 177 2033 177 2033 190 2034 c 128,-1,2
 203 2035 203 2035 301 2031 c 128,-1,3
 399 2027 399 2027 702 2049 c 1,4,-1
 2151 2149 l 2,5,6
 2354 2164 2354 2164 2435.5 2166 c 128,-1,7
 2517 2168 2517 2168 2589.5 2161.5 c 128,-1,8
 2662 2155 2662 2155 2715.5 2143 c 128,-1,9
 2769 2131 2769 2131 2843 2111.5 c 128,-1,10
 2917 2092 2917 2092 2984.5 2069 c 128,-1,11
 3052 2046 3052 2046 3110.5 2017 c 128,-1,12
 3169 1988 3169 1988 3182.5 1959.5 c 128,-1,13
 3196 1931 3196 1931 3174 1923.5 c 128,-1,14
 3152 1916 3152 1916 3119.5 1917.5 c 128,-1,15
 3087 1919 3087 1919 3031.5 1923 c 128,-1,16
 2976 1927 2976 1927 2921 1930.5 c 128,-1,17
 2866 1934 2866 1934 2762 1933 c 128,-1,18
 2658 1932 2658 1932 2528 1924 c 2,19,-1
 738 1802 l 1,20,21
 630 1800 630 1800 588 1803 c 128,-1,22
 546 1806 546 1806 510 1812 c 128,-1,23
 474 1818 474 1818 441.5 1829 c 128,-1,24
 409 1840 409 1840 372.5 1856.5 c 128,-1,25
 336 1873 336 1873 296.5 1895.5 c 128,-1,26
 257 1918 257 1918 217.5 1947 c 128,-1,27
 178 1976 178 1976 167.5 1992 c 128,-1,0
 157 2008 157 2008 167 2020.5 c 128,-1,1
2347 2715 m 1,28,29
 2408 2715 2408 2715 2475.5 2713 c 128,-1,30
 2543 2711 2543 2711 2597 2701 c 1,31,32
 2635 2701 2635 2701 2685 2596.5 c 128,-1,33
 2735 2492 2735 2492 2793 2367 c 1,34,35
 2810 2324 2810 2324 2832 2319 c 1,36,37
 2847 2313 2847 2313 2856 2297.5 c 128,-1,38
 2865 2282 2865 2282 2839 2270 c 1,39,40
 2777 2258 2777 2258 2713 2260 c 128,-1,41
 2649 2262 2649 2262 2592 2270 c 1,42,43
 2538 2295 2538 2295 2501 2361.5 c 128,-1,44
 2464 2428 2464 2428 2401 2605 c 1,45,46
 2395 2616 2395 2616 2378.5 2637.5 c 128,-1,47
 2362 2659 2362 2659 2340 2663 c 0,48,49
 2312 2668 2312 2668 2308 2691 c 128,-1,50
 2304 2714 2304 2714 2347 2715 c 1,28,29
1794 2715 m 1,51,52
 1855 2715 1855 2715 1922.5 2713 c 128,-1,53
 1990 2711 1990 2711 2044 2701 c 1,54,55
 2082 2701 2082 2701 2131.5 2596.5 c 128,-1,56
 2181 2492 2181 2492 2239 2367 c 0,57,58
 2258 2324 2258 2324 2278 2319 c 1,59,60
 2294 2313 2294 2313 2303 2297.5 c 128,-1,61
 2312 2282 2312 2282 2286 2270 c 1,62,63
 2223 2258 2223 2258 2159.5 2260 c 128,-1,64
 2096 2262 2096 2262 2038 2270 c 1,65,66
 1984 2295 1984 2295 1947.5 2361.5 c 128,-1,67
 1911 2428 1911 2428 1848 2605 c 1,68,69
 1842 2616 1842 2616 1825 2637.5 c 128,-1,70
 1808 2659 1808 2659 1787 2663 c 0,71,72
 1758 2668 1758 2668 1754.5 2691 c 128,-1,73
 1751 2714 1751 2714 1794 2715 c 1,51,52
1142 2815 m 1,74,75
 1190 2813 1190 2813 1186.5 2789.5 c 128,-1,76
 1183 2766 1183 2766 1150 2761 c 0,77,78
 1124 2757 1124 2757 1105 2741 c 128,-1,79
 1086 2725 1086 2725 1081 2716 c 0,80,81
 1007 2557 1007 2557 967.5 2438 c 128,-1,82
 928 2319 928 2319 866 2297 c 1,83,84
 800 2290 800 2290 727 2287.5 c 128,-1,85
 654 2285 654 2285 584 2297 c 1,86,87
 554 2308 554 2308 563.5 2321.5 c 128,-1,88
 573 2335 573 2335 593 2340 c 0,89,90
 614 2346 614 2346 637 2384 c 0,91,92
 708 2498 708 2498 760 2650 c 128,-1,93
 812 2802 812 2802 857 2802 c 1,94,95
 918 2811 918 2811 994.5 2813 c 128,-1,96
 1071 2815 1071 2815 1142 2815 c 1,74,75
1063 3287 m 1,97,98
 1063 3358 1063 3358 1065 3424 c 128,-1,99
 1067 3490 1067 3490 1067 3569 c 0,100,101
 1067 3595 1067 3595 1086 3598 c 1,102,103
 1236 3599 1236 3599 1389 3599.5 c 128,-1,104
 1542 3600 1542 3600 1693 3603 c 1,105,106
 1703 3590 1703 3590 1700.5 3569 c 128,-1,107
 1698 3548 1698 3548 1694 3534 c 1,108,109
 1662 3527 1662 3527 1491.5 3527 c 128,-1,110
 1321 3527 1321 3527 1196 3527 c 1,111,112
 1195 3429 1195 3429 1198.5 3328 c 128,-1,113
 1202 3227 1202 3227 1191 3226 c 0,114,115
 1173 3223 1173 3223 1158 3219.5 c 128,-1,116
 1143 3216 1143 3216 1065 3219 c 1,117,118
 982 3218 982 3218 875 3215.5 c 128,-1,119
 768 3213 768 3213 688 3213 c 1,120,121
 687 3115 687 3115 690.5 3013 c 128,-1,122
 694 2911 694 2911 683 2910 c 1,123,124
 651 2910 651 2910 615.5 2906 c 128,-1,125
 580 2902 580 2902 554 2910 c 0,126,127
 551 2910 551 2910 551 2930 c 1,128,129
 551 2930 551 2930 552.5 2931 c 128,-1,130
 554 2932 554 2932 554 2934 c 0,131,132
 554 3033 554 3033 556.5 3093.5 c 128,-1,133
 559 3154 559 3154 559 3256 c 0,134,135
 559 3281 559 3281 579 3284 c 1,136,137
 699 3284 699 3284 820 3285 c 128,-1,138
 941 3286 941 3286 1063 3287 c 1,97,98
EndSplineSet
EndChar

StartChar: q
Encoding: 113 113 74
Width: 1222
Flags: W
LayerCount: 2
Fore
SplineSet
307 2166 m 0,0,1
 259 2255 259 2255 302 2309 c 1,2,3
 352 2353 352 2353 400 2309 c 2,4,-1
 472 2242 l 1,5,6
 481 2236 481 2236 475 2224.5 c 128,-1,7
 469 2213 469 2213 452 2217 c 0,8,9
 428 2224 428 2224 405 2221.5 c 128,-1,10
 382 2219 382 2219 375 2178 c 0,11,12
 367 2127 367 2127 393.5 2097.5 c 128,-1,13
 420 2068 420 2068 456 2048 c 1,14,15
 495 2029 495 2029 525 2029.5 c 128,-1,16
 555 2030 555 2030 582 2034 c 1,17,18
 647 2040 647 2040 716.5 2053.5 c 128,-1,19
 786 2067 786 2067 853 2083 c 1,20,21
 871 2086 871 2086 900 2088 c 1,22,23
 928 2088 928 2088 966 2035.5 c 128,-1,24
 1004 1983 1004 1983 1011.5 1966.5 c 128,-1,25
 1019 1950 1019 1950 1010.5 1938 c 128,-1,26
 1002 1926 1002 1926 982 1937.5 c 128,-1,27
 962 1949 962 1949 918 1956 c 128,-1,28
 874 1963 874 1963 838 1963 c 2,29,-1
 721 1963 l 2,30,31
 648 1963 648 1963 571.5 1975.5 c 128,-1,32
 495 1988 495 1988 438 2025 c 0,33,34
 401 2049 401 2049 363 2090.5 c 128,-1,35
 325 2132 325 2132 307 2166 c 0,0,1
EndSplineSet
EndChar

StartChar: r
Encoding: 114 114 75
Width: 38
Flags: W
LayerCount: 2
Fore
SplineSet
35 1940 m 1,0,1
 37 1940 37 1940 37 1938 c 256,2,3
 37 1936 37 1936 35 1936 c 1,4,5
 35 1936 35 1936 34.5 1936.5 c 128,-1,6
 34 1937 34 1937 34 1938 c 2,7,8
 34 1938 34 1938 34.5 1939 c 128,-1,9
 35 1940 35 1940 35 1940 c 1,0,1
-952 3284 m 1,10,11
 -801 3285 -801 3285 -648.5 3286 c 128,-1,12
 -496 3287 -496 3287 -346 3289 c 1,13,14
 -335 3275 -335 3275 -337.5 3252 c 128,-1,15
 -340 3229 -340 3229 -345 3214 c 1,16,17
 -375 3207 -375 3207 -546 3207.5 c 128,-1,18
 -717 3208 -717 3208 -843 3208 c 1,19,20
 -843 3102 -843 3102 -838.5 2990.5 c 128,-1,21
 -834 2879 -834 2879 -846 2877 c 1,22,23
 -877 2877 -877 2877 -912.5 2872.5 c 128,-1,24
 -948 2868 -948 2868 -975 2877 c 0,25,26
 -978 2877 -978 2877 -978 2898 c 0,27,28
 -978 2899 -978 2899 -976.5 2900 c 128,-1,29
 -975 2901 -975 2901 -975 2903 c 0,30,31
 -975 3011 -975 3011 -973.5 3078 c 128,-1,32
 -972 3145 -972 3145 -972 3253 c 0,33,34
 -972 3281 -972 3281 -952 3284 c 1,10,11
EndSplineSet
EndChar

StartChar: s
Encoding: 115 115 76
Width: 3103
Flags: W
LayerCount: 2
Fore
SplineSet
138 2020.5 m 128,-1,1
 147 2033 147 2033 159 2034 c 128,-1,2
 171 2035 171 2035 260.5 2031 c 128,-1,3
 350 2027 350 2027 627 2049 c 1,4,-1
 1953 2149 l 2,5,6
 2139 2164 2139 2164 2213.5 2166 c 128,-1,7
 2288 2168 2288 2168 2354 2161.5 c 128,-1,8
 2420 2155 2420 2155 2469 2143 c 128,-1,9
 2518 2131 2518 2131 2586 2111.5 c 128,-1,10
 2654 2092 2654 2092 2715.5 2069 c 128,-1,11
 2777 2046 2777 2046 2830.5 2017 c 128,-1,12
 2884 1988 2884 1988 2896.5 1959.5 c 128,-1,13
 2909 1931 2909 1931 2889 1923.5 c 128,-1,14
 2869 1916 2869 1916 2839 1917.5 c 128,-1,15
 2809 1919 2809 1919 2758 1923 c 128,-1,16
 2707 1927 2707 1927 2657 1930.5 c 128,-1,17
 2607 1934 2607 1934 2512 1933 c 128,-1,18
 2417 1932 2417 1932 2298 1924 c 2,19,-1
 661 1802 l 1,20,21
 561 1800 561 1800 522.5 1803 c 128,-1,22
 484 1806 484 1806 451.5 1812 c 128,-1,23
 419 1818 419 1818 389.5 1829 c 128,-1,24
 360 1840 360 1840 326 1856.5 c 128,-1,25
 292 1873 292 1873 256.5 1895.5 c 128,-1,26
 221 1918 221 1918 184.5 1947 c 128,-1,27
 148 1976 148 1976 138.5 1992 c 128,-1,0
 129 2008 129 2008 138 2020.5 c 128,-1,1
EndSplineSet
EndChar

StartChar: t
Encoding: 116 116 77
Width: 10
Flags: W
LayerCount: 2
Fore
SplineSet
8 1970 m 0,0,1
 10 1970 10 1970 10 1967 c 0,2,3
 10 1965 10 1965 8 1965 c 0,4,5
 5 1965 5 1965 5 1967 c 0,6,7
 5 1970 5 1970 8 1970 c 0,0,1
-1148 2923 m 1,8,9
 -1147 2999 -1147 2999 -1145.5 3070 c 128,-1,10
 -1144 3141 -1144 3141 -1144 3227 c 0,11,12
 -1144 3255 -1144 3255 -1125 3258 c 1,13,14
 -973 3259 -973 3259 -820.5 3259.5 c 128,-1,15
 -668 3260 -668 3260 -518 3263 c 1,16,17
 -500 3238 -500 3238 -517 3188 c 1,18,19
 -547 3180 -547 3180 -718 3180.5 c 128,-1,20
 -889 3181 -889 3181 -1015 3181 c 1,21,22
 -1015 3076 -1015 3076 -1011.5 2967 c 128,-1,23
 -1008 2858 -1008 2858 -1020 2857 c 1,24,25
 -1036 2854 -1036 2854 -1051.5 2850 c 128,-1,26
 -1067 2846 -1067 2846 -1146 2849 c 1,27,28
 -1228 2848 -1228 2848 -1335 2845 c 128,-1,29
 -1442 2842 -1442 2842 -1522 2842 c 1,30,31
 -1522 2737 -1522 2737 -1519 2627 c 128,-1,32
 -1516 2517 -1516 2517 -1528 2516 c 1,33,34
 -1559 2516 -1559 2516 -1594.5 2511.5 c 128,-1,35
 -1630 2507 -1630 2507 -1656 2516 c 1,36,37
 -1660 2516 -1660 2516 -1660 2537 c 0,38,39
 -1660 2538 -1660 2538 -1658 2539 c 128,-1,40
 -1656 2540 -1656 2540 -1656 2541 c 0,41,42
 -1656 2649 -1656 2649 -1653.5 2714 c 128,-1,43
 -1651 2779 -1651 2779 -1651 2888 c 0,44,45
 -1651 2916 -1651 2916 -1632 2919 c 1,46,47
 -1512 2919 -1512 2919 -1390 2920 c 128,-1,48
 -1268 2921 -1268 2921 -1148 2923 c 1,8,9
EndSplineSet
EndChar

StartChar: u
Encoding: 117 117 78
Width: 0
Flags: W
LayerCount: 2
Fore
SplineSet
28 1970 m 0,0,1
 30 1970 30 1970 30 1967 c 0,2,3
 30 1965 30 1965 28 1965 c 0,4,5
 25 1965 25 1965 25 1967 c 0,6,7
 25 1970 25 1970 28 1970 c 0,0,1
-1887.5 2814 m 128,-1,9
 -1938 2828 -1938 2828 -1908.5 2795 c 128,-1,10
 -1879 2762 -1879 2762 -1851 2742 c 128,-1,11
 -1823 2722 -1823 2722 -1236 2468 c 1,12,13
 -1204 2453 -1204 2453 -1188 2477 c 1,14,-1
 -972 2720 l 1,15,16
 -929 2774 -929 2774 -978 2806 c 1,17,-1
 -1064 2856 l 1,18,19
 -1123 2889 -1123 2889 -1152 2850 c 1,20,-1
 -1357 2606 l 1,21,22
 -1728 2761 -1728 2761 -1782.5 2780.5 c 128,-1,8
 -1837 2800 -1837 2800 -1887.5 2814 c 128,-1,9
EndSplineSet
EndChar

StartChar: v
Encoding: 118 118 79
Width: 3001
Flags: W
LayerCount: 2
Fore
SplineSet
176 2020.5 m 128,-1,1
 185 2033 185 2033 197 2034 c 128,-1,2
 209 2035 209 2035 298.5 2031 c 128,-1,3
 388 2027 388 2027 665 2049 c 1,4,-1
 1991 2149 l 2,5,6
 2177 2164 2177 2164 2251.5 2166 c 128,-1,7
 2326 2168 2326 2168 2392 2161.5 c 128,-1,8
 2458 2155 2458 2155 2507 2143 c 128,-1,9
 2556 2131 2556 2131 2624 2111.5 c 128,-1,10
 2692 2092 2692 2092 2753.5 2069 c 128,-1,11
 2815 2046 2815 2046 2868.5 2017 c 128,-1,12
 2922 1988 2922 1988 2934.5 1959.5 c 128,-1,13
 2947 1931 2947 1931 2927 1923.5 c 128,-1,14
 2907 1916 2907 1916 2877 1917.5 c 128,-1,15
 2847 1919 2847 1919 2796 1923 c 128,-1,16
 2745 1927 2745 1927 2695 1930.5 c 128,-1,17
 2645 1934 2645 1934 2550 1933 c 128,-1,18
 2455 1932 2455 1932 2336 1924 c 2,19,-1
 699 1802 l 1,20,21
 599 1800 599 1800 560.5 1803 c 128,-1,22
 522 1806 522 1806 489.5 1812 c 128,-1,23
 457 1818 457 1818 427.5 1829 c 128,-1,24
 398 1840 398 1840 364 1856.5 c 128,-1,25
 330 1873 330 1873 294.5 1895.5 c 128,-1,26
 259 1918 259 1918 222.5 1947 c 128,-1,27
 186 1976 186 1976 176.5 1992 c 128,-1,0
 167 2008 167 2008 176 2020.5 c 128,-1,1
1625 2768 m 1,28,29
 1686 2768 1686 2768 1753.5 2766 c 128,-1,30
 1821 2764 1821 2764 1875 2754 c 1,31,32
 1913 2754 1913 2754 1956 2623 c 128,-1,33
 1999 2492 1999 2492 2057 2367 c 0,34,35
 2077 2323 2077 2323 2096 2319 c 1,36,37
 2112 2313 2112 2313 2121 2297.5 c 128,-1,38
 2130 2282 2130 2282 2104 2270 c 1,39,40
 2041 2258 2041 2258 1977.5 2260 c 128,-1,41
 1914 2262 1914 2262 1857 2270 c 1,42,43
 1802 2295 1802 2295 1772 2388 c 128,-1,44
 1742 2481 1742 2481 1679 2658 c 1,45,46
 1673 2668 1673 2668 1656.5 2689.5 c 128,-1,47
 1640 2711 1640 2711 1618 2716 c 1,48,49
 1588 2721 1588 2721 1585 2743.5 c 128,-1,50
 1582 2766 1582 2766 1625 2768 c 1,28,29
1071 2768 m 1,51,52
 1132 2768 1132 2768 1199.5 2766 c 128,-1,53
 1267 2764 1267 2764 1321 2754 c 1,54,55
 1359 2754 1359 2754 1402 2623 c 128,-1,56
 1445 2492 1445 2492 1504 2367 c 1,57,58
 1522 2324 1522 2324 1543 2319 c 1,59,60
 1559 2313 1559 2313 1568 2297.5 c 128,-1,61
 1577 2282 1577 2282 1550 2270 c 1,62,63
 1488 2258 1488 2258 1424 2260 c 128,-1,64
 1360 2262 1360 2262 1303 2270 c 1,65,66
 1249 2295 1249 2295 1218.5 2388 c 128,-1,67
 1188 2481 1188 2481 1125 2658 c 1,68,69
 1119 2668 1119 2668 1102.5 2689.5 c 128,-1,70
 1086 2711 1086 2711 1064 2716 c 1,71,72
 1035 2721 1035 2721 1031.5 2743.5 c 128,-1,73
 1028 2766 1028 2766 1071 2768 c 1,51,52
EndSplineSet
EndChar

StartChar: w
Encoding: 119 119 80
Width: 2
Flags: W
LayerCount: 2
Fore
SplineSet
-252 1965 m 0,0,1
 -250 1965 -250 1965 -250 1963 c 256,2,3
 -250 1961 -250 1961 -252 1961 c 0,4,5
 -255 1961 -255 1961 -255 1963 c 256,6,7
 -255 1965 -255 1965 -252 1965 c 0,0,1
-1352 2979 m 1,8,9
 -1332 2976 -1332 2976 -1332 2948 c 0,10,11
 -1332 2839 -1332 2839 -1330 2747 c 128,-1,12
 -1328 2655 -1328 2655 -1328 2547 c 0,13,14
 -1328 2546 -1328 2546 -1326 2544.5 c 128,-1,15
 -1324 2543 -1324 2543 -1324 2543 c 1,16,17
 -1324 2522 -1324 2522 -1328 2522 c 1,18,19
 -1353 2513 -1353 2513 -1388.5 2517.5 c 128,-1,20
 -1424 2522 -1424 2522 -1457 2522 c 1,21,22
 -1468 2523 -1468 2523 -1463 2656.5 c 128,-1,23
 -1458 2790 -1458 2790 -1459 2895 c 1,24,25
 -1584 2898 -1584 2898 -1755 2893 c 128,-1,26
 -1926 2888 -1926 2888 -1957 2895 c 1,27,28
 -1969 2907 -1969 2907 -1967.5 2934.5 c 128,-1,29
 -1966 2962 -1966 2962 -1956 2977 c 1,30,31
 -1805 2974 -1805 2974 -1653.5 2977 c 128,-1,32
 -1502 2980 -1502 2980 -1352 2979 c 1,8,9
EndSplineSet
EndChar

StartChar: x
Encoding: 120 120 81
Width: 347
Flags: W
LayerCount: 2
Fore
SplineSet
-269 2351 m 0,0,1
 -201 2362 -201 2362 -124.5 2372 c 128,-1,2
 -48 2382 -48 2382 15 2383 c 1,3,4
 57 2390 57 2390 135 2230.5 c 128,-1,5
 213 2071 213 2071 304 1956 c 0,6,7
 334 1917 334 1917 356 1916 c 1,8,9
 376 1913 376 1913 388 1899.5 c 128,-1,10
 400 1886 400 1886 372 1870 c 1,11,12
 303 1847 303 1847 231 1837 c 128,-1,13
 159 1827 159 1827 93 1826 c 1,14,15
 28 1841 28 1841 -32.5 1965.5 c 128,-1,16
 -93 2090 -93 2090 -192 2253 c 1,17,18
 -199 2262 -199 2262 -219.5 2276.5 c 128,-1,19
 -240 2291 -240 2291 -267 2292 c 0,20,21
 -300 2293 -300 2293 -308 2318 c 128,-1,22
 -316 2343 -316 2343 -269 2351 c 0,0,1
EndSplineSet
EndChar

StartChar: y
Encoding: 121 121 82
Width: 0
Flags: W
LayerCount: 2
Fore
SplineSet
8 2120 m 0,0,1
 10 2120 10 2120 10 2117 c 0,2,3
 10 2115 10 2115 8 2115 c 0,4,5
 5 2115 5 2115 5 2117 c 0,6,7
 5 2120 5 2120 8 2120 c 0,0,1
-1147 3035 m 0,8,9
 -1147 3062 -1147 3062 -1127 3065 c 1,10,11
 -1007 3065 -1007 3065 -885.5 3066 c 128,-1,12
 -764 3067 -764 3067 -644 3069 c 1,13,14
 -642 3145 -642 3145 -642 3169 c 128,-1,15
 -642 3193 -642 3193 -642 3279 c 0,16,17
 -642 3306 -642 3306 -622 3310 c 1,18,19
 -471 3311 -471 3311 -318.5 3311.5 c 128,-1,20
 -166 3312 -166 3312 -16 3314 c 1,21,22
 -5 3300 -5 3300 -7.5 3277.5 c 128,-1,23
 -10 3255 -10 3255 -15 3240 c 1,24,25
 -46 3232 -46 3232 -216.5 3232.5 c 128,-1,26
 -387 3233 -387 3233 -513 3233 c 1,27,28
 -513 3128 -513 3128 -508 3066 c 128,-1,29
 -503 3004 -503 3004 -515 3003 c 1,30,31
 -532 3000 -532 3000 -547.5 2996 c 128,-1,32
 -563 2992 -563 2992 -642 2996 c 1,33,34
 -723 2994 -723 2994 -830 2991.5 c 128,-1,35
 -937 2989 -937 2989 -1018 2989 c 1,36,37
 -1018 2981 -1018 2981 -1018 2974 c 128,-1,38
 -1018 2967 -1018 2967 -1018 2961 c 1,39,-1
 -1018 2961 l 1,40,41
 -1016 2758 -1016 2758 -1020 2758 c 0,42,43
 -1037 2755 -1037 2755 -1052.5 2751.5 c 128,-1,44
 -1068 2748 -1068 2748 -1146 2751 c 1,45,46
 -1228 2749 -1228 2749 -1335 2746.5 c 128,-1,47
 -1442 2744 -1442 2744 -1523 2744 c 1,48,49
 -1524 2516 -1524 2516 -1528 2516 c 0,50,51
 -1559 2516 -1559 2516 -1594.5 2511.5 c 128,-1,52
 -1630 2507 -1630 2507 -1656 2516 c 1,53,54
 -1660 2516 -1660 2516 -1660 2537 c 0,55,56
 -1660 2538 -1660 2538 -1658 2539 c 128,-1,57
 -1656 2540 -1656 2540 -1656 2541 c 0,58,59
 -1656 2649 -1656 2649 -1654 2665 c 128,-1,60
 -1652 2681 -1652 2681 -1652 2790 c 0,61,62
 -1652 2817 -1652 2817 -1633 2821 c 1,63,64
 -1512 2821 -1512 2821 -1390.5 2822 c 128,-1,65
 -1269 2823 -1269 2823 -1149 2824 c 1,66,67
 -1148 2877 -1148 2877 -1147.5 2929 c 128,-1,68
 -1147 2981 -1147 2981 -1147 3035 c 0,8,9
EndSplineSet
EndChar

StartChar: z
Encoding: 122 122 83
Width: 3151
Flags: W
LayerCount: 2
Fore
SplineSet
176 2020.5 m 128,-1,1
 185 2033 185 2033 197 2034 c 128,-1,2
 209 2035 209 2035 298.5 2031 c 128,-1,3
 388 2027 388 2027 665 2049 c 1,4,-1
 1991 2149 l 2,5,6
 2177 2164 2177 2164 2251.5 2166 c 128,-1,7
 2326 2168 2326 2168 2392 2161.5 c 128,-1,8
 2458 2155 2458 2155 2507 2143 c 128,-1,9
 2556 2131 2556 2131 2624 2111.5 c 128,-1,10
 2692 2092 2692 2092 2753.5 2069 c 128,-1,11
 2815 2046 2815 2046 2868.5 2017 c 128,-1,12
 2922 1988 2922 1988 2934.5 1959.5 c 128,-1,13
 2947 1931 2947 1931 2927 1923.5 c 128,-1,14
 2907 1916 2907 1916 2877 1917.5 c 128,-1,15
 2847 1919 2847 1919 2796 1923 c 128,-1,16
 2745 1927 2745 1927 2695 1930.5 c 128,-1,17
 2645 1934 2645 1934 2550 1933 c 128,-1,18
 2455 1932 2455 1932 2336 1924 c 2,19,-1
 699 1802 l 1,20,21
 599 1800 599 1800 560.5 1803 c 128,-1,22
 522 1806 522 1806 489.5 1812 c 128,-1,23
 457 1818 457 1818 427.5 1829 c 128,-1,24
 398 1840 398 1840 364 1856.5 c 128,-1,25
 330 1873 330 1873 294.5 1895.5 c 128,-1,26
 259 1918 259 1918 222.5 1947 c 128,-1,27
 186 1976 186 1976 176.5 1992 c 128,-1,0
 167 2008 167 2008 176 2020.5 c 128,-1,1
1318 2768 m 1,28,29
 1379 2768 1379 2768 1446.5 2766 c 128,-1,30
 1514 2764 1514 2764 1568 2754 c 1,31,32
 1606 2754 1606 2754 1649 2623 c 128,-1,33
 1692 2492 1692 2492 1750 2367 c 0,34,35
 1769 2324 1769 2324 1789 2319 c 1,36,37
 1805 2313 1805 2313 1814 2297.5 c 128,-1,38
 1823 2282 1823 2282 1797 2270 c 1,39,40
 1735 2258 1735 2258 1671 2260 c 128,-1,41
 1607 2262 1607 2262 1550 2270 c 1,42,43
 1496 2295 1496 2295 1465.5 2388 c 128,-1,44
 1435 2481 1435 2481 1372 2658 c 1,45,46
 1366 2668 1366 2668 1349 2689.5 c 128,-1,47
 1332 2711 1332 2711 1311 2716 c 1,48,49
 1282 2721 1282 2721 1278.5 2743.5 c 128,-1,50
 1275 2766 1275 2766 1318 2768 c 1,28,29
764 2768 m 1,51,52
 826 2768 826 2768 893 2766 c 128,-1,53
 960 2764 960 2764 1014 2754 c 1,54,55
 1052 2754 1052 2754 1095.5 2623 c 128,-1,56
 1139 2492 1139 2492 1197 2367 c 0,57,58
 1216 2324 1216 2324 1236 2319 c 1,59,60
 1252 2313 1252 2313 1261 2297.5 c 128,-1,61
 1270 2282 1270 2282 1243 2270 c 1,62,63
 1181 2258 1181 2258 1117 2260 c 128,-1,64
 1053 2262 1053 2262 996 2270 c 1,65,66
 942 2295 942 2295 911.5 2388 c 128,-1,67
 881 2481 881 2481 818 2658 c 1,68,69
 813 2668 813 2668 796 2689.5 c 128,-1,70
 779 2711 779 2711 758 2716 c 1,71,72
 729 2721 729 2721 725.5 2743.5 c 128,-1,73
 722 2766 722 2766 764 2768 c 1,51,52
3047 3724 m 1,74,75
 3080 3718 3080 3718 3076 3690 c 128,-1,76
 3072 3662 3072 3662 3034 3659 c 1,77,78
 2992 3644 2992 3644 2965.5 3550.5 c 128,-1,79
 2939 3457 2939 3457 2909 3353 c 0,80,81
 2840 3109 2840 3109 2782.5 2957.5 c 128,-1,82
 2725 2806 2725 2806 2673.5 2745 c 128,-1,83
 2622 2684 2622 2684 2550 2653 c 0,84,85
 2439 2605 2439 2605 2331.5 2582 c 128,-1,86
 2224 2559 2224 2559 2145 2559 c 1,87,88
 2184 2466 2184 2466 2276 2430.5 c 128,-1,89
 2368 2395 2368 2395 2329 2353 c 1,90,91
 2306 2330 2306 2330 2187 2412.5 c 128,-1,92
 2068 2495 2068 2495 2024 2575 c 1,93,94
 2024 2626 2024 2626 2065.5 2617.5 c 128,-1,95
 2107 2609 2107 2609 2155 2606 c 256,96,97
 2203 2603 2203 2603 2253 2611 c 128,-1,98
 2303 2619 2303 2619 2387 2662 c 0,99,100
 2428 2683 2428 2683 2464.5 2755.5 c 128,-1,101
 2501 2828 2501 2828 2530.5 2916.5 c 128,-1,102
 2560 3005 2560 3005 2580.5 3092 c 128,-1,103
 2601 3179 2601 3179 2634.5 3342.5 c 128,-1,104
 2668 3506 2668 3506 2692 3561.5 c 128,-1,105
 2716 3617 2716 3617 2760 3651.5 c 128,-1,106
 2804 3686 2804 3686 2844 3696 c 128,-1,107
 2884 3706 2884 3706 2933 3711 c 128,-1,108
 2982 3716 2982 3716 3047 3724 c 1,74,75
EndSplineSet
EndChar

StartChar: braceleft
Encoding: 123 123 84
Width: 3248
Flags: W
LayerCount: 2
Fore
SplineSet
181.5 2020.5 m 128,-1,1
 191 2033 191 2033 204.5 2034 c 128,-1,2
 218 2035 218 2035 315.5 2031 c 128,-1,3
 413 2027 413 2027 716 2049 c 1,4,-1
 2165 2149 l 2,5,6
 2369 2164 2369 2164 2450 2166 c 128,-1,7
 2531 2168 2531 2168 2603.5 2161.5 c 128,-1,8
 2676 2155 2676 2155 2730 2143 c 128,-1,9
 2784 2131 2784 2131 2858 2111.5 c 128,-1,10
 2932 2092 2932 2092 2999.5 2069 c 128,-1,11
 3067 2046 3067 2046 3125 2017 c 128,-1,12
 3183 1988 3183 1988 3197 1959.5 c 128,-1,13
 3211 1931 3211 1931 3189 1923.5 c 128,-1,14
 3167 1916 3167 1916 3134 1917.5 c 128,-1,15
 3101 1919 3101 1919 3045.5 1923 c 128,-1,16
 2990 1927 2990 1927 2935.5 1930.5 c 128,-1,17
 2881 1934 2881 1934 2776.5 1933 c 128,-1,18
 2672 1932 2672 1932 2542 1924 c 2,19,-1
 753 1802 l 1,20,21
 644 1800 644 1800 602 1803 c 128,-1,22
 560 1806 560 1806 524.5 1812 c 128,-1,23
 489 1818 489 1818 456.5 1829 c 128,-1,24
 424 1840 424 1840 387 1856.5 c 128,-1,25
 350 1873 350 1873 311 1895.5 c 128,-1,26
 272 1918 272 1918 232.5 1947 c 128,-1,27
 193 1976 193 1976 182.5 1992 c 128,-1,0
 172 2008 172 2008 181.5 2020.5 c 128,-1,1
141 3145 m 2,28,-1
 228 3145 l 2,29,30
 234 3145 234 3145 250.5 3144.5 c 128,-1,31
 267 3144 267 3144 272 3140 c 0,32,33
 278 3134 278 3134 270 3133.5 c 128,-1,34
 262 3133 262 3133 257 3100 c 2,35,-1
 248 3031 l 2,36,37
 242 2986 242 2986 206 2986 c 2,38,-1
 120 2986 l 2,39,40
 112 2986 112 2986 92.5 2987 c 128,-1,41
 73 2988 73 2988 73 2996 c 0,42,43
 72 3005 72 3005 79 3007.5 c 128,-1,44
 86 3010 86 3010 89 3031 c 2,45,-1
 98 3100 l 1,46,47
 105 3145 105 3145 141 3145 c 2,28,-1
912 3409 m 0,48,49
 912 3435 912 3435 932 3438 c 1,50,51
 1052 3439 1052 3439 1173.5 3440 c 128,-1,52
 1295 3441 1295 3441 1415 3442 c 1,53,54
 1416 3516 1416 3516 1416.5 3539 c 128,-1,55
 1417 3562 1417 3562 1417 3644 c 0,56,57
 1417 3670 1417 3670 1437 3674 c 1,58,59
 1587 3675 1587 3675 1739.5 3675.5 c 128,-1,60
 1892 3676 1892 3676 2043 3678 c 1,61,62
 2053 3665 2053 3665 2050.5 3643.5 c 128,-1,63
 2048 3622 2048 3622 2044 3607 c 1,64,65
 2013 3600 2013 3600 1842 3600 c 128,-1,66
 1671 3600 1671 3600 1546 3600 c 1,67,68
 1545 3498 1545 3498 1550 3438.5 c 128,-1,69
 1555 3379 1555 3379 1544 3379 c 1,70,71
 1526 3375 1526 3375 1511 3372 c 128,-1,72
 1496 3369 1496 3369 1418 3372 c 1,73,74
 1335 3370 1335 3370 1228 3367.5 c 128,-1,75
 1121 3365 1121 3365 1041 3365 c 1,76,77
 1041 3358 1041 3358 1041 3351 c 128,-1,78
 1041 3344 1041 3344 1041 3338 c 1,79,-1
 1041 3338 l 1,80,81
 1042 3143 1042 3143 1039 3143 c 0,82,83
 1021 3140 1021 3140 1006 3136.5 c 128,-1,84
 991 3133 991 3133 913 3136 c 1,85,86
 830 3135 830 3135 723 3132.5 c 128,-1,87
 616 3130 616 3130 536 3130 c 1,88,89
 534 2910 534 2910 532 2910 c 0,90,91
 500 2910 500 2910 464 2905.5 c 128,-1,92
 428 2901 428 2901 403 2910 c 1,93,94
 400 2910 400 2910 400 2930 c 1,95,96
 400 2930 400 2930 401.5 2931.5 c 128,-1,97
 403 2933 403 2933 403 2934 c 0,98,99
 403 3038 403 3038 405.5 3053.5 c 128,-1,100
 408 3069 408 3069 408 3174 c 0,101,102
 408 3200 408 3200 427 3203 c 1,103,104
 547 3204 547 3204 668.5 3204.5 c 128,-1,105
 790 3205 790 3205 911 3206 c 1,106,107
 911 3257 911 3257 911.5 3307.5 c 128,-1,108
 912 3358 912 3358 912 3409 c 0,48,49
2358 2715 m 1,109,110
 2419 2715 2419 2715 2486.5 2713 c 128,-1,111
 2554 2711 2554 2711 2608 2701 c 1,112,113
 2646 2701 2646 2701 2696 2596.5 c 128,-1,114
 2746 2492 2746 2492 2804 2367 c 1,115,116
 2821 2324 2821 2324 2843 2319 c 1,117,118
 2858 2313 2858 2313 2867 2297.5 c 128,-1,119
 2876 2282 2876 2282 2850 2270 c 1,120,121
 2788 2258 2788 2258 2724 2260 c 128,-1,122
 2660 2262 2660 2262 2603 2270 c 1,123,124
 2549 2295 2549 2295 2512 2361.5 c 128,-1,125
 2475 2428 2475 2428 2412 2605 c 1,126,127
 2406 2616 2406 2616 2389.5 2637.5 c 128,-1,128
 2373 2659 2373 2659 2351 2663 c 0,129,130
 2323 2668 2323 2668 2319 2691 c 128,-1,131
 2315 2714 2315 2714 2358 2715 c 1,109,110
1805 2715 m 1,132,133
 1866 2715 1866 2715 1933.5 2713 c 128,-1,134
 2001 2711 2001 2711 2055 2701 c 1,135,136
 2093 2701 2093 2701 2142.5 2596.5 c 128,-1,137
 2192 2492 2192 2492 2250 2367 c 0,138,139
 2269 2324 2269 2324 2289 2319 c 1,140,141
 2305 2313 2305 2313 2314 2297.5 c 128,-1,142
 2323 2282 2323 2282 2297 2270 c 1,143,144
 2234 2258 2234 2258 2170.5 2260 c 128,-1,145
 2107 2262 2107 2262 2049 2270 c 1,146,147
 1995 2295 1995 2295 1958.5 2361.5 c 128,-1,148
 1922 2428 1922 2428 1859 2605 c 1,149,150
 1853 2616 1853 2616 1836 2637.5 c 128,-1,151
 1819 2659 1819 2659 1798 2663 c 0,152,153
 1769 2668 1769 2668 1765.5 2691 c 128,-1,154
 1762 2714 1762 2714 1805 2715 c 1,132,133
1153 2815 m 1,155,156
 1201 2813 1201 2813 1197.5 2789.5 c 128,-1,157
 1194 2766 1194 2766 1161 2761 c 0,158,159
 1135 2757 1135 2757 1116 2741 c 128,-1,160
 1097 2725 1097 2725 1092 2716 c 0,161,162
 1018 2557 1018 2557 978.5 2438 c 128,-1,163
 939 2319 939 2319 877 2297 c 1,164,165
 811 2290 811 2290 738 2287.5 c 128,-1,166
 665 2285 665 2285 595 2297 c 1,167,168
 565 2308 565 2308 574.5 2321.5 c 128,-1,169
 584 2335 584 2335 604 2340 c 0,170,171
 625 2346 625 2346 648 2384 c 0,172,173
 719 2498 719 2498 771 2650 c 128,-1,174
 823 2802 823 2802 868 2802 c 1,175,176
 929 2811 929 2811 1005.5 2813 c 128,-1,177
 1082 2815 1082 2815 1153 2815 c 1,155,156
EndSplineSet
EndChar

StartChar: bar
Encoding: 124 124 85
Width: 1254
Flags: W
LayerCount: 2
Fore
SplineSet
363 1748 m 1,1,2
 287 1538 287 1538 258.5 1438 c 128,-1,3
 230 1338 230 1338 200 1243.5 c 128,-1,4
 170 1149 170 1149 145 1047.5 c 128,-1,5
 120 946 120 946 107 822.5 c 128,-1,6
 94 699 94 699 101.5 594 c 128,-1,7
 109 489 109 489 136 395 c 128,-1,8
 163 301 163 301 204 244 c 128,-1,9
 245 187 245 187 306.5 140.5 c 128,-1,10
 368 94 368 94 496 82 c 1,11,12
 576 82 576 82 644.5 124 c 128,-1,13
 713 166 713 166 789 275 c 1,14,15
 810 175 810 175 849 136 c 128,-1,16
 888 97 888 97 989 83 c 1,17,18
 1085 89 1085 89 1120.5 105 c 128,-1,19
 1156 121 1156 121 1201 173 c 1,20,-1
 1193 218 l 1,21,22
 1162 201 1162 201 1134.5 192 c 128,-1,23
 1107 183 1107 183 1055 189 c 1,24,25
 1021 195 1021 195 992.5 225 c 128,-1,26
 964 255 964 255 960.5 309 c 128,-1,27
 957 363 957 363 1013.5 611.5 c 128,-1,28
 1070 860 1070 860 1088.5 942.5 c 128,-1,29
 1107 1025 1107 1025 1063 1025 c 128,-1,30
 1019 1025 1019 1025 975 1025 c 128,-1,31
 931 1025 931 1025 917.5 941.5 c 128,-1,32
 904 858 904 858 889 773 c 128,-1,33
 874 688 874 688 853.5 605 c 128,-1,34
 833 522 833 522 810.5 455.5 c 128,-1,35
 788 389 788 389 763 342 c 128,-1,36
 738 295 738 295 687 261.5 c 128,-1,37
 636 228 636 228 560 222 c 1,38,39
 470 234 470 234 421.5 258.5 c 128,-1,40
 373 283 373 283 329.5 337 c 128,-1,41
 286 391 286 391 265 482 c 128,-1,42
 244 573 244 573 245.5 658 c 128,-1,43
 247 743 247 743 259.5 848 c 128,-1,44
 272 953 272 953 311 1067 c 128,-1,45
 350 1181 350 1181 399.5 1287 c 128,-1,46
 449 1393 449 1393 514 1503.5 c 128,-1,47
 579 1614 579 1614 628 1683 c 128,-1,48
 677 1752 677 1752 701.5 1801 c 128,-1,49
 726 1850 726 1850 628 1842 c 1,50,0
 398 1858 398 1858 363 1748 c 1,1,2
EndSplineSet
EndChar

StartChar: edieresis
Encoding: 235 235 86
Width: 0
Flags: W
LayerCount: 2
Fore
SplineSet
-1249 1337.5 m 128,-1,1
 -1299 1351 -1299 1351 -1270 1318.5 c 128,-1,2
 -1241 1286 -1241 1286 -1213 1266 c 128,-1,3
 -1185 1246 -1185 1246 -600 991 c 0,4,5
 -567 977 -567 977 -551 1001 c 1,6,-1
 -336 1244 l 1,7,8
 -293 1298 -293 1298 -342 1329 c 1,9,-1
 -428 1379 l 2,10,11
 -486 1412 -486 1412 -515 1373 c 1,12,-1
 -720 1130 l 1,13,14
 -1090 1285 -1090 1285 -1144.5 1304.5 c 128,-1,0
 -1199 1324 -1199 1324 -1249 1337.5 c 128,-1,1
EndSplineSet
EndChar

StartChar: OE
Encoding: 338 338 87
Width: 3002
Flags: W
LayerCount: 2
Fore
SplineSet
146 2020.5 m 128,-1,1
 155 2033 155 2033 167 2034 c 128,-1,2
 179 2035 179 2035 268.5 2031 c 128,-1,3
 358 2027 358 2027 635 2049 c 1,4,-1
 1961 2149 l 2,5,6
 2147 2164 2147 2164 2221.5 2166 c 128,-1,7
 2296 2168 2296 2168 2362 2161.5 c 128,-1,8
 2428 2155 2428 2155 2477 2143 c 128,-1,9
 2526 2131 2526 2131 2594 2111.5 c 128,-1,10
 2662 2092 2662 2092 2723.5 2069 c 128,-1,11
 2785 2046 2785 2046 2838.5 2017 c 128,-1,12
 2892 1988 2892 1988 2904.5 1959.5 c 128,-1,13
 2917 1931 2917 1931 2897 1923.5 c 128,-1,14
 2877 1916 2877 1916 2847 1917.5 c 128,-1,15
 2817 1919 2817 1919 2766 1923 c 128,-1,16
 2715 1927 2715 1927 2665 1930.5 c 128,-1,17
 2615 1934 2615 1934 2520 1933 c 128,-1,18
 2425 1932 2425 1932 2306 1924 c 2,19,-1
 669 1802 l 1,20,21
 569 1800 569 1800 530.5 1803 c 128,-1,22
 492 1806 492 1806 459.5 1812 c 128,-1,23
 427 1818 427 1818 397.5 1829 c 128,-1,24
 368 1840 368 1840 334 1856.5 c 128,-1,25
 300 1873 300 1873 264.5 1895.5 c 128,-1,26
 229 1918 229 1918 192.5 1947 c 128,-1,27
 156 1976 156 1976 146.5 1992 c 128,-1,0
 137 2008 137 2008 146 2020.5 c 128,-1,1
1772 1711 m 1,28,29
 1842 1711 1842 1711 1919 1709.5 c 128,-1,30
 1996 1708 1996 1708 2058 1700 c 1,31,32
 2101 1700 2101 1700 2140 1595 c 128,-1,33
 2179 1490 2179 1490 2250 1386 c 0,34,35
 2275 1350 2275 1350 2295 1346 c 1,36,37
 2313 1341 2313 1341 2323.5 1328.5 c 128,-1,38
 2334 1316 2334 1316 2304 1307 c 1,39,40
 2232 1296 2232 1296 2159.5 1298 c 128,-1,41
 2087 1300 2087 1300 2021 1307 c 1,42,43
 1959 1327 1959 1327 1932.5 1401.5 c 128,-1,44
 1906 1476 1906 1476 1834 1621 c 1,45,46
 1811 1655 1811 1655 1765 1662 c 0,47,48
 1732 1667 1732 1667 1727.5 1688.5 c 128,-1,49
 1723 1710 1723 1710 1772 1711 c 1,28,29
1263 1713 m 1,50,51
 1324 1713 1324 1713 1391.5 1711.5 c 128,-1,52
 1459 1710 1459 1710 1513 1702 c 1,53,54
 1551 1702 1551 1702 1594 1594 c 128,-1,55
 1637 1486 1637 1486 1696 1383 c 1,56,57
 1715 1347 1715 1347 1735 1343 c 0,58,59
 1751 1339 1751 1339 1759.5 1326.5 c 128,-1,60
 1768 1314 1768 1314 1742 1304 c 1,61,62
 1680 1293 1680 1293 1616 1295 c 128,-1,63
 1552 1297 1552 1297 1495 1304 c 1,64,65
 1441 1325 1441 1325 1410.5 1401 c 128,-1,66
 1380 1477 1380 1477 1317 1623 c 1,67,68
 1311 1632 1311 1632 1294.5 1649.5 c 128,-1,69
 1278 1667 1278 1667 1256 1671 c 0,70,71
 1227 1675 1227 1675 1223.5 1693.5 c 128,-1,72
 1220 1712 1220 1712 1263 1713 c 1,50,51
EndSplineSet
EndChar

StartChar: endash
Encoding: 8211 8211 88
Width: 0
Flags: W
LayerCount: 2
Fore
SplineSet
-356 2950 m 1,0,1
 -206 2951 -206 2951 -53 2952 c 128,-1,2
 100 2953 100 2953 250 2955 c 1,3,4
 261 2941 261 2941 258.5 2918 c 128,-1,5
 256 2895 256 2895 251 2880 c 1,6,7
 220 2873 220 2873 49.5 2873.5 c 128,-1,8
 -121 2874 -121 2874 -247 2874 c 1,9,10
 -248 2768 -248 2768 -243 2635 c 128,-1,11
 -238 2502 -238 2502 -249 2501 c 1,12,13
 -281 2501 -281 2501 -317 2496.5 c 128,-1,14
 -353 2492 -353 2492 -378 2501 c 1,15,16
 -381 2501 -381 2501 -381 2521 c 0,17,18
 -381 2522 -381 2522 -379.5 2523 c 128,-1,19
 -378 2524 -378 2524 -378 2526 c 0,20,21
 -378 2634 -378 2634 -376.5 2722.5 c 128,-1,22
 -375 2811 -375 2811 -375 2919 c 0,23,24
 -375 2947 -375 2947 -356 2950 c 1,0,1
EndSplineSet
EndChar

StartChar: divide
Encoding: 247 247 89
Width: 3333
Flags: W
LayerCount: 2
Fore
SplineSet
167 2020.5 m 128,-1,1
 177 2033 177 2033 190 2034 c 128,-1,2
 203 2035 203 2035 301 2031 c 128,-1,3
 399 2027 399 2027 702 2049 c 1,4,-1
 2151 2149 l 2,5,6
 2354 2164 2354 2164 2435.5 2166 c 128,-1,7
 2517 2168 2517 2168 2589.5 2161.5 c 128,-1,8
 2662 2155 2662 2155 2715.5 2143 c 128,-1,9
 2769 2131 2769 2131 2843 2111.5 c 128,-1,10
 2917 2092 2917 2092 2984.5 2069 c 128,-1,11
 3052 2046 3052 2046 3110.5 2017 c 128,-1,12
 3169 1988 3169 1988 3182.5 1959.5 c 128,-1,13
 3196 1931 3196 1931 3174 1923.5 c 128,-1,14
 3152 1916 3152 1916 3119.5 1917.5 c 128,-1,15
 3087 1919 3087 1919 3031.5 1923 c 128,-1,16
 2976 1927 2976 1927 2921 1930.5 c 128,-1,17
 2866 1934 2866 1934 2762 1933 c 128,-1,18
 2658 1932 2658 1932 2528 1924 c 2,19,-1
 738 1802 l 1,20,21
 630 1800 630 1800 588 1803 c 128,-1,22
 546 1806 546 1806 510 1812 c 128,-1,23
 474 1818 474 1818 441.5 1829 c 128,-1,24
 409 1840 409 1840 372.5 1856.5 c 128,-1,25
 336 1873 336 1873 296.5 1895.5 c 128,-1,26
 257 1918 257 1918 217.5 1947 c 128,-1,27
 178 1976 178 1976 167.5 1992 c 128,-1,0
 157 2008 157 2008 167 2020.5 c 128,-1,1
2347 2715 m 1,28,29
 2408 2715 2408 2715 2475.5 2713 c 128,-1,30
 2543 2711 2543 2711 2597 2701 c 1,31,32
 2635 2701 2635 2701 2685 2596.5 c 128,-1,33
 2735 2492 2735 2492 2793 2367 c 1,34,35
 2810 2324 2810 2324 2832 2319 c 1,36,37
 2847 2313 2847 2313 2856 2297.5 c 128,-1,38
 2865 2282 2865 2282 2839 2270 c 1,39,40
 2777 2258 2777 2258 2713 2260 c 128,-1,41
 2649 2262 2649 2262 2592 2270 c 1,42,43
 2538 2295 2538 2295 2501 2361.5 c 128,-1,44
 2464 2428 2464 2428 2401 2605 c 1,45,46
 2395 2616 2395 2616 2378.5 2637.5 c 128,-1,47
 2362 2659 2362 2659 2340 2663 c 0,48,49
 2312 2668 2312 2668 2308 2691 c 128,-1,50
 2304 2714 2304 2714 2347 2715 c 1,28,29
1794 2715 m 1,51,52
 1855 2715 1855 2715 1922.5 2713 c 128,-1,53
 1990 2711 1990 2711 2044 2701 c 1,54,55
 2082 2701 2082 2701 2131.5 2596.5 c 128,-1,56
 2181 2492 2181 2492 2239 2367 c 0,57,58
 2258 2324 2258 2324 2278 2319 c 1,59,60
 2294 2313 2294 2313 2303 2297.5 c 128,-1,61
 2312 2282 2312 2282 2286 2270 c 1,62,63
 2223 2258 2223 2258 2159.5 2260 c 128,-1,64
 2096 2262 2096 2262 2038 2270 c 1,65,66
 1984 2295 1984 2295 1947.5 2361.5 c 128,-1,67
 1911 2428 1911 2428 1848 2605 c 1,68,69
 1842 2616 1842 2616 1825 2637.5 c 128,-1,70
 1808 2659 1808 2659 1787 2663 c 0,71,72
 1758 2668 1758 2668 1754.5 2691 c 128,-1,73
 1751 2714 1751 2714 1794 2715 c 1,51,52
1142 2815 m 1,74,75
 1190 2813 1190 2813 1186.5 2789.5 c 128,-1,76
 1183 2766 1183 2766 1150 2761 c 0,77,78
 1124 2757 1124 2757 1105 2741 c 128,-1,79
 1086 2725 1086 2725 1081 2716 c 0,80,81
 1007 2557 1007 2557 967.5 2438 c 128,-1,82
 928 2319 928 2319 866 2297 c 1,83,84
 800 2290 800 2290 727 2287.5 c 128,-1,85
 654 2285 654 2285 584 2297 c 1,86,87
 554 2308 554 2308 563.5 2321.5 c 128,-1,88
 573 2335 573 2335 593 2340 c 0,89,90
 614 2346 614 2346 637 2384 c 0,91,92
 708 2498 708 2498 760 2650 c 128,-1,93
 812 2802 812 2802 857 2802 c 1,94,95
 918 2811 918 2811 994.5 2813 c 128,-1,96
 1071 2815 1071 2815 1142 2815 c 1,74,75
EndSplineSet
EndChar

